<svg version="1.2" xmlns="http://www.w3.org/2000/svg" viewBox="0 0 1000 400" width="1000" height="400">
	<title>2107</title>
	<defs>
		<clipPath clipPathUnits="userSpaceOnUse" id="cp1">
			<path d="m1000 400h-1000v-400h1000z"/>
		</clipPath>
		<linearGradient id="g1" x2="1" gradientUnits="userSpaceOnUse" gradientTransform="matrix(1010.222,0,0,154.889,-5.222,283.444)">
			<stop offset="0" stop-color="#5668ff"/>
			<stop offset="1" stop-color="#527fff"/>
		</linearGradient>
		<linearGradient id="g2" x2="1" gradientUnits="userSpaceOnUse" gradientTransform="matrix(-28.549,-132.313,442.138,-95.399,505.064,450.782)">
			<stop offset="0" stop-color="#b3ecff"/>
			<stop offset="1" stop-color="#cff0ff"/>
		</linearGradient>
		<linearGradient id="g3" x2="1" gradientUnits="userSpaceOnUse" gradientTransform="matrix(-42.354,291.187,-1500.405,-218.241,384.16,156.826)">
			<stop offset="0" stop-color="#b3ecff"/>
			<stop offset="1" stop-color="#cff0ff"/>
		</linearGradient>
		<linearGradient id="g4" x2="1" gradientUnits="userSpaceOnUse" gradientTransform="matrix(0,130.098,-8453.997,0,504.099,286.744)">
			<stop offset="0" stop-color="#b3ecff"/>
			<stop offset="1" stop-color="#cff0ff"/>
		</linearGradient>
	</defs>
	<style>
		.s0 { fill: url(#g1) } 
		.s1 { mix-blend-mode: soft-light;fill: url(#g2) } 
		.s2 { mix-blend-mode: soft-light;fill: url(#g3) } 
		.s3 { mix-blend-mode: soft-light;fill: url(#g4) } 
		.s4 { fill: #ffffff } 
		.s5 { fill: #ccffff } 
	</style>
	<g id="_Artboards_">
	</g>
	<g id="layer1">
		<g id="&lt;Group&gt;">
			<g id="&lt;Clip Group&gt;" clip-path="url(#cp1)">
				<g id="&lt;Group&gt;">
					<path id="&lt;Path&gt;" class="s0" d="m1005 438.3h-1008l-2.2-154.9 916 16.3h94.2z"/>
					<path id="&lt;Path&gt;" class="s1" d="m386.7 332.2c92.4 5.4 180.9-1.4 226.1 0 45.2 1.4 265.5 13.4 299.8 25.9 34.3 12.6-488 44.1-488 44.1h582.6c0 0-150.5-11.7-143.4-18.3 7-6.6 62.2-25.1 61.5-27.3-0.6-2.2-164.8-18.6-165.2-21.2-0.3-2.6-191.4-7.5-202.3-7.9-10.9-0.5-147.4-6.6-147.4-6.6l-176.1 7-240.9-7-4.9 7z"/>
					<path id="&lt;Path&gt;" class="s2" d="m-15.4 343.7c0 0 240.5 17.8 331 14.4 90.5-3.3 391.4 1.4 393.8 14.9 2.4 13.5-317.6 36-317.6 36l-412.1-3.3z"/>
					<path id="&lt;Path&gt;" class="s3" d="m1011.6 318.4c-79.6-2.2-351.1-9.6-482.2-10.6-154.5-1-533.1 6.7-533.1 6.7v-11.7l1009.2 1.4z"/>
					<g id="&lt;Group&gt;" style="mix-blend-mode: soft-light">
						<path id="&lt;Path&gt;" class="s4" d="m186.4 388.2c0 0.9-0.8 1.7-1.7 1.7-1 0-1.8-0.8-1.8-1.7 0-1 0.8-1.8 1.8-1.8 0.9 0 1.7 0.8 1.7 1.8z"/>
						<path id="&lt;Path&gt;" class="s4" d="m127 295c0 0.9-0.8 1.7-1.7 1.7-1 0-1.8-0.8-1.8-1.7 0-1 0.8-1.8 1.8-1.8 0.9 0 1.7 0.8 1.7 1.8z"/>
						<path id="&lt;Path&gt;" class="s4" d="m59 355.2c0 0.9-0.8 1.7-1.7 1.7-1 0-1.8-0.8-1.8-1.7 0-1 0.8-1.8 1.8-1.8 0.9 0 1.7 0.8 1.7 1.8z"/>
						<path id="&lt;Path&gt;" class="s4" d="m-11.9 344.9c0 1-0.7 1.8-1.7 1.8-1 0-1.7-0.8-1.7-1.8 0-0.9 0.7-1.7 1.7-1.7 1 0 1.7 0.8 1.7 1.7z"/>
						<path id="&lt;Path&gt;" class="s4" d="m184.7 355.2c0 0.9-0.8 1.7-1.8 1.7-0.9 0-1.7-0.8-1.7-1.7 0-1 0.8-1.8 1.7-1.8 1 0 1.8 0.8 1.8 1.8z"/>
						<path id="&lt;Path&gt;" class="s4" d="m57.3 324.4c0 1-0.8 1.7-1.8 1.7-0.9 0-1.7-0.7-1.7-1.7 0-1 0.8-1.7 1.7-1.7 1 0 1.8 0.7 1.8 1.7z"/>
						<path id="&lt;Path&gt;" class="s4" d="m209.1 395.4c0 0.6-0.5 1.2-1.2 1.2-0.7 0-1.2-0.6-1.2-1.2 0-0.7 0.5-1.3 1.2-1.3 0.7 0 1.2 0.6 1.2 1.3z"/>
						<path id="&lt;Path&gt;" class="s4" d="m39.2 355.2c0 0.7-0.6 1.2-1.3 1.2-0.7 0-1.2-0.5-1.2-1.2 0-0.7 0.5-1.3 1.2-1.3 0.7 0 1.3 0.6 1.3 1.3z"/>
						<path id="&lt;Path&gt;" class="s4" d="m159 376.9c0 0.6-0.6 1.2-1.3 1.2-0.6 0-1.2-0.6-1.2-1.2 0-0.7 0.6-1.3 1.2-1.3 0.7 0 1.3 0.6 1.3 1.3z"/>
						<path id="&lt;Path&gt;" class="s4" d="m219.9 306.8c0 0.7-0.5 1.2-1.2 1.2-0.7 0-1.2-0.5-1.2-1.2 0-0.7 0.5-1.3 1.2-1.3 0.7 0 1.2 0.6 1.2 1.3z"/>
						<path id="&lt;Path&gt;" class="s4" d="m220.9 359.1c0 0.7-0.6 1.2-1.3 1.2-0.6 0-1.2-0.5-1.2-1.2 0-0.7 0.6-1.2 1.2-1.2 0.7 0 1.3 0.5 1.3 1.2z"/>
						<path id="&lt;Path&gt;" class="s4" d="m149.7 362.4c0 0.5-0.4 0.9-0.9 0.9-0.5 0-0.9-0.4-0.9-0.9 0-0.5 0.4-0.9 0.9-0.9 0.5 0 0.9 0.4 0.9 0.9z"/>
						<path id="&lt;Path&gt;" class="s4" d="m88.9 349c0 0.5-0.4 0.9-0.9 0.9-0.5 0-0.9-0.4-0.9-0.9 0-0.5 0.4-0.9 0.9-0.9 0.5 0 0.9 0.4 0.9 0.9z"/>
						<path id="&lt;Path&gt;" class="s4" d="m8 375.4c0 0.5-0.4 0.9-0.9 0.9-0.5 0-0.9-0.4-0.9-0.9 0-0.5 0.4-0.9 0.9-0.9 0.5 0 0.9 0.4 0.9 0.9z"/>
						<path id="&lt;Path&gt;" class="s4" d="m8 354.6c0 0.5-0.4 1-0.9 1-0.5 0-0.9-0.5-0.9-1 0-0.5 0.4-0.9 0.9-0.9 0.5 0 0.9 0.4 0.9 0.9z"/>
						<path id="&lt;Path&gt;" class="s4" d="m24.9 301.4c0 0.5-0.4 1-0.9 1-0.5 0-0.9-0.5-0.9-1 0-0.5 0.4-0.9 0.9-0.9 0.5 0 0.9 0.4 0.9 0.9z"/>
						<path id="&lt;Path&gt;" class="s4" d="m188.5 381.3c0 0.3-0.3 0.6-0.6 0.6-0.3 0-0.6-0.3-0.6-0.6 0-0.3 0.3-0.6 0.6-0.6 0.3 0 0.6 0.3 0.6 0.6z"/>
						<path id="&lt;Path&gt;" class="s4" d="m155.1 376.3c0 0.3-0.3 0.6-0.6 0.6-0.3 0-0.6-0.3-0.6-0.6 0-0.3 0.3-0.6 0.6-0.6 0.3 0 0.6 0.3 0.6 0.6z"/>
						<path id="&lt;Path&gt;" class="s4" d="m155.7 389.9c0 0.4-0.3 0.6-0.6 0.6-0.3 0-0.6-0.2-0.6-0.6 0-0.3 0.3-0.6 0.6-0.6 0.3 0 0.6 0.3 0.6 0.6z"/>
						<path id="&lt;Path&gt;" class="s4" d="m163.1 386.4c0 0.4-0.2 0.6-0.5 0.6-0.4 0-0.6-0.2-0.6-0.6 0-0.3 0.2-0.5 0.6-0.5 0.3 0 0.5 0.2 0.5 0.5z"/>
						<path id="&lt;Path&gt;" class="s4" d="m147.6 389c0 0.3-0.3 0.6-0.6 0.6-0.3 0-0.6-0.3-0.6-0.6 0-0.3 0.3-0.6 0.6-0.6 0.3 0 0.6 0.3 0.6 0.6z"/>
						<path id="&lt;Path&gt;" class="s4" d="m-22.4 408.7c0 0.3-0.2 0.5-0.6 0.5-0.3 0-0.5-0.2-0.5-0.5 0-0.4 0.2-0.6 0.5-0.6 0.4 0 0.6 0.2 0.6 0.6z"/>
						<path id="&lt;Path&gt;" class="s4" d="m193.7 343.8c0 0.3-0.3 0.6-0.6 0.6-0.3 0-0.6-0.3-0.6-0.6 0-0.3 0.3-0.6 0.6-0.6 0.3 0 0.6 0.3 0.6 0.6z"/>
						<path id="&lt;Path&gt;" class="s4" d="m165.3 377.2c0 0.1-0.1 0.2-0.3 0.2-0.2 0-0.3-0.1-0.3-0.2 0-0.2 0.1-0.3 0.3-0.3 0.2 0 0.3 0.1 0.3 0.3z"/>
						<path id="&lt;Path&gt;" class="s4" d="m37 417.6c0 0.2-0.2 0.3-0.3 0.3-0.2 0-0.3-0.1-0.3-0.3 0-0.1 0.1-0.3 0.3-0.3 0.1 0 0.3 0.2 0.3 0.3z"/>
						<path id="&lt;Path&gt;" class="s4" d="m95.6 377.4c0 0.2-0.1 0.3-0.3 0.3-0.1 0-0.3-0.1-0.3-0.3 0-0.1 0.2-0.2 0.3-0.2 0.2 0 0.3 0.1 0.3 0.2z"/>
						<path id="&lt;Path&gt;" class="s4" d="m29.7 373.3c0 0.2-0.2 0.3-0.3 0.3-0.2 0-0.3-0.1-0.3-0.3 0-0.1 0.1-0.2 0.3-0.2 0.1 0 0.3 0.1 0.3 0.2z"/>
						<path id="&lt;Path&gt;" class="s4" d="m129.1 373.1c0 0.1-0.1 0.2-0.3 0.2-0.2 0-0.3-0.1-0.3-0.2 0-0.2 0.1-0.3 0.3-0.3 0.2 0 0.3 0.1 0.3 0.3z"/>
						<path id="&lt;Path&gt;" class="s4" d="m88.3 375.7c0 0.2-0.1 0.3-0.3 0.3-0.2 0-0.3-0.1-0.3-0.3 0-0.2 0.1-0.3 0.3-0.3 0.2 0 0.3 0.1 0.3 0.3z"/>
						<path id="&lt;Path&gt;" class="s4" d="m-11.6 377.2c0 0.2-0.1 0.3-0.3 0.3-0.1 0-0.2-0.1-0.2-0.3 0-0.1 0.1-0.2 0.2-0.2 0.2 0 0.3 0.1 0.3 0.2z"/>
						<path id="&lt;Path&gt;" class="s4" d="m-22.1 376.3c0 0.1-0.1 0.3-0.3 0.3-0.1 0-0.3-0.2-0.3-0.3 0-0.2 0.2-0.3 0.3-0.3 0.2 0 0.3 0.1 0.3 0.3z"/>
						<path id="&lt;Path&gt;" class="s4" d="m160.9 381.9c0 0.2-0.1 0.3-0.3 0.3-0.1 0-0.2-0.1-0.2-0.3 0-0.2 0.1-0.3 0.2-0.3 0.2 0 0.3 0.1 0.3 0.3z"/>
						<path id="&lt;Path&gt;" class="s4" d="m105.8 382.2c0 0.2-0.1 0.3-0.3 0.3-0.1 0-0.2-0.1-0.2-0.3 0-0.2 0.1-0.3 0.2-0.3 0.2 0 0.3 0.1 0.3 0.3z"/>
						<path id="&lt;Path&gt;" class="s4" d="m29.4 383c0 0.2-0.2 0.3-0.3 0.3-0.2 0-0.3-0.1-0.3-0.3 0-0.1 0.1-0.3 0.3-0.3 0.1 0 0.3 0.2 0.3 0.3z"/>
						<path id="&lt;Path&gt;" class="s4" d="m163.1 372.5c0 0.3-0.2 0.6-0.5 0.6-0.4 0-0.6-0.3-0.6-0.6 0-0.3 0.2-0.6 0.6-0.6 0.3 0 0.5 0.3 0.5 0.6z"/>
						<path id="&lt;Path&gt;" class="s4" d="m136.4 371.9c0 0.3-0.2 0.6-0.5 0.6-0.4 0-0.6-0.3-0.6-0.6 0-0.3 0.2-0.6 0.6-0.6 0.3 0 0.5 0.3 0.5 0.6z"/>
						<path id="&lt;Path&gt;" class="s4" d="m26 347.3c0 0.3-0.2 0.5-0.6 0.5-0.3 0-0.5-0.2-0.5-0.5 0-0.4 0.2-0.6 0.5-0.6 0.4 0 0.6 0.2 0.6 0.6z"/>
						<path id="&lt;Path&gt;" class="s4" d="m147.6 302.4c0 0.3-0.3 0.5-0.6 0.5-0.3 0-0.6-0.2-0.6-0.5 0-0.4 0.3-0.6 0.6-0.6 0.3 0 0.6 0.2 0.6 0.6z"/>
						<path id="&lt;Path&gt;" class="s4" d="m117.2 391.5c0 0.3-0.3 0.6-0.6 0.6-0.3 0-0.6-0.3-0.6-0.6 0-0.3 0.3-0.6 0.6-0.6 0.3 0 0.6 0.3 0.6 0.6z"/>
						<path id="&lt;Path&gt;" class="s4" d="m23.1 346.7c0 0.3-0.3 0.6-0.6 0.6-0.4 0-0.6-0.3-0.6-0.6 0-0.3 0.2-0.6 0.6-0.6 0.3 0 0.6 0.3 0.6 0.6z"/>
						<path id="&lt;Path&gt;" class="s4" d="m13.4 312.9c0 0.3-0.2 0.6-0.6 0.6-0.3 0-0.5-0.3-0.5-0.6 0-0.3 0.2-0.6 0.5-0.6 0.4 0 0.6 0.3 0.6 0.6z"/>
						<path id="&lt;Path&gt;" class="s4" d="m-8.8 313.5c0 0.3-0.3 0.6-0.6 0.6-0.3 0-0.6-0.3-0.6-0.6 0-0.3 0.3-0.6 0.6-0.6 0.3 0 0.6 0.3 0.6 0.6z"/>
						<path id="&lt;Path&gt;" class="s4" d="m6.2 351.6c0 0.3-0.3 0.6-0.6 0.6-0.3 0-0.6-0.3-0.6-0.6 0-0.3 0.3-0.6 0.6-0.6 0.3 0 0.6 0.3 0.6 0.6z"/>
						<path id="&lt;Path&gt;" class="s4" d="m-9.4 311.7c0 0.4-0.2 0.6-0.6 0.6-0.3 0-0.5-0.2-0.5-0.6 0-0.3 0.2-0.5 0.5-0.5 0.4 0 0.6 0.2 0.6 0.5z"/>
						<path id="&lt;Path&gt;" class="s4" d="m22.5 311.7c0 0.4-0.3 0.6-0.6 0.6-0.3 0-0.6-0.2-0.6-0.6 0-0.3 0.3-0.5 0.6-0.5 0.3 0 0.6 0.2 0.6 0.5z"/>
						<path id="&lt;Path&gt;" class="s4" d="m128.8 344.4c0 0.3-0.3 0.5-0.6 0.5-0.3 0-0.6-0.2-0.6-0.5 0-0.4 0.3-0.6 0.6-0.6 0.3 0 0.6 0.2 0.6 0.6z"/>
						<path id="&lt;Path&gt;" class="s4" d="m32.1 304.1c0 0.3-0.2 0.6-0.5 0.6-0.4 0-0.6-0.3-0.6-0.6 0-0.3 0.2-0.6 0.6-0.6 0.3 0 0.5 0.3 0.5 0.6z"/>
						<path id="&lt;Path&gt;" class="s4" d="m-23.5 293.2c0 0.3-0.3 0.6-0.6 0.6-0.3 0-0.6-0.3-0.6-0.6 0-0.3 0.3-0.6 0.6-0.6 0.3 0 0.6 0.3 0.6 0.6z"/>
						<path id="&lt;Path&gt;" class="s4" d="m118.4 317.6c0 0.3-0.2 0.6-0.6 0.6-0.3 0-0.5-0.3-0.5-0.6 0-0.3 0.2-0.6 0.5-0.6 0.4 0 0.6 0.3 0.6 0.6z"/>
						<path id="&lt;Path&gt;" class="s4" d="m158.3 341c0 0.3-0.2 0.6-0.5 0.6-0.4 0-0.6-0.3-0.6-0.6 0-0.3 0.2-0.6 0.6-0.6 0.3 0 0.5 0.3 0.5 0.6z"/>
						<path id="&lt;Path&gt;" class="s4" d="m292.2 294c0.7-0.7 1.8-0.7 2.5 0 0.6 0.7 0.6 1.8 0 2.5-0.7 0.7-1.8 0.7-2.5 0-0.7-0.7-0.7-1.8 0-2.5z"/>
						<path id="&lt;Path&gt;" class="s4" d="m219.6 298.8c0.7-0.7 1.8-0.7 2.5 0 0.7 0.7 0.7 1.8 0 2.5-0.7 0.6-1.8 0.6-2.5 0-0.6-0.7-0.6-1.8 0-2.5z"/>
						<path id="&lt;Path&gt;" class="s4" d="m270.1 318.6c0.7-0.7 1.8-0.7 2.4 0 0.7 0.7 0.7 1.8 0 2.4-0.6 0.7-1.7 0.7-2.4 0-0.7-0.6-0.7-1.7 0-2.4z"/>
						<path id="&lt;Path&gt;" class="s4" d="m303.6 321.4c0.5-0.5 1.2-0.5 1.7 0 0.5 0.5 0.5 1.3 0 1.7-0.5 0.5-1.2 0.5-1.7 0-0.5-0.4-0.5-1.2 0-1.7z"/>
						<path id="&lt;Path&gt;" class="s4" d="m247.2 290.2c0.5-0.5 1.3-0.5 1.8 0 0.5 0.5 0.5 1.3 0 1.7-0.5 0.5-1.3 0.5-1.8 0-0.4-0.4-0.4-1.2 0-1.7z"/>
						<path id="&lt;Path&gt;" class="s4" d="m299.9 338.2c0.4-0.3 1-0.3 1.3 0 0.4 0.4 0.4 0.9 0 1.3-0.3 0.4-0.9 0.4-1.3 0-0.3-0.4-0.3-0.9 0-1.3z"/>
						<path id="&lt;Path&gt;" class="s4" d="m285.8 297.4c0.3-0.3 0.6-0.3 0.9 0 0.2 0.2 0.2 0.6 0 0.8-0.3 0.2-0.6 0.2-0.9 0-0.2-0.2-0.2-0.6 0-0.8z"/>
						<path id="&lt;Path&gt;" class="s4" d="m305.9 324.6c0.2-0.3 0.6-0.3 0.8 0 0.3 0.2 0.3 0.5 0 0.8-0.2 0.2-0.6 0.2-0.8 0-0.2-0.3-0.2-0.6 0-0.8z"/>
						<path id="&lt;Path&gt;" class="s4" d="m315.1 314.5c0.3-0.2 0.6-0.2 0.9 0 0.2 0.2 0.2 0.6 0 0.8-0.3 0.2-0.6 0.2-0.9 0-0.2-0.2-0.2-0.6 0-0.8z"/>
						<path id="&lt;Path&gt;" class="s4" d="m307.4 311.7c0.2-0.2 0.6-0.2 0.8 0 0.3 0.2 0.3 0.6 0 0.8-0.2 0.2-0.6 0.2-0.8 0-0.2-0.2-0.2-0.6 0-0.8z"/>
						<path id="&lt;Path&gt;" class="s4" d="m255.7 320.3c0.2-0.3 0.5-0.3 0.8 0 0.2 0.2 0.2 0.6 0 0.8-0.3 0.2-0.6 0.2-0.8 0-0.3-0.2-0.3-0.6 0-0.8z"/>
						<path id="&lt;Path&gt;" class="s4" d="m299.3 316.7c0.1-0.1 0.3-0.1 0.4 0 0.1 0.1 0.1 0.3 0 0.4-0.1 0.2-0.3 0.2-0.4 0-0.1-0.1-0.1-0.3 0-0.4z"/>
						<path id="&lt;Path&gt;" class="s4" d="m322 345.2c0.1-0.1 0.3-0.1 0.4 0 0.1 0.1 0.1 0.3 0 0.4-0.1 0.2-0.3 0.2-0.4 0-0.1-0.1-0.1-0.3 0-0.4z"/>
						<path id="&lt;Path&gt;" class="s4" d="m305.8 316.5c0.1-0.2 0.3-0.2 0.4 0 0.1 0.1 0.1 0.3 0 0.4-0.1 0.1-0.3 0.1-0.4 0-0.2-0.1-0.2-0.3 0-0.4z"/>
						<path id="&lt;Path&gt;" class="s4" d="m297.5 321.6c0.3-0.3 0.6-0.3 0.9 0 0.2 0.2 0.2 0.6 0 0.8-0.3 0.2-0.6 0.2-0.9 0-0.2-0.2-0.2-0.6 0-0.8z"/>
						<path id="&lt;Path&gt;" class="s4" d="m316 340.9c0.2-0.3 0.6-0.3 0.8 0 0.2 0.2 0.2 0.5 0 0.8-0.2 0.2-0.6 0.2-0.8 0-0.2-0.3-0.2-0.6 0-0.8z"/>
						<path id="&lt;Path&gt;" class="s4" d="m301.9 365.7c0.3-0.2 0.6-0.2 0.9 0 0.2 0.3 0.2 0.6 0 0.8-0.3 0.3-0.6 0.3-0.9 0-0.2-0.2-0.2-0.5 0-0.8z"/>
						<path id="&lt;Path&gt;" class="s4" d="m278.7 347.2c0.2-0.2 0.6-0.2 0.8 0 0.2 0.2 0.2 0.6 0 0.8-0.2 0.3-0.6 0.3-0.8 0-0.3-0.2-0.3-0.6 0-0.8z"/>
						<path id="&lt;Path&gt;" class="s4" d="m361.4 325.8c0.7-0.7 1.8-0.7 2.5 0 0.6 0.7 0.6 1.8 0 2.5-0.7 0.7-1.8 0.7-2.5 0-0.7-0.7-0.7-1.8 0-2.5z"/>
						<path id="&lt;Path&gt;" class="s4" d="m396.7 300.5c0.7-0.6 1.8-0.6 2.5 0 0.7 0.7 0.7 1.8 0 2.5-0.7 0.7-1.8 0.7-2.5 0-0.6-0.7-0.6-1.8 0-2.5z"/>
						<path id="&lt;Path&gt;" class="s4" d="m339.3 350.4c0.7-0.7 1.8-0.7 2.5 0 0.6 0.7 0.6 1.8 0 2.5-0.7 0.6-1.8 0.6-2.5 0-0.7-0.7-0.7-1.8 0-2.5z"/>
						<path id="&lt;Path&gt;" class="s4" d="m344.7 368.5c0.7-0.7 1.8-0.7 2.5 0 0.6 0.7 0.6 1.8 0 2.5-0.7 0.7-1.8 0.7-2.5 0-0.7-0.7-0.7-1.8 0-2.5z"/>
						<path id="&lt;Path&gt;" class="s4" d="m350.4 304.7c0.5-0.5 1.3-0.5 1.7 0 0.5 0.4 0.5 1.2 0 1.7-0.4 0.5-1.2 0.5-1.7 0-0.5-0.5-0.5-1.3 0-1.7z"/>
						<path id="&lt;Path&gt;" class="s4" d="m372.8 353.2c0.5-0.5 1.2-0.5 1.7 0 0.5 0.5 0.5 1.3 0 1.8-0.5 0.4-1.2 0.4-1.7 0-0.5-0.5-0.5-1.3 0-1.8z"/>
						<path id="&lt;Path&gt;" class="s4" d="m316.4 322c0.5-0.5 1.3-0.5 1.8 0 0.5 0.5 0.5 1.3 0 1.8-0.5 0.4-1.3 0.4-1.8 0-0.4-0.5-0.4-1.3 0-1.8z"/>
						<path id="&lt;Path&gt;" class="s4" d="m369.1 370c0.4-0.3 1-0.3 1.3 0 0.4 0.4 0.4 1 0 1.3-0.3 0.4-0.9 0.4-1.3 0-0.3-0.3-0.3-0.9 0-1.3z"/>
						<path id="&lt;Path&gt;" class="s4" d="m376.4 387.8c0.3-0.4 0.9-0.4 1.3 0 0.3 0.3 0.3 0.9 0 1.3-0.4 0.3-1 0.3-1.3 0-0.4-0.4-0.4-1 0-1.3z"/>
						<path id="&lt;Path&gt;" class="s4" d="m341.6 364.6c0.4-0.4 1-0.4 1.3 0 0.4 0.4 0.4 0.9 0 1.3-0.3 0.3-0.9 0.3-1.3 0-0.3-0.4-0.3-0.9 0-1.3z"/>
						<path id="&lt;Path&gt;" class="s4" d="m289 397.9c0.4-0.4 0.9-0.4 1.3 0 0.4 0.3 0.4 0.9 0 1.3-0.4 0.3-0.9 0.3-1.3 0-0.3-0.4-0.3-1 0-1.3z"/>
						<path id="&lt;Path&gt;" class="s4" d="m355.1 329.2c0.2-0.2 0.6-0.2 0.8 0 0.2 0.2 0.2 0.6 0 0.8-0.2 0.2-0.6 0.2-0.8 0-0.3-0.2-0.3-0.6 0-0.8z"/>
						<path id="&lt;Path&gt;" class="s4" d="m375.1 356.4c0.2-0.3 0.6-0.3 0.8 0 0.3 0.2 0.3 0.6 0 0.8-0.2 0.2-0.6 0.2-0.8 0-0.2-0.2-0.2-0.6 0-0.8z"/>
						<path id="&lt;Path&gt;" class="s4" d="m346 363.9c0.3-0.2 0.6-0.2 0.9 0 0.2 0.2 0.2 0.6 0 0.8-0.3 0.2-0.6 0.2-0.9 0-0.2-0.2-0.2-0.6 0-0.8z"/>
						<path id="&lt;Path&gt;" class="s4" d="m410.9 351.2c0.3-0.2 0.6-0.2 0.9 0 0.2 0.2 0.2 0.6 0 0.8-0.3 0.3-0.6 0.3-0.9 0-0.2-0.2-0.2-0.6 0-0.8z"/>
						<path id="&lt;Path&gt;" class="s4" d="m428.6 346.9c0.3-0.2 0.6-0.2 0.8 0 0.3 0.2 0.3 0.6 0 0.8-0.2 0.2-0.5 0.2-0.8 0-0.2-0.2-0.2-0.6 0-0.8z"/>
						<path id="&lt;Path&gt;" class="s4" d="m384.4 346.3c0.2-0.2 0.6-0.2 0.8 0 0.2 0.2 0.2 0.6 0 0.8-0.2 0.3-0.6 0.3-0.8 0-0.3-0.2-0.3-0.6 0-0.8z"/>
						<path id="&lt;Path&gt;" class="s4" d="m260.4 303.7c0.2-0.2 0.6-0.2 0.8 0 0.2 0.2 0.2 0.6 0 0.8-0.2 0.3-0.6 0.3-0.8 0-0.2-0.2-0.2-0.6 0-0.8z"/>
						<path id="&lt;Path&gt;" class="s4" d="m745.5 365.3c0.2-0.3 0.6-0.3 0.8 0 0.3 0.2 0.3 0.6 0 0.8-0.2 0.2-0.6 0.2-0.8 0-0.2-0.2-0.2-0.6 0-0.8z"/>
						<path id="&lt;Path&gt;" class="s4" d="m376.6 343.5c0.2-0.2 0.6-0.2 0.8 0 0.3 0.2 0.3 0.6 0 0.8-0.2 0.2-0.6 0.2-0.8 0-0.2-0.2-0.2-0.6 0-0.8z"/>
						<path id="&lt;Path&gt;" class="s4" d="m324.9 352.1c0.2-0.2 0.6-0.2 0.8 0 0.2 0.2 0.2 0.6 0 0.8-0.2 0.2-0.6 0.2-0.8 0-0.3-0.2-0.3-0.6 0-0.8z"/>
						<path id="&lt;Path&gt;" class="s4" d="m192.7 299.6c0.2-0.2 0.6-0.2 0.8 0 0.2 0.2 0.2 0.6 0 0.8-0.2 0.3-0.6 0.3-0.8 0-0.3-0.2-0.3-0.6 0-0.8z"/>
						<path id="&lt;Path&gt;" class="s4" d="m368.5 348.5c0.1-0.1 0.3-0.1 0.4 0 0.1 0.1 0.1 0.3 0 0.4-0.1 0.2-0.3 0.2-0.4 0-0.1-0.1-0.1-0.3 0-0.4z"/>
						<path id="&lt;Path&gt;" class="s4" d="m322.6 358c0.1-0.1 0.3-0.1 0.4 0 0.1 0.1 0.1 0.3 0 0.4-0.1 0.1-0.3 0.1-0.4 0-0.1-0.1-0.1-0.3 0-0.4z"/>
						<path id="&lt;Path&gt;" class="s4" d="m330.6 352.6c0.1-0.1 0.3-0.1 0.4 0 0.1 0.2 0.1 0.3 0 0.5-0.1 0.1-0.3 0.1-0.4 0-0.1-0.2-0.1-0.3 0-0.5z"/>
						<path id="&lt;Path&gt;" class="s4" d="m278 301.2c0.1-0.1 0.3-0.1 0.4 0 0.1 0.2 0.1 0.3 0 0.5-0.1 0.1-0.3 0.1-0.4 0-0.1-0.2-0.1-0.3 0-0.5z"/>
						<path id="&lt;Path&gt;" class="s4" d="m391.2 377c0.1-0.1 0.3-0.1 0.4 0 0.2 0.2 0.2 0.3 0 0.4-0.1 0.2-0.3 0.2-0.4 0-0.1-0.1-0.1-0.2 0-0.4z"/>
						<path id="&lt;Path&gt;" class="s4" d="m391.5 397.5c0.1-0.2 0.3-0.2 0.4 0 0.1 0.1 0.1 0.2 0 0.4-0.1 0.1-0.3 0.1-0.4 0-0.1-0.2-0.1-0.3 0-0.4z"/>
						<path id="&lt;Path&gt;" class="s4" d="m212 371.3c0.1-0.1 0.3-0.1 0.4 0 0.1 0.1 0.1 0.3 0 0.4-0.1 0.1-0.3 0.1-0.4 0-0.1-0.1-0.1-0.3 0-0.4z"/>
						<path id="&lt;Path&gt;" class="s4" d="m380.4 397.7c0.1-0.1 0.3-0.1 0.4 0 0.1 0.2 0.1 0.3 0 0.5-0.1 0.1-0.3 0.1-0.4 0-0.1-0.2-0.1-0.3 0-0.5z"/>
						<path id="&lt;Path&gt;" class="s4" d="m380.1 393.9c0.1-0.1 0.3-0.1 0.4 0 0.2 0.1 0.2 0.3 0 0.4-0.1 0.1-0.3 0.1-0.4 0-0.1-0.1-0.1-0.3 0-0.4z"/>
						<path id="&lt;Path&gt;" class="s4" d="m344 367.6c0.1-0.2 0.3-0.2 0.4 0 0.1 0.1 0.1 0.3 0 0.4-0.1 0.1-0.3 0.1-0.4 0-0.1-0.1-0.1-0.3 0-0.4z"/>
						<path id="&lt;Path&gt;" class="s4" d="m375 348.3c0.1-0.1 0.3-0.1 0.4 0 0.1 0.1 0.1 0.3 0 0.4-0.1 0.1-0.3 0.1-0.4 0-0.1-0.1-0.1-0.3 0-0.4z"/>
						<path id="&lt;Path&gt;" class="s4" d="m342.1 363.2c0.1-0.1 0.3-0.1 0.4 0 0.1 0.1 0.1 0.3 0 0.4-0.1 0.2-0.3 0.2-0.4 0-0.1-0.1-0.1-0.3 0-0.4z"/>
						<path id="&lt;Path&gt;" class="s4" d="m366.7 353.4c0.3-0.3 0.6-0.3 0.9 0 0.2 0.2 0.2 0.6 0 0.8-0.3 0.2-0.6 0.2-0.9 0-0.2-0.2-0.2-0.6 0-0.8z"/>
						<path id="&lt;Path&gt;" class="s4" d="m331.2 362.7c0.3-0.2 0.6-0.2 0.9 0 0.2 0.3 0.2 0.6 0 0.9-0.3 0.2-0.6 0.2-0.9 0-0.2-0.3-0.2-0.6 0-0.9z"/>
						<path id="&lt;Path&gt;" class="s4" d="m339 363.3c0.2-0.2 0.5-0.2 0.8 0 0.2 0.2 0.2 0.6 0 0.8-0.3 0.3-0.6 0.3-0.8 0-0.3-0.2-0.3-0.6 0-0.8z"/>
						<path id="&lt;Path&gt;" class="s4" d="m206.3 315.1c0.2-0.3 0.6-0.3 0.8 0 0.2 0.2 0.2 0.6 0 0.8-0.2 0.2-0.6 0.2-0.8 0-0.3-0.2-0.3-0.6 0-0.8z"/>
						<path id="&lt;Path&gt;" class="s4" d="m216 295.7c0.4-0.5 1.2-0.5 1.7 0 0.5 0.5 0.5 1.3 0 1.8-0.5 0.5-1.3 0.5-1.7 0-0.5-0.5-0.5-1.3 0-1.8z"/>
						<path id="&lt;Path&gt;" class="s4" d="m211.7 291.1c0.1-0.2 0.3-0.2 0.4 0 0.1 0.1 0.1 0.3 0 0.4-0.1 0.1-0.3 0.1-0.4 0-0.1-0.1-0.1-0.3 0-0.4z"/>
						<path id="&lt;Path&gt;" class="s4" d="m218.1 290.8c0.2-0.1 0.3-0.1 0.5 0 0.1 0.1 0.1 0.3 0 0.4-0.2 0.1-0.3 0.1-0.5 0-0.1-0.1-0.1-0.3 0-0.4z"/>
						<path id="&lt;Path&gt;" class="s4" d="m209.9 295.9c0.2-0.2 0.6-0.2 0.8 0 0.3 0.2 0.3 0.6 0 0.8-0.2 0.2-0.6 0.2-0.8 0-0.2-0.2-0.2-0.6 0-0.8z"/>
						<path id="&lt;Path&gt;" class="s4" d="m385.2 372.7c0.2-0.3 0.6-0.3 0.8 0 0.3 0.2 0.3 0.6 0 0.8-0.2 0.2-0.6 0.2-0.8 0-0.2-0.2-0.2-0.6 0-0.8z"/>
						<path id="&lt;Path&gt;" class="s4" d="m454.2 319.7c0.2-0.2 0.6-0.2 0.8 0 0.3 0.2 0.3 0.6 0 0.8-0.2 0.2-0.6 0.2-0.8 0-0.2-0.2-0.2-0.6 0-0.8z"/>
						<path id="&lt;Path&gt;" class="s4" d="m439.7 373.2c0.2-0.2 0.6-0.2 0.8 0 0.2 0.3 0.2 0.6 0 0.9-0.2 0.2-0.6 0.2-0.8 0-0.3-0.3-0.3-0.6 0-0.9z"/>
						<path id="&lt;Path&gt;" class="s4" d="m360.5 393.4c0.2-0.2 0.6-0.2 0.8 0 0.2 0.2 0.2 0.6 0 0.8-0.2 0.3-0.6 0.3-0.8 0-0.3-0.2-0.3-0.6 0-0.8z"/>
						<path id="&lt;Path&gt;" class="s4" d="m462.3 314.5c0.2-0.2 0.6-0.2 0.8 0 0.2 0.2 0.2 0.6 0 0.8-0.2 0.2-0.6 0.2-0.8 0-0.3-0.2-0.3-0.6 0-0.8z"/>
						<path id="&lt;Path&gt;" class="s4" d="m246.8 364.7c0.5-0.5 1.3-0.5 1.7 0 0.5 0.4 0.5 1.2 0 1.7-0.4 0.5-1.2 0.5-1.7 0-0.5-0.5-0.5-1.3 0-1.7z"/>
						<path id="&lt;Path&gt;" class="s4" d="m248.5 327.1c0.4-0.5 1.2-0.5 1.7 0 0.5 0.5 0.5 1.2 0 1.7-0.5 0.5-1.3 0.5-1.7 0-0.5-0.5-0.5-1.2 0-1.7z"/>
						<path id="&lt;Path&gt;" class="s4" d="m37 367.2c0.5-0.5 1.3-0.5 1.8 0 0.5 0.5 0.5 1.2 0 1.7-0.5 0.5-1.3 0.5-1.8 0-0.4-0.5-0.4-1.2 0-1.7z"/>
						<path id="&lt;Path&gt;" class="s4" d="m243.1 381.5c0.4-0.4 1-0.4 1.3 0 0.4 0.3 0.4 0.9 0 1.3-0.3 0.3-0.9 0.3-1.3 0-0.3-0.4-0.3-1 0-1.3z"/>
						<path id="&lt;Path&gt;" class="s4" d="m249.1 367.8c0.3-0.2 0.6-0.2 0.9 0 0.2 0.3 0.2 0.6 0 0.8-0.3 0.3-0.6 0.3-0.9 0-0.2-0.2-0.2-0.6 0-0.8z"/>
						<path id="&lt;Path&gt;" class="s4" d="m258.4 357.8c0.2-0.3 0.6-0.3 0.8 0 0.2 0.2 0.2 0.6 0 0.8-0.2 0.2-0.6 0.2-0.8 0-0.3-0.2-0.3-0.6 0-0.8z"/>
						<path id="&lt;Path&gt;" class="s4" d="m269.2 323.1c0.2-0.2 0.6-0.2 0.8 0 0.2 0.2 0.2 0.6 0 0.8-0.2 0.2-0.6 0.2-0.8 0-0.3-0.2-0.3-0.6 0-0.8z"/>
						<path id="&lt;Path&gt;" class="s4" d="m250.6 355c0.3-0.3 0.6-0.3 0.9 0 0.2 0.2 0.2 0.6 0 0.8-0.3 0.2-0.6 0.2-0.9 0-0.2-0.2-0.2-0.6 0-0.8z"/>
						<path id="&lt;Path&gt;" class="s4" d="m242.5 360c0.2-0.1 0.3-0.1 0.5 0 0.1 0.1 0.1 0.3 0 0.4-0.2 0.1-0.3 0.1-0.5 0-0.1-0.1-0.1-0.3 0-0.4z"/>
						<path id="&lt;Path&gt;" class="s4" d="m231.4 383.9c0.1-0.1 0.3-0.1 0.4 0 0.1 0.1 0.1 0.3 0 0.4-0.1 0.2-0.3 0.2-0.4 0-0.1-0.1-0.1-0.3 0-0.4z"/>
						<path id="&lt;Path&gt;" class="s4" d="m265.2 388.5c0.2-0.1 0.3-0.1 0.5 0 0.1 0.1 0.1 0.3 0 0.4-0.2 0.1-0.3 0.1-0.5 0-0.1-0.1-0.1-0.3 0-0.4z"/>
						<path id="&lt;Path&gt;" class="s4" d="m249 359.7c0.1-0.1 0.3-0.1 0.4 0 0.1 0.1 0.1 0.3 0 0.4-0.1 0.2-0.3 0.2-0.4 0-0.1-0.1-0.1-0.3 0-0.4z"/>
						<path id="&lt;Path&gt;" class="s4" d="m240.8 364.8c0.2-0.2 0.5-0.2 0.8 0 0.2 0.3 0.2 0.6 0 0.9-0.3 0.2-0.6 0.2-0.8 0-0.3-0.3-0.3-0.6 0-0.9z"/>
						<path id="&lt;Path&gt;" class="s4" d="m201.1 364.5c0.2-0.3 0.6-0.3 0.8 0 0.2 0.2 0.2 0.6 0 0.8-0.2 0.2-0.6 0.2-0.8 0-0.3-0.2-0.3-0.6 0-0.8z"/>
						<path id="&lt;Path&gt;" class="s4" d="m259.2 384.1c0.2-0.2 0.6-0.2 0.8 0 0.3 0.3 0.3 0.6 0 0.8-0.2 0.3-0.6 0.3-0.8 0-0.2-0.2-0.2-0.5 0-0.8z"/>
						<path id="&lt;Path&gt;" class="s4" d="m371.1 397.5c0.3-0.2 0.6-0.2 0.9 0 0.2 0.3 0.2 0.6 0 0.9-0.3 0.2-0.6 0.2-0.9 0-0.2-0.3-0.2-0.6 0-0.9z"/>
						<path id="&lt;Path&gt;" class="s4" d="m379.3 423.8c0.3-0.2 0.6-0.2 0.9 0 0.2 0.2 0.2 0.6 0 0.8-0.3 0.2-0.6 0.2-0.9 0-0.2-0.2-0.2-0.6 0-0.8z"/>
						<path id="&lt;Path&gt;" class="s4" d="m347.9 379c0.2-0.2 0.6-0.2 0.8 0 0.2 0.2 0.2 0.6 0 0.8-0.2 0.3-0.6 0.3-0.8 0-0.2-0.2-0.2-0.6 0-0.8z"/>
						<path id="&lt;Path&gt;" class="s4" d="m476.8 335c0 1-0.7 1.7-1.7 1.7-1 0-1.7-0.7-1.7-1.7 0-1 0.7-1.8 1.7-1.8 1 0 1.7 0.8 1.7 1.8z"/>
						<path id="&lt;Path&gt;" class="s4" d="m475.1 302c0 0.9-0.8 1.7-1.7 1.7-1 0-1.8-0.8-1.8-1.7 0-1 0.8-1.8 1.8-1.8 0.9 0 1.7 0.8 1.7 1.8z"/>
						<path id="&lt;Path&gt;" class="s4" d="m499.6 342.2c0 0.6-0.6 1.2-1.3 1.2-0.6 0-1.2-0.6-1.2-1.2 0-0.7 0.6-1.3 1.2-1.3 0.7 0 1.3 0.6 1.3 1.3z"/>
						<path id="&lt;Path&gt;" class="s4" d="m449.4 323.7c0 0.7-0.5 1.2-1.2 1.2-0.7 0-1.2-0.5-1.2-1.2 0-0.7 0.5-1.3 1.2-1.3 0.7 0 1.2 0.6 1.2 1.3z"/>
						<path id="&lt;Path&gt;" class="s4" d="m795 344.6c0 0.7-0.6 1.2-1.3 1.2-0.6 0-1.2-0.5-1.2-1.2 0-0.7 0.6-1.3 1.2-1.3 0.7 0 1.3 0.6 1.3 1.3z"/>
						<path id="&lt;Path&gt;" class="s4" d="m511.3 305.9c0 0.7-0.5 1.2-1.2 1.2-0.7 0-1.2-0.5-1.2-1.2 0-0.7 0.5-1.2 1.2-1.2 0.7 0 1.2 0.5 1.2 1.2z"/>
						<path id="&lt;Path&gt;" class="s4" d="m440.1 309.2c0 0.5-0.4 0.9-0.9 0.9-0.5 0-0.9-0.4-0.9-0.9 0-0.5 0.4-0.9 0.9-0.9 0.5 0 0.9 0.4 0.9 0.9z"/>
						<path id="&lt;Path&gt;" class="s4" d="m478.9 328.1c0 0.3-0.2 0.6-0.5 0.6-0.4 0-0.6-0.3-0.6-0.6 0-0.3 0.2-0.6 0.6-0.6 0.3 0 0.5 0.3 0.5 0.6z"/>
						<path id="&lt;Path&gt;" class="s4" d="m445.5 323.1c0 0.3-0.2 0.6-0.5 0.6-0.4 0-0.6-0.3-0.6-0.6 0-0.3 0.2-0.6 0.6-0.6 0.3 0 0.5 0.3 0.5 0.6z"/>
						<path id="&lt;Path&gt;" class="s4" d="m446.1 336.7c0 0.4-0.2 0.6-0.6 0.6-0.3 0-0.5-0.2-0.5-0.6 0-0.3 0.2-0.5 0.5-0.5 0.4 0 0.6 0.2 0.6 0.5z"/>
						<path id="&lt;Path&gt;" class="s4" d="m453.6 333.2c0 0.4-0.3 0.6-0.6 0.6-0.3 0-0.6-0.2-0.6-0.6 0-0.3 0.3-0.5 0.6-0.5 0.3 0 0.6 0.2 0.6 0.5z"/>
						<path id="&lt;Path&gt;" class="s4" d="m438 335.8c0 0.3-0.2 0.6-0.5 0.6-0.4 0-0.6-0.3-0.6-0.6 0-0.3 0.2-0.6 0.6-0.6 0.3 0 0.5 0.3 0.5 0.6z"/>
						<path id="&lt;Path&gt;" class="s4" d="m484.1 290.6c0 0.3-0.3 0.6-0.6 0.6-0.3 0-0.6-0.3-0.6-0.6 0-0.3 0.3-0.6 0.6-0.6 0.3 0 0.6 0.3 0.6 0.6z"/>
						<path id="&lt;Path&gt;" class="s4" d="m455.7 324c0 0.1-0.1 0.3-0.3 0.3-0.1 0-0.2-0.2-0.2-0.3 0-0.2 0.1-0.3 0.2-0.3 0.2 0 0.3 0.1 0.3 0.3z"/>
						<path id="&lt;Path&gt;" class="s4" d="m451.4 328.7c0 0.2-0.2 0.3-0.3 0.3-0.2 0-0.3-0.1-0.3-0.3 0-0.2 0.1-0.3 0.3-0.3 0.1 0 0.3 0.1 0.3 0.3z"/>
						<path id="&lt;Path&gt;" class="s4" d="m453.6 319.3c0 0.3-0.3 0.6-0.6 0.6-0.3 0-0.6-0.3-0.6-0.6 0-0.3 0.3-0.6 0.6-0.6 0.3 0 0.6 0.3 0.6 0.6z"/>
						<path id="&lt;Path&gt;" class="s4" d="m722.6 340.2c0 0.3-0.2 0.5-0.6 0.5-0.3 0-0.5-0.2-0.5-0.5 0-0.4 0.2-0.6 0.5-0.6 0.4 0 0.6 0.2 0.6 0.6z"/>
						<path id="&lt;Path&gt;" class="s4" d="m867.2 331.8c0.7-0.7 1.8-0.7 2.5 0 0.7 0.7 0.7 1.8 0 2.5-0.7 0.7-1.8 0.7-2.5 0-0.7-0.7-0.7-1.8 0-2.5z"/>
						<path id="&lt;Path&gt;" class="s4" d="m794.7 336.6c0.6-0.7 1.8-0.7 2.4 0 0.7 0.7 0.7 1.8 0 2.5-0.6 0.6-1.8 0.6-2.4 0-0.7-0.7-0.7-1.8 0-2.5z"/>
						<path id="&lt;Path&gt;" class="s4" d="m845.1 356.4c0.7-0.7 1.8-0.7 2.5 0 0.7 0.7 0.7 1.8 0 2.4-0.7 0.7-1.8 0.7-2.5 0-0.7-0.6-0.7-1.7 0-2.4z"/>
						<path id="&lt;Path&gt;" class="s4" d="m856.2 310.7c0.5-0.5 1.3-0.5 1.7 0 0.5 0.4 0.5 1.2 0 1.7-0.4 0.5-1.2 0.5-1.7 0-0.5-0.5-0.5-1.3 0-1.7z"/>
						<path id="&lt;Path&gt;" class="s4" d="m878.6 359.2c0.5-0.5 1.3-0.5 1.7 0 0.5 0.5 0.5 1.3 0 1.7-0.4 0.5-1.2 0.5-1.7 0-0.5-0.4-0.5-1.2 0-1.7z"/>
						<path id="&lt;Path&gt;" class="s4" d="m822.3 328c0.4-0.5 1.2-0.5 1.7 0 0.5 0.5 0.5 1.3 0 1.7-0.5 0.5-1.3 0.5-1.7 0-0.5-0.4-0.5-1.2 0-1.7z"/>
						<path id="&lt;Path&gt;" class="s4" d="m860.9 335.2c0.2-0.3 0.6-0.3 0.8 0 0.2 0.2 0.2 0.6 0 0.8-0.2 0.2-0.6 0.2-0.8 0-0.3-0.2-0.3-0.6 0-0.8z"/>
						<path id="&lt;Path&gt;" class="s4" d="m880.9 362.4c0.3-0.3 0.6-0.3 0.9 0 0.2 0.2 0.2 0.5 0 0.8-0.3 0.2-0.6 0.2-0.9 0-0.2-0.3-0.2-0.6 0-0.8z"/>
						<path id="&lt;Path&gt;" class="s4" d="m890.2 352.3c0.2-0.2 0.6-0.2 0.8 0 0.2 0.2 0.2 0.6 0 0.8-0.2 0.2-0.6 0.2-0.8 0-0.3-0.2-0.3-0.6 0-0.8z"/>
						<path id="&lt;Path&gt;" class="s4" d="m882.4 349.5c0.3-0.2 0.6-0.2 0.8 0 0.3 0.2 0.3 0.6 0 0.8-0.2 0.2-0.5 0.2-0.8 0-0.2-0.2-0.2-0.6 0-0.8z"/>
						<path id="&lt;Path&gt;" class="s4" d="m830.7 358.1c0.2-0.3 0.6-0.3 0.8 0 0.2 0.2 0.2 0.6 0 0.8-0.2 0.2-0.6 0.2-0.8 0-0.3-0.2-0.3-0.6 0-0.8z"/>
						<path id="&lt;Path&gt;" class="s4" d="m874.3 354.5c0.1-0.1 0.3-0.1 0.4 0 0.2 0.1 0.2 0.3 0 0.4-0.1 0.2-0.3 0.2-0.4 0-0.1-0.1-0.1-0.3 0-0.4z"/>
						<path id="&lt;Path&gt;" class="s4" d="m612.5 292c0.1-0.1 0.3-0.1 0.4 0 0.1 0.1 0.1 0.3 0 0.4-0.1 0.2-0.3 0.2-0.4 0-0.2-0.1-0.2-0.3 0-0.4z"/>
						<path id="&lt;Path&gt;" class="s4" d="m799.3 305.8c0.1-0.1 0.3-0.1 0.4 0 0.2 0.2 0.2 0.3 0 0.5-0.1 0.1-0.3 0.1-0.4 0-0.1-0.2-0.1-0.3 0-0.5z"/>
						<path id="&lt;Path&gt;" class="s4" d="m880.8 354.3c0.1-0.2 0.3-0.2 0.4 0 0.1 0.1 0.1 0.3 0 0.4-0.1 0.1-0.3 0.1-0.4 0-0.1-0.1-0.1-0.3 0-0.4z"/>
						<path id="&lt;Path&gt;" class="s4" d="m872.5 359.4c0.3-0.3 0.6-0.3 0.9 0 0.2 0.2 0.2 0.6 0 0.8-0.3 0.2-0.6 0.2-0.9 0-0.2-0.2-0.2-0.6 0-0.8z"/>
						<path id="&lt;Path&gt;" class="s4" d="m775.5 306.2c0.2-0.2 0.6-0.2 0.8 0 0.3 0.2 0.3 0.6 0 0.8-0.2 0.3-0.6 0.3-0.8 0-0.2-0.2-0.2-0.6 0-0.8z"/>
						<path id="&lt;Path&gt;" class="s4" d="m592.4 312.5c0.2-0.2 0.6-0.2 0.8 0 0.2 0.3 0.2 0.6 0 0.9-0.2 0.2-0.6 0.2-0.8 0-0.3-0.3-0.3-0.6 0-0.9z"/>
						<path id="&lt;Path&gt;" class="s4" d="m569.1 294c0.2-0.2 0.6-0.2 0.8 0 0.3 0.2 0.3 0.6 0 0.8-0.2 0.3-0.6 0.3-0.8 0-0.2-0.2-0.2-0.6 0-0.8z"/>
						<path id="&lt;Path&gt;" class="s4" d="m936.4 363.6c0.7-0.7 1.8-0.7 2.5 0 0.7 0.7 0.7 1.8 0 2.5-0.7 0.7-1.8 0.7-2.5 0-0.7-0.7-0.7-1.8 0-2.5z"/>
						<path id="&lt;Path&gt;" class="s4" d="m1021.5 328.4c0.7-0.7 1.8-0.7 2.5 0 0.7 0.7 0.7 1.8 0 2.5-0.7 0.7-1.8 0.7-2.5 0-0.6-0.7-0.6-1.8 0-2.5z"/>
						<path id="&lt;Path&gt;" class="s4" d="m971.8 338.3c0.6-0.6 1.8-0.6 2.4 0 0.7 0.7 0.7 1.8 0 2.5-0.6 0.7-1.8 0.7-2.4 0-0.7-0.7-0.7-1.8 0-2.5z"/>
						<path id="&lt;Path&gt;" class="s4" d="m629.7 297.2c0.7-0.7 1.8-0.7 2.5 0 0.7 0.7 0.7 1.8 0 2.5-0.7 0.6-1.8 0.6-2.5 0-0.6-0.7-0.6-1.8 0-2.5z"/>
						<path id="&lt;Path&gt;" class="s4" d="m635.1 315.3c0.7-0.6 1.8-0.6 2.5 0 0.7 0.7 0.7 1.8 0 2.5-0.7 0.7-1.8 0.7-2.5 0-0.6-0.7-0.6-1.8 0-2.5z"/>
						<path id="&lt;Path&gt;" class="s4" d="m925.4 342.5c0.5-0.5 1.3-0.5 1.8 0 0.4 0.4 0.4 1.2 0 1.7-0.5 0.5-1.3 0.5-1.8 0-0.5-0.5-0.5-1.3 0-1.7z"/>
						<path id="&lt;Path&gt;" class="s4" d="m994.1 310.5c0.5-0.5 1.3-0.5 1.8 0 0.5 0.4 0.5 1.2 0 1.7-0.5 0.5-1.3 0.5-1.8 0-0.4-0.5-0.4-1.3 0-1.7z"/>
						<path id="&lt;Path&gt;" class="s4" d="m984.3 320.1c0.4-0.5 1.2-0.5 1.7 0 0.5 0.4 0.5 1.2 0 1.7-0.5 0.5-1.3 0.5-1.7 0-0.5-0.5-0.5-1.3 0-1.7z"/>
						<path id="&lt;Path&gt;" class="s4" d="m663.2 300c0.5-0.5 1.3-0.5 1.8 0 0.5 0.5 0.5 1.3 0 1.8-0.5 0.4-1.3 0.4-1.8 0-0.5-0.5-0.5-1.3 0-1.8z"/>
						<path id="&lt;Path&gt;" class="s4" d="m891.5 359.8c0.4-0.5 1.2-0.5 1.7 0 0.5 0.5 0.5 1.3 0 1.8-0.5 0.4-1.3 0.4-1.7 0-0.5-0.5-0.5-1.3 0-1.8z"/>
						<path id="&lt;Path&gt;" class="s4" d="m659.6 316.8c0.3-0.3 0.9-0.3 1.3 0 0.3 0.4 0.3 1 0 1.3-0.4 0.4-1 0.4-1.3 0-0.4-0.3-0.4-0.9 0-1.3z"/>
						<path id="&lt;Path&gt;" class="s4" d="m666.8 334.6c0.4-0.4 1-0.4 1.3 0 0.4 0.3 0.4 0.9 0 1.3-0.3 0.3-0.9 0.3-1.3 0-0.3-0.4-0.3-1 0-1.3z"/>
						<path id="&lt;Path&gt;" class="s4" d="m632.1 311.4c0.3-0.3 0.9-0.3 1.3 0 0.3 0.4 0.3 0.9 0 1.3-0.4 0.3-1 0.3-1.3 0-0.4-0.4-0.4-0.9 0-1.3z"/>
						<path id="&lt;Path&gt;" class="s4" d="m579.5 344.7c0.3-0.4 0.9-0.4 1.2 0 0.4 0.3 0.4 0.9 0 1.3-0.3 0.3-0.9 0.3-1.2 0-0.4-0.4-0.4-1 0-1.3z"/>
						<path id="&lt;Path&gt;" class="s4" d="m665.6 303.2c0.2-0.3 0.6-0.3 0.8 0 0.2 0.2 0.2 0.6 0 0.8-0.2 0.2-0.6 0.2-0.8 0-0.3-0.2-0.3-0.6 0-0.8z"/>
						<path id="&lt;Path&gt;" class="s4" d="m636.5 310.7c0.2-0.2 0.6-0.2 0.8 0 0.2 0.2 0.2 0.6 0 0.8-0.2 0.3-0.6 0.3-0.8 0-0.2-0.2-0.2-0.6 0-0.8z"/>
						<path id="&lt;Path&gt;" class="s4" d="m701.4 298c0.2-0.2 0.6-0.2 0.8 0 0.2 0.2 0.2 0.6 0 0.8-0.2 0.3-0.6 0.3-0.8 0-0.3-0.2-0.3-0.6 0-0.8z"/>
						<path id="&lt;Path&gt;" class="s4" d="m719.1 293.7c0.2-0.2 0.6-0.2 0.8 0 0.2 0.2 0.2 0.6 0 0.8-0.2 0.2-0.6 0.2-0.8 0-0.3-0.2-0.3-0.6 0-0.8z"/>
						<path id="&lt;Path&gt;" class="s4" d="m674.8 293.1c0.2-0.2 0.6-0.2 0.8 0 0.2 0.2 0.2 0.6 0 0.8-0.2 0.3-0.6 0.3-0.8 0-0.2-0.2-0.2-0.6 0-0.8z"/>
						<path id="&lt;Path&gt;" class="s4" d="m835.4 341.5c0.2-0.2 0.6-0.2 0.8 0 0.3 0.2 0.3 0.6 0 0.8-0.2 0.3-0.6 0.3-0.8 0-0.2-0.2-0.2-0.6 0-0.8z"/>
						<path id="&lt;Path&gt;" class="s4" d="m1036 312.1c0.2-0.2 0.5-0.2 0.8 0 0.2 0.2 0.2 0.6 0 0.8-0.3 0.2-0.6 0.2-0.8 0-0.3-0.2-0.3-0.6 0-0.8z"/>
						<path id="&lt;Path&gt;" class="s4" d="m667.1 290.3c0.2-0.2 0.5-0.2 0.8 0 0.2 0.2 0.2 0.6 0 0.8-0.3 0.2-0.6 0.2-0.8 0-0.3-0.2-0.3-0.6 0-0.8z"/>
						<path id="&lt;Path&gt;" class="s4" d="m615.3 298.9c0.2-0.2 0.6-0.2 0.8 0 0.3 0.2 0.3 0.6 0 0.8-0.2 0.2-0.6 0.2-0.8 0-0.2-0.2-0.2-0.6 0-0.8z"/>
						<path id="&lt;Path&gt;" class="s4" d="m767.7 337.4c0.2-0.2 0.6-0.2 0.8 0 0.2 0.2 0.2 0.6 0 0.8-0.2 0.3-0.6 0.3-0.8 0-0.2-0.2-0.2-0.6 0-0.8z"/>
						<path id="&lt;Path&gt;" class="s4" d="m659 295.3c0.1-0.1 0.3-0.1 0.4 0 0.1 0.2 0.1 0.3 0 0.5-0.1 0.1-0.3 0.1-0.4 0-0.1-0.2-0.1-0.3 0-0.5z"/>
						<path id="&lt;Path&gt;" class="s4" d="m613 304.8c0.2-0.1 0.3-0.1 0.5 0 0.1 0.1 0.1 0.3 0 0.4-0.2 0.1-0.3 0.1-0.5 0-0.1-0.1-0.1-0.3 0-0.4z"/>
						<path id="&lt;Path&gt;" class="s4" d="m621 299.4c0.1-0.1 0.3-0.1 0.4 0 0.1 0.2 0.1 0.3 0 0.5-0.1 0.1-0.3 0.1-0.4 0-0.1-0.2-0.1-0.3 0-0.5z"/>
						<path id="&lt;Path&gt;" class="s4" d="m853 339c0.1-0.1 0.3-0.1 0.4 0 0.2 0.2 0.2 0.3 0 0.5-0.1 0.1-0.3 0.1-0.4 0-0.1-0.2-0.1-0.3 0-0.5z"/>
						<path id="&lt;Path&gt;" class="s4" d="m681.7 323.8c0.1-0.1 0.3-0.1 0.4 0 0.1 0.2 0.1 0.3 0 0.5-0.1 0.1-0.3 0.1-0.4 0-0.1-0.2-0.1-0.3 0-0.5z"/>
						<path id="&lt;Path&gt;" class="s4" d="m682 344.3c0.1-0.2 0.3-0.2 0.4 0 0.1 0.1 0.1 0.3 0 0.4-0.1 0.1-0.3 0.1-0.4 0-0.2-0.1-0.2-0.3 0-0.4z"/>
						<path id="&lt;Path&gt;" class="s4" d="m502.4 318.1c0.1-0.1 0.3-0.1 0.4 0 0.2 0.1 0.2 0.3 0 0.4-0.1 0.1-0.3 0.1-0.4 0-0.1-0.1-0.1-0.3 0-0.4z"/>
						<path id="&lt;Path&gt;" class="s4" d="m670.9 344.5c0.1-0.1 0.3-0.1 0.4 0 0.1 0.2 0.1 0.3 0 0.5-0.1 0.1-0.3 0.1-0.4 0-0.1-0.2-0.1-0.3 0-0.5z"/>
						<path id="&lt;Path&gt;" class="s4" d="m670.6 340.7c0.1-0.1 0.3-0.1 0.4 0 0.1 0.1 0.1 0.3 0 0.4-0.1 0.1-0.3 0.1-0.4 0-0.1-0.1-0.1-0.3 0-0.4z"/>
						<path id="&lt;Path&gt;" class="s4" d="m634.4 314.4c0.1-0.2 0.3-0.2 0.4 0 0.1 0.1 0.1 0.3 0 0.4-0.1 0.1-0.3 0.1-0.4 0-0.1-0.1-0.1-0.3 0-0.4z"/>
						<path id="&lt;Path&gt;" class="s4" d="m665.4 295.1c0.1-0.1 0.3-0.1 0.4 0 0.1 0.1 0.1 0.3 0 0.4-0.1 0.1-0.3 0.1-0.4 0-0.1-0.1-0.1-0.3 0-0.4z"/>
						<path id="&lt;Path&gt;" class="s4" d="m632.5 310c0.1-0.1 0.3-0.1 0.4 0 0.1 0.1 0.1 0.3 0 0.4-0.1 0.2-0.3 0.2-0.4 0-0.1-0.1-0.1-0.3 0-0.4z"/>
						<path id="&lt;Path&gt;" class="s4" d="m657.2 300.2c0.2-0.2 0.6-0.2 0.8 0 0.2 0.2 0.2 0.6 0 0.8-0.2 0.2-0.6 0.2-0.8 0-0.2-0.2-0.2-0.6 0-0.8z"/>
						<path id="&lt;Path&gt;" class="s4" d="m621.7 309.5c0.2-0.2 0.6-0.2 0.8 0 0.2 0.3 0.2 0.6 0 0.9-0.2 0.2-0.6 0.2-0.8 0-0.2-0.3-0.2-0.6 0-0.9z"/>
						<path id="&lt;Path&gt;" class="s4" d="m629.4 310.1c0.2-0.2 0.6-0.2 0.8 0 0.2 0.2 0.2 0.6 0 0.8-0.2 0.3-0.6 0.3-0.8 0-0.2-0.2-0.2-0.6 0-0.8z"/>
						<path id="&lt;Path&gt;" class="s4" d="m781.3 352.9c0.2-0.3 0.6-0.3 0.8 0 0.2 0.2 0.2 0.6 0 0.8-0.2 0.2-0.6 0.2-0.8 0-0.2-0.2-0.2-0.6 0-0.8z"/>
						<path id="&lt;Path&gt;" class="s4" d="m791 333.5c0.5-0.5 1.2-0.5 1.7 0 0.5 0.5 0.5 1.3 0 1.8-0.5 0.5-1.2 0.5-1.7 0-0.5-0.5-0.5-1.3 0-1.8z"/>
						<path id="&lt;Path&gt;" class="s4" d="m802.6 326.6c0.2-0.2 0.5-0.2 0.8 0 0.2 0.2 0.2 0.6 0 0.8-0.3 0.3-0.6 0.3-0.8 0-0.3-0.2-0.3-0.6 0-0.8z"/>
						<path id="&lt;Path&gt;" class="s4" d="m794.8 323.8c0.2-0.2 0.6-0.2 0.8 0 0.3 0.2 0.3 0.6 0 0.8-0.2 0.3-0.6 0.3-0.8 0-0.2-0.2-0.2-0.6 0-0.8z"/>
						<path id="&lt;Path&gt;" class="s4" d="m786.7 328.9c0.1-0.2 0.3-0.2 0.4 0 0.1 0.1 0.1 0.2 0 0.4-0.1 0.1-0.3 0.1-0.4 0-0.1-0.2-0.1-0.3 0-0.4z"/>
						<path id="&lt;Path&gt;" class="s4" d="m793.2 328.6c0.1-0.1 0.3-0.1 0.4 0 0.1 0.1 0.1 0.3 0 0.4-0.1 0.1-0.3 0.1-0.4 0-0.1-0.1-0.1-0.3 0-0.4z"/>
						<path id="&lt;Path&gt;" class="s4" d="m784.9 333.7c0.3-0.2 0.6-0.2 0.9 0 0.2 0.2 0.2 0.6 0 0.8-0.3 0.2-0.6 0.2-0.9 0-0.2-0.2-0.2-0.6 0-0.8z"/>
						<path id="&lt;Path&gt;" class="s4" d="m675.6 319.5c0.3-0.3 0.6-0.3 0.9 0 0.2 0.2 0.2 0.6 0 0.8-0.3 0.2-0.6 0.2-0.9 0-0.2-0.2-0.2-0.6 0-0.8z"/>
						<path id="&lt;Path&gt;" class="s4" d="m1029.2 357.5c0.3-0.2 0.6-0.2 0.9 0 0.2 0.2 0.2 0.6 0 0.8-0.3 0.2-0.6 0.2-0.9 0-0.2-0.2-0.2-0.6 0-0.8z"/>
						<path id="&lt;Path&gt;" class="s4" d="m730.1 320c0.2-0.2 0.6-0.2 0.8 0 0.3 0.3 0.3 0.6 0 0.9-0.2 0.2-0.6 0.2-0.8 0-0.2-0.3-0.2-0.6 0-0.9z"/>
						<path id="&lt;Path&gt;" class="s4" d="m650.9 340.2c0.2-0.2 0.6-0.2 0.8 0 0.3 0.2 0.3 0.6 0 0.8-0.2 0.3-0.6 0.3-0.8 0-0.2-0.2-0.2-0.6 0-0.8z"/>
						<path id="&lt;Path&gt;" class="s4" d="m1037.3 352.3c0.2-0.2 0.6-0.2 0.8 0 0.2 0.2 0.2 0.6 0 0.8-0.2 0.2-0.6 0.2-0.8 0-0.2-0.2-0.2-0.6 0-0.8z"/>
						<path id="&lt;Path&gt;" class="s4" d="m537.2 311.5c0.5-0.5 1.3-0.5 1.8 0 0.5 0.5 0.5 1.2 0 1.7-0.5 0.5-1.3 0.5-1.8 0-0.4-0.5-0.4-1.2 0-1.7z"/>
						<path id="&lt;Path&gt;" class="s4" d="m823.5 364.9c0.5-0.5 1.3-0.5 1.7 0 0.5 0.5 0.5 1.2 0 1.7-0.4 0.5-1.2 0.5-1.7 0-0.5-0.5-0.5-1.2 0-1.7z"/>
						<path id="&lt;Path&gt;" class="s4" d="m533.6 328.3c0.3-0.4 0.9-0.4 1.3 0 0.3 0.3 0.3 0.9 0 1.3-0.4 0.3-1 0.3-1.3 0-0.4-0.4-0.4-1 0-1.3z"/>
						<path id="&lt;Path&gt;" class="s4" d="m539.6 314.6c0.2-0.2 0.6-0.2 0.8 0 0.2 0.3 0.2 0.6 0 0.9-0.2 0.2-0.6 0.2-0.8 0-0.3-0.3-0.3-0.6 0-0.9z"/>
						<path id="&lt;Path&gt;" class="s4" d="m548.8 304.6c0.2-0.3 0.6-0.3 0.8 0 0.3 0.2 0.3 0.6 0 0.8-0.2 0.2-0.6 0.2-0.8 0-0.2-0.2-0.2-0.6 0-0.8z"/>
						<path id="&lt;Path&gt;" class="s4" d="m844.2 360.9c0.2-0.2 0.6-0.2 0.8 0 0.2 0.2 0.2 0.6 0 0.8-0.2 0.2-0.6 0.2-0.8 0-0.2-0.2-0.2-0.6 0-0.8z"/>
						<path id="&lt;Path&gt;" class="s4" d="m541.1 301.8c0.2-0.3 0.6-0.3 0.8 0 0.2 0.2 0.2 0.6 0 0.8-0.2 0.2-0.6 0.2-0.8 0-0.3-0.2-0.3-0.6 0-0.8z"/>
						<path id="&lt;Path&gt;" class="s4" d="m533 306.8c0.1-0.1 0.3-0.1 0.4 0 0.1 0.1 0.1 0.3 0 0.4-0.1 0.1-0.3 0.1-0.4 0-0.1-0.1-0.1-0.3 0-0.4z"/>
						<path id="&lt;Path&gt;" class="s4" d="m521.9 330.7c0.1-0.1 0.3-0.1 0.4 0 0.1 0.1 0.1 0.3 0 0.4-0.1 0.2-0.3 0.2-0.4 0-0.2-0.1-0.2-0.3 0-0.4z"/>
						<path id="&lt;Path&gt;" class="s4" d="m555.7 335.3c0.1-0.1 0.3-0.1 0.4 0 0.1 0.1 0.1 0.3 0 0.4-0.1 0.1-0.3 0.1-0.4 0-0.1-0.1-0.1-0.3 0-0.4z"/>
						<path id="&lt;Path&gt;" class="s4" d="m539.4 306.5c0.1-0.1 0.3-0.1 0.4 0 0.1 0.1 0.1 0.3 0 0.4-0.1 0.2-0.3 0.2-0.4 0-0.1-0.1-0.1-0.3 0-0.4z"/>
						<path id="&lt;Path&gt;" class="s4" d="m531.2 311.6c0.2-0.2 0.6-0.2 0.8 0 0.2 0.3 0.2 0.6 0 0.9-0.2 0.2-0.6 0.2-0.8 0-0.2-0.3-0.2-0.6 0-0.9z"/>
						<path id="&lt;Path&gt;" class="s4" d="m491.5 311.3c0.2-0.2 0.6-0.2 0.8 0 0.3 0.2 0.3 0.6 0 0.8-0.2 0.2-0.6 0.2-0.8 0-0.2-0.2-0.2-0.6 0-0.8z"/>
						<path id="&lt;Path&gt;" class="s4" d="m549.7 330.9c0.2-0.2 0.6-0.2 0.8 0 0.2 0.3 0.2 0.6 0 0.9-0.2 0.2-0.6 0.2-0.8 0-0.3-0.3-0.3-0.6 0-0.9z"/>
						<path id="&lt;Path&gt;" class="s4" d="m661.6 344.3c0.2-0.2 0.6-0.2 0.8 0 0.2 0.3 0.2 0.6 0 0.9-0.2 0.2-0.6 0.2-0.8 0-0.2-0.3-0.2-0.6 0-0.9z"/>
						<path id="&lt;Path&gt;" class="s4" d="m669.8 370.6c0.2-0.2 0.6-0.2 0.8 0 0.2 0.2 0.2 0.6 0 0.8-0.2 0.2-0.6 0.2-0.8 0-0.2-0.2-0.2-0.6 0-0.8z"/>
						<path id="&lt;Path&gt;" class="s4" d="m638.3 325.8c0.2-0.2 0.6-0.2 0.8 0 0.3 0.3 0.3 0.6 0 0.8-0.2 0.3-0.6 0.3-0.8 0-0.2-0.2-0.2-0.5 0-0.8z"/>
					</g>
					<path id="&lt;Path&gt;" class="s5" d="m353.3 302.9l-10.7 13h196.6l-184.5 4.5 107.6 5.5-139.8 12.6 108.4 6.5-22.8-5.4 146.5-13.7-100.1-5.5 104.2-4.2-19-9.7z"/>
				</g>
			</g>
		</g>
	</g>
</svg>