<svg version="1.2" xmlns="http://www.w3.org/2000/svg" viewBox="0 0 1000 400" width="1000" height="400">
	<title>2107</title>
	<defs>
		<clipPath clipPathUnits="userSpaceOnUse" id="cp1">
			<path d="m1000 400h-1000v-400h1000z"/>
		</clipPath>
		<clipPath clipPathUnits="userSpaceOnUse" id="cp2">
			<path d="m1006.34 441.41h-1009v-448.45h1009z"/>
		</clipPath>
		<linearGradient id="g1" x2="1" gradientUnits="userSpaceOnUse" gradientTransform="matrix(0,-178.707,323.308,0,333.647,171.664)">
			<stop offset="0" stop-color="#000000"/>
			<stop offset=".964" stop-color="#001122"/>
			<stop offset="1" stop-color="#1d1660"/>
		</linearGradient>
		<linearGradient id="g2" x2="1" gradientUnits="userSpaceOnUse" gradientTransform="matrix(0,-141.671,164.81,0,417.54,264.118)">
			<stop offset="0" stop-color="#000000"/>
			<stop offset=".964" stop-color="#001122"/>
			<stop offset="1" stop-color="#1d1660"/>
		</linearGradient>
		<linearGradient id="g3" x2="1" gradientUnits="userSpaceOnUse" gradientTransform="matrix(0,-141.671,164.81,0,867.571,332.028)">
			<stop offset="0" stop-color="#000000"/>
			<stop offset=".964" stop-color="#001122"/>
		</linearGradient>
		<linearGradient id="g4" x2="1" gradientUnits="userSpaceOnUse" gradientTransform="matrix(0,-239.885,427.509,0,723.431,232.842)">
			<stop offset="0" stop-color="#000000"/>
			<stop offset=".964" stop-color="#001122"/>
		</linearGradient>
		<linearGradient id="g5" x2="1" gradientUnits="userSpaceOnUse" gradientTransform="matrix(0,-92.05,133.193,0,938.262,90.166)">
			<stop offset="0" stop-color="#000000"/>
			<stop offset=".964" stop-color="#001122"/>
			<stop offset="1" stop-color="#1d1660"/>
		</linearGradient>
		<linearGradient id="g6" x2="1" gradientUnits="userSpaceOnUse" gradientTransform="matrix(458.811,0,0,314.826,-28.323,-7.042)">
			<stop offset="0" stop-color="#1d1660"/>
			<stop offset=".036" stop-color="#001122"/>
			<stop offset="1" stop-color="#000000"/>
		</linearGradient>
		<radialGradient id="g7" cx="0" cy="0" r="1" gradientUnits="userSpaceOnUse" gradientTransform="matrix(363.395,0,0,363.395,481.623,242.995)">
			<stop offset="0" stop-color="#2e58ff"/>
			<stop offset="1" stop-color="#000000"/>
		</radialGradient>
	</defs>
	<style>
		.s0 { fill: #1a0066 } 
		.s1 { fill: #1b0167 } 
		.s2 { fill: #1b0268 } 
		.s3 { fill: #1c0469 } 
		.s4 { fill: #1c056a } 
		.s5 { fill: #1d066b } 
		.s6 { fill: #1e076d } 
		.s7 { fill: #1e086e } 
		.s8 { fill: #1f0a6f } 
		.s9 { fill: #200b70 } 
		.s10 { fill: #200c71 } 
		.s11 { fill: #210d72 } 
		.s12 { fill: #210e73 } 
		.s13 { fill: #220f74 } 
		.s14 { fill: #231175 } 
		.s15 { fill: #231276 } 
		.s16 { fill: #241377 } 
		.s17 { fill: #241478 } 
		.s18 { fill: #251579 } 
		.s19 { fill: #26167a } 
		.s20 { fill: #26177b } 
		.s21 { fill: #27197c } 
		.s22 { fill: #271a7d } 
		.s23 { fill: #281b7e } 
		.s24 { fill: #281c7f } 
		.s25 { fill: #291d80 } 
		.s26 { fill: #2a1e81 } 
		.s27 { fill: #2a1f82 } 
		.s28 { fill: #2b2184 } 
		.s29 { fill: #2b2285 } 
		.s30 { fill: #2c2386 } 
		.s31 { fill: #2d2487 } 
		.s32 { fill: #2d2588 } 
		.s33 { fill: #2e2689 } 
		.s34 { fill: #2e278a } 
		.s35 { fill: #2f288b } 
		.s36 { fill: #2f298c } 
		.s37 { fill: #302a8c } 
		.s38 { fill: #302b8d } 
		.s39 { fill: #312d8e } 
		.s40 { fill: #322e8f } 
		.s41 { fill: #322f90 } 
		.s42 { fill: #333091 } 
		.s43 { fill: #333192 } 
		.s44 { fill: #343293 } 
		.s45 { fill: #343394 } 
		.s46 { fill: #353495 } 
		.s47 { fill: #353596 } 
		.s48 { fill: #363697 } 
		.s49 { fill: #363798 } 
		.s50 { fill: #373899 } 
		.s51 { fill: #38399a } 
		.s52 { fill: #383a9b } 
		.s53 { fill: #393b9c } 
		.s54 { fill: #393c9d } 
		.s55 { fill: #3a3d9d } 
		.s56 { fill: #3a3e9e } 
		.s57 { fill: #3b3f9f } 
		.s58 { fill: #3b40a0 } 
		.s59 { fill: #3c41a1 } 
		.s60 { fill: #3c42a2 } 
		.s61 { fill: #3d43a3 } 
		.s62 { fill: #3d44a4 } 
		.s63 { fill: #3e45a5 } 
		.s64 { fill: #3e46a5 } 
		.s65 { fill: #3f48a7 } 
		.s66 { fill: #4049a8 } 
		.s67 { fill: #4049a9 } 
		.s68 { fill: #404aa9 } 
		.s69 { fill: #414baa } 
		.s70 { fill: #414cab } 
		.s71 { fill: #424dac } 
		.s72 { fill: #424ead } 
		.s73 { fill: #434fad } 
		.s74 { fill: #434fae } 
		.s75 { fill: #4450af } 
		.s76 { fill: #4451b0 } 
		.s77 { fill: #4452b0 } 
		.s78 { fill: #4553b1 } 
		.s79 { fill: #4553b2 } 
		.s80 { fill: #4554b2 } 
		.s81 { fill: #4655b3 } 
		.s82 { fill: #4655b4 } 
		.s83 { fill: #4656b4 } 
		.s84 { fill: #4757b5 } 
		.s85 { fill: #4658b5 } 
		.s86 { fill: #4659b6 } 
		.s87 { fill: #455ab6 } 
		.s88 { fill: #445bb7 } 
		.s89 { fill: #435cb7 } 
		.s90 { fill: #435db8 } 
		.s91 { fill: #425eb8 } 
		.s92 { fill: #415fb8 } 
		.s93 { fill: #405fb9 } 
		.s94 { fill: #4060b9 } 
		.s95 { fill: #3f61ba } 
		.s96 { fill: #3e62ba } 
		.s97 { fill: #3d63bb } 
		.s98 { fill: #3c64bb } 
		.s99 { fill: #3c65bc } 
		.s100 { fill: #3b66bc } 
		.s101 { fill: #3a67bc } 
		.s102 { fill: #3968bd } 
		.s103 { fill: #3969bd } 
		.s104 { fill: #386abe } 
		.s105 { fill: #376bbe } 
		.s106 { fill: #366cbf } 
		.s107 { fill: #356dbf } 
		.s108 { fill: #356ec0 } 
		.s109 { fill: #346fc0 } 
		.s110 { fill: #3370c1 } 
		.s111 { fill: #3271c1 } 
		.s112 { fill: #3172c1 } 
		.s113 { fill: #3173c2 } 
		.s114 { fill: #3074c2 } 
		.s115 { fill: #2f75c3 } 
		.s116 { fill: #2e76c3 } 
		.s117 { fill: #2d77c4 } 
		.s118 { fill: #2d78c4 } 
		.s119 { fill: #2c79c5 } 
		.s120 { fill: #2b7ac5 } 
		.s121 { fill: #2a7bc6 } 
		.s122 { fill: #297cc6 } 
		.s123 { fill: #297dc7 } 
		.s124 { fill: #287ec7 } 
		.s125 { fill: #277fc7 } 
		.s126 { fill: #2681c8 } 
		.s127 { fill: #2582c8 } 
		.s128 { fill: #2583c9 } 
		.s129 { fill: #2484c9 } 
		.s130 { fill: #2385ca } 
		.s131 { fill: #2286ca } 
		.s132 { fill: #2187cb } 
		.s133 { fill: #2188cb } 
		.s134 { fill: #2089cc } 
		.s135 { fill: #1f8acc } 
		.s136 { fill: #1e8bcd } 
		.s137 { fill: #1d8ccd } 
		.s138 { fill: #1d8dcd } 
		.s139 { fill: #1c8ece } 
		.s140 { fill: #1b8fce } 
		.s141 { fill: #1a90cf } 
		.s142 { fill: #1991cf } 
		.s143 { fill: #1992d0 } 
		.s144 { fill: #1893d0 } 
		.s145 { fill: #1794d1 } 
		.s146 { fill: #1695d1 } 
		.s147 { fill: #1596d2 } 
		.s148 { fill: #1497d2 } 
		.s149 { fill: #1498d3 } 
		.s150 { fill: #1399d3 } 
		.s151 { fill: #129ad4 } 
		.s152 { fill: #119bd4 } 
		.s153 { fill: #109cd5 } 
		.s154 { fill: #109dd5 } 
		.s155 { fill: #0f9ed5 } 
		.s156 { fill: #0e9fd6 } 
		.s157 { fill: #0da0d6 } 
		.s158 { fill: #0ca1d7 } 
		.s159 { fill: #0ba2d7 } 
		.s160 { fill: #0ba3d8 } 
		.s161 { fill: #0aa5d8 } 
		.s162 { fill: #09a6d9 } 
		.s163 { fill: #08a7d9 } 
		.s164 { fill: #07a8da } 
		.s165 { fill: #07a9da } 
		.s166 { fill: #06aadb } 
		.s167 { fill: #05abdb } 
		.s168 { fill: #04acdc } 
		.s169 { fill: #03addc } 
		.s170 { fill: #02aedd } 
		.s171 { fill: #02afdd } 
		.s172 { fill: #01b0de } 
		.s173 { fill: #00b1de } 
		.s174 { mix-blend-mode: screen;fill: url(#g1) } 
		.s175 { mix-blend-mode: screen;fill: url(#g2) } 
		.s176 { mix-blend-mode: screen;fill: url(#g3) } 
		.s177 { mix-blend-mode: screen;fill: url(#g4) } 
		.s178 { mix-blend-mode: screen;fill: url(#g5) } 
		.s179 { mix-blend-mode: screen;fill: url(#g6) } 
		.s180 { opacity: .5;mix-blend-mode: screen;fill: url(#g7) } 
	</style>
	<g id="_Artboards_">
	</g>
	<g id="layer1">
		<g id="&lt;Group&gt;">
			<g id="&lt;Clip Group&gt;" clip-path="url(#cp1)">
				<g id="&lt;Group&gt;">
					<g id="&lt;Group&gt;">
						<g id="&lt;Clip Group&gt;" clip-path="url(#cp2)">
							<path id="&lt;Path&gt;" class="s0" d="m-2.7-7h1009v448.4h-1009z"/>
							<path id="&lt;Path&gt;" class="s0" d="m1007.5 345.5v70h0.1q-5.2 17-12.8 33.3v-6.3h-989.3v6.3q-7.6-16.4-12.8-33.3h3.5v-140.1h-3.5c6.9-22.6 17.1-44.4 30.2-65.2 26.2-41.5 64.2-79 111-110.4 93.7-62.9 223.2-101.7 366.3-101.7 143 0 272.5 38.9 366.2 101.8 46.9 31.4 84.8 68.8 111 110.4 13.1 20.8 23.3 42.6 30.2 65.2h-0.1z"/>
							<path id="&lt;Path&gt;" class="s1" d="m1007.5 345.5v35.4h5.9q-2.6 17.5-7.8 34.4-5.2 16.9-12.7 33.1v-5.9h-985.5v5.9q-7.6-16.3-12.7-33.2h1.5v-139.5h-1.5c6.8-22.5 17-44.3 30-65 26.1-41.4 63.9-78.6 110.6-110 93.4-62.6 222.4-101.3 364.9-101.3 142.4 0 271.4 38.8 364.8 101.4 46.7 31.3 84.5 68.6 110.6 110 13 20.7 23.1 42.4 30 65q5.2 16.9 7.8 34.3h-5.9z"/>
							<path id="&lt;Path&gt;" class="s2" d="m1014.1 345.5c0 23.8-3.6 47.1-10.4 69.5q-5.2 16.8-12.7 33v-5.5h-981.7v5.5q-7.6-16.2-12.7-33.1-5.1-16.8-7.8-34.2h7.4v-70.5h-7.4q2.7-17.4 7.8-34.2c6.9-22.5 17-44.1 30-64.7 26-41.3 63.6-78.4 110.1-109.6 93-62.4 221.5-101 363.5-101 283.8 0 513.9 154.4 513.9 344.8z"/>
							<path id="&lt;Path&gt;" class="s3" d="m1012.1 345.5c0 23.7-3.5 46.9-10.4 69.2q-5.1 16.8-12.6 32.9v-5.1h-977.9v5.1q-7.5-16.2-12.7-32.9-5.1-16.8-7.7-34.1h5.4v-70.3h-5.4q2.6-17.3 7.7-34.1c6.9-22.3 16.9-43.9 29.9-64.4 25.9-41.1 63.4-78.1 109.7-109.2 92.7-62.1 220.7-100.6 362.1-100.5 282.7 0 512 153.7 511.9 343.4z"/>
							<path id="&lt;Path&gt;" class="s4" d="m1010.2 345.5c0 23.6-3.6 46.7-10.4 69q-5.1 16.7-12.6 32.7v-4.7h-974.2v4.7q-7.4-16.1-12.5-32.8c-6.8-22.3-10.4-45.3-10.4-68.9 0-189 228.4-342.1 510.1-342.1 281.6 0 510 153.2 510 342.1z"/>
							<path id="&lt;Path&gt;" class="s5" d="m1008.2 345.5c0 23.5-3.6 46.5-10.3 68.7q-5.1 16.6-12.6 32.6v-4.3h-970.4v4.3q-7.4-16-12.5-32.7c-6.8-22.1-10.3-45.1-10.3-68.6 0-188.2 227.5-340.8 508.1-340.8 280.5 0 508 152.6 508 340.8z"/>
							<path id="&lt;Path&gt;" class="s6" d="m1006.2 345.5c0 23.4-3.5 46.3-10.3 68.4q-5 16.6-12.5 32.6v-4h-966.6v3.9q-7.4-16-12.4-32.5c-6.8-22.1-10.3-45-10.3-68.4 0-187.5 226.6-339.5 506.1-339.5 279.5 0.1 506 152 506 339.5z"/>
							<path id="&lt;Path&gt;" class="s7" d="m1004.2 345.5c0 23.4-3.5 46.1-10.2 68.2q-5.1 16.5-12.4 32.4v-3.6h-962.9v3.5q-7.4-15.9-12.4-32.4c-6.7-22-10.2-44.8-10.2-68.1 0-186.8 225.7-338.1 504.1-338.1 278.4 0 504 151.4 504 338.1z"/>
							<path id="&lt;Path&gt;" class="s8" d="m1002.2 345.5c0 23.3-3.5 46-10.2 67.9q-5 16.4-12.3 32.3v-3.2h-959.1v3.1q-7.3-15.8-12.4-32.3c-6.7-21.9-10.2-44.6-10.2-67.8 0-186 224.9-336.8 502.2-336.8 277.3 0 502.1 150.8 502 336.8z"/>
							<path id="&lt;Path&gt;" class="s9" d="m1000.3 345.5c0 23.2-3.5 45.8-10.2 67.6q-5 16.4-12.3 32.2v-2.8h-955.3v2.7q-7.3-15.7-12.3-32.1c-6.7-21.9-10.2-44.5-10.2-67.6 0-185.3 223.9-335.5 500.2-335.5 276.2 0 500.1 150.2 500.1 335.5z"/>
							<path id="&lt;Path&gt;" class="s10" d="m998.3 345.5c0 23.1-3.5 45.6-10.1 67.4q-5 16.3-12.3 32v-2.4h-951.5v2.3q-7.3-15.7-12.3-32c-6.6-21.8-10.1-44.3-10.1-67.3 0-184.6 223-334.2 498.2-334.2 275.1 0.1 498.1 149.7 498.1 334.2z"/>
							<path id="&lt;Path&gt;" class="s11" d="m996.3 345.5c0 23-3.5 45.4-10.1 67.1q-4.9 16.2-12.2 31.9v-2h-947.7v1.9q-7.3-15.6-12.3-31.9c-6.6-21.6-10-44.1-10-67 0-183.8 222.1-332.8 496.2-332.8 274 0 496.1 149 496.1 332.8z"/>
							<path id="&lt;Path&gt;" class="s12" d="m994.3 345.5c0 22.9-3.4 45.2-10 66.8q-5 16.2-12.2 31.8v-1.6h-943.9v1.5q-7.3-15.5-12.2-31.7c-6.6-21.6-10.1-44-10.1-66.8 0.1-183.1 221.3-331.5 494.3-331.5 272.9 0 494.1 148.4 494.1 331.5z"/>
							<path id="&lt;Path&gt;" class="s13" d="m992.4 345.5c0 22.8-3.5 45.1-10.1 66.6q-4.9 16.1-12.1 31.6v-1.2h-940.1v1.1q-7.2-15.5-12.2-31.6c-6.5-21.5-10-43.7-10-66.5 0-182.4 220.4-330.2 492.3-330.2 271.8 0 492.2 147.9 492.2 330.2z"/>
							<path id="&lt;Path&gt;" class="s14" d="m990.4 345.5c0 22.7-3.5 44.9-10 66.3q-4.9 16-12.1 31.5v-0.8h-936.4v0.7q-7.1-15.4-12-31.5c-6.6-21.4-10-43.5-10-66.2 0-181.6 219.5-328.9 490.3-328.8 270.7 0 490.2 147.2 490.2 328.8z"/>
							<path id="&lt;Path&gt;" class="s15" d="m988.4 345.5c0 22.6-3.4 44.7-9.9 66q-4.9 16-12.1 31.4v-0.4h-932.6v0.3q-7.1-15.3-12-31.3c-6.5-21.4-9.9-43.4-9.9-66 0-180.9 218.6-327.5 488.3-327.5 269.6 0 488.2 146.6 488.2 327.5z"/>
							<path id="&lt;Path&gt;" class="s16" d="m986.4 345.5c0 22.5-3.4 44.5-9.9 65.7q-4.8 16-12 31.3-1.7 3.8-3.6 7.6v-7.6h-921.5v7.6q-1.9-3.8-3.7-7.6-7.1-15.4-12-31.3c-6.4-21.2-9.8-43.2-9.8-65.7 0-180.2 217.7-326.2 486.3-326.2 268.5 0 486.2 146.1 486.2 326.2z"/>
							<path id="&lt;Path&gt;" class="s17" d="m984.4 345.5c0 22.4-3.4 44.3-9.8 65.5q-4.9 15.8-11.9 31.1-1.8 3.8-3.7 7.6v-7.2h-917.7v7.1q-1.9-3.7-3.7-7.5-7.1-15.3-11.9-31.2c-6.5-21.1-9.9-43-9.9-65.4 0.1-179.4 216.9-324.9 484.4-324.9 267.4 0.1 484.2 145.5 484.2 324.9z"/>
							<path id="&lt;Path&gt;" class="s18" d="m982.5 345.5c0 22.3-3.4 44.2-9.8 65.2q-4.9 15.8-11.9 31-1.8 3.8-3.7 7.6v-6.8h-913.9v6.7q-1.9-3.7-3.7-7.5-7.1-15.2-11.9-31c-6.4-21.1-9.8-42.9-9.8-65.2 0-178.7 216-323.5 482.4-323.5 266.3 0 482.3 144.8 482.3 323.5z"/>
							<path id="&lt;Path&gt;" class="s19" d="m980.5 345.5c0 22.3-3.4 44-9.8 64.9q-4.8 15.8-11.8 30.9-1.8 3.8-3.7 7.5v-6.3h-910.2v6.3q-1.9-3.7-3.6-7.5-7-15.2-11.8-30.9c-6.4-21-9.8-42.7-9.8-64.9 0-178 215.1-322.2 480.4-322.2 265.2 0 480.3 144.3 480.3 322.2z"/>
							<path id="&lt;Path&gt;" class="s20" d="m978.5 345.5c0 22.2-3.3 43.8-9.7 64.7q-4.8 15.6-11.8 30.7-1.8 3.8-3.6 7.5v-5.9h-906.5v5.9q-1.9-3.8-3.6-7.5-7-15.1-11.8-30.8c-6.4-20.9-9.7-42.5-9.7-64.6 0-177.2 214.2-320.9 478.4-320.9 264.1 0 478.3 143.7 478.3 320.9z"/>
							<path id="&lt;Path&gt;" class="s21" d="m976.5 345.5c0 22.1-3.3 43.6-9.7 64.4q-4.7 15.6-11.7 30.6-1.7 3.8-3.6 7.5v-5.5h-902.7v5.4q-1.9-3.7-3.6-7.4-7-15-11.8-30.6c-6.3-20.8-9.6-42.4-9.6-64.4 0-176.5 213.3-319.6 476.4-319.6 263.1 0.1 476.3 143.1 476.3 319.6z"/>
							<path id="&lt;Path&gt;" class="s22" d="m974.5 345.5c0 22-3.3 43.4-9.6 64.1q-4.7 15.6-11.7 30.5-1.7 3.8-3.6 7.5v-5.1h-898.9v5q-1.9-3.7-3.6-7.4-7-15-11.7-30.5c-6.3-20.7-9.7-42.2-9.7-64.1 0-175.8 212.5-318.2 474.5-318.2 262 0 474.4 142.5 474.3 318.2z"/>
							<path id="&lt;Path&gt;" class="s23" d="m972.6 345.5c0 21.9-3.3 43.2-9.6 63.9q-4.8 15.5-11.7 30.3-1.7 3.8-3.6 7.4v-4.6h-895.2v4.6q-1.8-3.7-3.5-7.4-7-14.9-11.7-30.4c-6.3-20.6-9.6-42-9.6-63.8 0-175 211.5-316.9 472.5-316.9 260.9 0 472.4 141.9 472.4 316.9z"/>
							<path id="&lt;Path&gt;" class="s24" d="m970.6 345.5c0 21.8-3.3 43.1-9.6 63.6q-4.7 15.4-11.6 30.2-1.7 3.8-3.5 7.4v-4.2h-891.5v4.2q-1.8-3.7-3.6-7.4-6.8-14.8-11.6-30.2c-6.2-20.6-9.5-41.9-9.5-63.6 0-174.3 210.6-315.6 470.5-315.6 259.8 0 470.4 141.3 470.4 315.6z"/>
							<path id="&lt;Path&gt;" class="s25" d="m968.6 345.5c0 21.7-3.3 42.9-9.5 63.3q-4.7 15.4-11.6 30.2-1.7 3.6-3.5 7.3v-3.8h-887.7v3.7q-1.9-3.6-3.6-7.3-6.8-14.8-11.5-30.1c-6.3-20.5-9.5-41.6-9.5-63.3 0-173.6 209.7-314.3 468.5-314.2 258.7 0 468.4 140.7 468.4 314.2z"/>
							<path id="&lt;Path&gt;" class="s26" d="m966.6 345.5c0 21.6-3.2 42.7-9.5 63.1q-4.6 15.3-11.4 30-1.8 3.6-3.6 7.3v-3.4h-883.9v3.3q-1.9-3.6-3.6-7.3-6.8-14.7-11.5-30c-6.2-20.3-9.4-41.4-9.4-63 0-172.8 208.8-312.9 466.5-312.9 257.6 0 466.4 140.1 466.4 312.9z"/>
							<path id="&lt;Path&gt;" class="s27" d="m964.6 345.5c0 21.5-3.2 42.5-9.4 62.8q-4.6 15.2-11.4 29.9-1.7 3.6-3.6 7.2v-2.9h-880.2v2.9q-1.8-3.6-3.5-7.3-6.8-14.6-11.4-29.8c-6.2-20.3-9.5-41.3-9.5-62.8 0-172.1 208-311.6 464.6-311.6 256.5 0 464.5 139.5 464.4 311.6z"/>
							<path id="&lt;Path&gt;" class="s28" d="m962.7 345.5c0 21.4-3.3 42.3-9.4 62.5q-4.7 15.2-11.4 29.8-1.7 3.6-3.5 7.2v-2.5h-876.5v2.5q-1.8-3.6-3.5-7.3-6.8-14.6-11.4-29.7c-6.2-20.2-9.4-41.1-9.4-62.5 0-171.4 207.1-310.3 462.6-310.3 255.4 0.1 462.5 139 462.5 310.3z"/>
							<path id="&lt;Path&gt;" class="s29" d="m960.7 345.5c0 21.3-3.2 42.2-9.4 62.3q-4.6 15.1-11.3 29.6-1.7 3.6-3.5 7.2v-2.1h-872.7v2q-1.8-3.5-3.5-7.2-6.7-14.5-11.4-29.6c-6.1-20.1-9.3-40.9-9.3-62.2 0-170.7 206.2-308.9 460.6-308.9 254.3 0 460.5 138.3 460.5 308.9z"/>
							<path id="&lt;Path&gt;" class="s30" d="m958.7 345.5c0 21.2-3.2 42-9.3 62q-4.6 15-11.3 29.5-1.7 3.6-3.5 7.2v-1.7h-868.9v1.6q-1.8-3.6-3.5-7.2-6.7-14.4-11.3-29.4c-6.1-20.1-9.3-40.8-9.3-62 0-169.9 205.3-307.6 458.6-307.6 253.2 0 458.5 137.7 458.5 307.6z"/>
							<path id="&lt;Path&gt;" class="s31" d="m956.7 345.5c0 21.2-3.2 41.8-9.2 61.7q-4.6 15-11.3 29.4-1.7 3.6-3.5 7.1v-1.2h-865.2v1.2q-1.8-3.6-3.4-7.2-6.7-14.4-11.3-29.3c-6.1-20-9.3-40.6-9.3-61.7 0.1-169.2 204.5-306.3 456.7-306.3 252.1 0 456.5 137.2 456.5 306.3z"/>
							<path id="&lt;Path&gt;" class="s32" d="m954.8 345.5c0 21.1-3.2 41.6-9.3 61.5q-4.5 14.9-11.2 29.2-3.3 7.1-7.1 14.2v-7.9h-854.1v7.8q-3.8-7-7.1-14.2-6.7-14.3-11.2-29.2c-6.1-19.8-9.3-40.4-9.3-61.4 0-168.5 203.6-305 454.7-304.9 251 0 454.6 136.5 454.6 304.9z"/>
							<path id="&lt;Path&gt;" class="s33" d="m952.8 345.5c0 21-3.2 41.4-9.2 61.2q-4.6 14.8-11.2 29.1-3.3 7.1-7.1 14.1v-7.4h-850.3v7.4q-3.8-7-7.1-14.2-6.7-14.2-11.2-29.1c-6-19.7-9.2-40.2-9.2-61.1 0-167.7 202.7-303.6 452.7-303.6 249.9 0 452.6 135.9 452.6 303.6z"/>
							<path id="&lt;Path&gt;" class="s34" d="m950.8 345.5c0 20.9-3.2 41.3-9.2 60.9q-4.5 14.8-11.1 29-3.3 7.1-7.1 14v-6.9h-846.6v6.9q-3.8-6.9-7.1-14-6.6-14.3-11.1-29c-6-19.7-9.1-40.1-9.1-60.9 0-167 201.8-302.3 450.7-302.3 248.8 0 450.6 135.4 450.6 302.3z"/>
							<path id="&lt;Path&gt;" class="s35" d="m948.8 345.5c0 20.8-3.1 41.1-9.1 60.7q-4.5 14.7-11.1 28.8-3.2 7.1-7 14v-6.5h-842.9v6.4q-3.8-6.9-7.1-13.9-6.5-14.2-11-28.9c-6-19.6-9.1-39.9-9.1-60.6 0-166.3 200.9-301 448.7-301 247.8 0 448.6 134.8 448.6 301z"/>
							<path id="&lt;Path&gt;" class="s36" d="m946.8 345.5c0 20.7-3.1 40.9-9 60.4q-4.5 14.6-11 28.7-3.3 7-7.1 13.9v-6h-839.2v6q-3.7-6.9-7-13.9-6.5-14.1-11-28.8c-5.9-19.5-9.1-39.7-9.1-60.3 0.1-165.5 200.1-299.7 446.8-299.6 246.7 0 446.6 134.1 446.6 299.6z"/>
							<path id="&lt;Path&gt;" class="s37" d="m944.9 345.5c0 20.6-3.2 40.7-9.1 60.1q-4.4 14.6-10.9 28.6-3.3 7-7 13.9v-5.6h-835.5v5.5q-3.7-6.8-7-13.8-6.5-14.1-10.9-28.6c-6-19.4-9.1-39.5-9.1-60.1 0-164.8 199.1-298.3 444.8-298.3 245.6 0 444.7 133.6 444.7 298.3z"/>
							<path id="&lt;Path&gt;" class="s38" d="m942.9 345.5c0 20.5-3.1 40.5-9 59.9q-4.5 14.5-10.9 28.4-3.3 7-7 13.8v-5.1h-831.7v5.1q-3.8-6.9-7-13.8-6.5-14-10.9-28.5c-5.9-19.3-9-39.3-9-59.8 0-164.1 198.2-297 442.8-297 244.5 0 442.7 133 442.7 297z"/>
							<path id="&lt;Path&gt;" class="s39" d="m940.9 345.5c0 20.4-3.1 40.3-9 59.6q-4.4 14.4-10.8 28.3-3.2 7-6.9 13.8v-4.7h-828.1v4.6q-3.7-6.8-6.9-13.7-6.5-13.9-10.9-28.4c-5.8-19.2-8.9-39.1-8.9-59.5 0-163.3 197.3-295.7 440.8-295.7 243.4 0.1 440.7 132.4 440.7 295.7z"/>
							<path id="&lt;Path&gt;" class="s40" d="m938.9 345.5c0 20.3-3 40.2-8.9 59.3q-4.4 14.4-10.8 28.2-3.2 6.9-6.9 13.7v-4.2h-824.3v4.2q-3.7-6.8-6.9-13.7-6.4-13.8-10.8-28.2c-5.9-19.2-8.9-39-8.9-59.3 0-162.6 196.4-294.3 438.8-294.3 242.3 0 438.7 131.8 438.7 294.3z"/>
							<path id="&lt;Path&gt;" class="s41" d="m936.9 345.5c0 20.2-3 40-8.8 59.1q-4.4 14.3-10.8 28-3.2 6.9-6.9 13.6v-3.7h-820.6v3.7q-3.6-6.7-6.8-13.6-6.4-13.8-10.8-28.1c-5.8-19.1-8.9-38.8-8.9-59 0-161.9 195.6-293 436.9-293 241.2 0 436.8 131.2 436.7 293z"/>
							<path id="&lt;Path&gt;" class="s42" d="m935 345.5c0 20.1-3.1 39.8-8.9 58.8q-4.3 14.2-10.7 27.9-3.2 6.9-6.8 13.6v-3.3h-816.9v3.2q-3.7-6.7-6.8-13.5-6.4-13.7-10.8-28c-5.7-18.9-8.8-38.6-8.8-58.7 0-161.1 194.7-291.7 434.9-291.7 240.1 0 434.8 130.6 434.8 291.7z"/>
							<path id="&lt;Path&gt;" class="s43" d="m933 345.5c0 20.1-3 39.6-8.8 58.5q-4.3 14.2-10.7 27.8-3.1 6.9-6.8 13.5v-2.8h-813.1v2.8q-3.7-6.7-6.9-13.5-6.3-13.6-10.6-27.8c-5.8-18.9-8.8-38.5-8.8-58.5 0-160.4 193.8-290.4 432.9-290.3 239 0 432.8 130 432.8 290.3z"/>
							<path id="&lt;Path&gt;" class="s44" d="m931 345.5c0 20-3 39.4-8.7 58.3q-4.4 14.1-10.7 27.6-3.1 6.8-6.7 13.5v-2.4h-809.5v2.3q-3.6-6.6-6.8-13.4-6.3-13.6-10.6-27.7c-5.7-18.8-8.7-38.3-8.7-58.2 0-159.7 192.9-289 430.9-289 237.9 0 430.8 129.4 430.8 289z"/>
							<path id="&lt;Path&gt;" class="s45" d="m929 345.5c0 19.9-3 39.3-8.7 58q-4.3 14-10.6 27.6-3.1 6.7-6.7 13.3v-1.9h-805.7v1.9q-3.6-6.6-6.8-13.4-6.2-13.5-10.5-27.6c-5.7-18.7-8.7-38.1-8.7-57.9 0-158.9 192-287.7 428.9-287.7 236.8 0 428.8 128.8 428.8 287.7z"/>
							<path id="&lt;Path&gt;" class="s46" d="m927 345.5c0 19.8-2.9 39.1-8.6 57.7q-4.3 14-10.5 27.5-3.2 6.7-6.8 13.3v-1.5h-802v1.4q-3.6-6.6-6.7-13.3-6.2-13.4-10.5-27.4c-5.7-18.7-8.7-38-8.7-57.7 0-158.2 191.2-286.4 427-286.4 235.7 0 426.9 128.3 426.8 286.4z"/>
							<path id="&lt;Path&gt;" class="s47" d="m925.1 345.5c0 19.7-3 38.9-8.7 57.5q-4.2 13.9-10.4 27.3-3.1 6.7-6.7 13.2v-1h-798.3v1q-3.6-6.6-6.7-13.3-6.2-13.4-10.5-27.3c-5.6-18.6-8.6-37.8-8.6-57.4 0-157.5 190.3-285.1 425-285 234.6 0 424.9 127.6 424.9 285z"/>
							<path id="&lt;Path&gt;" class="s48" d="m923.1 345.5c0 19.6-3 38.7-8.6 57.2q-4.2 13.8-10.4 27.2-3.1 6.6-6.7 13.2v-0.6h-794.6v0.5q-3.5-6.5-6.6-13.2-6.2-13.3-10.4-27.2c-5.7-18.4-8.6-37.6-8.6-57.1 0-156.7 189.4-283.7 423-283.7 233.5 0 422.9 127 422.9 283.7z"/>
							<path id="&lt;Path&gt;" class="s49" d="m921.1 345.5c0 19.5-2.9 38.5-8.5 56.9q-4.3 13.8-10.4 27.1-3.1 6.6-6.6 13.1v-0.1h-790.9v0.1q-3.5-6.5-6.6-13.2-6.2-13.2-10.4-27c-5.6-18.4-8.5-37.4-8.5-56.9 0-156 188.5-282.4 421-282.4 232.5 0 420.9 126.5 420.9 282.4z"/>
							<path id="&lt;Path&gt;" class="s50" d="m919.1 345.5c0 19.4-2.9 38.4-8.5 56.6q-4.2 13.8-10.3 27-3.1 6.6-6.6 13-1.8 3.3-3.6 6.5v-6.1h-779.9v6q-1.9-3.2-3.6-6.4-3.6-6.5-6.6-13.1-6.1-13.2-10.3-26.9c-5.6-18.3-8.6-37.2-8.6-56.6 0.1-155.3 187.7-281.1 419.1-281.1 231.4 0.1 418.9 125.9 418.9 281.1z"/>
							<path id="&lt;Path&gt;" class="s51" d="m917.2 345.5c0 19.3-3 38.2-8.5 56.4q-4.2 13.6-10.3 26.8-3 6.6-6.6 13-1.7 3.2-3.6 6.4v-5.6h-776.2v5.5q-1.8-3.1-3.6-6.4-3.5-6.4-6.5-13-6.1-13.1-10.3-26.8c-5.6-18.2-8.5-37-8.5-56.3 0-154.5 186.7-279.7 417.1-279.7 230.3 0 417 125.2 417 279.7z"/>
							<path id="&lt;Path&gt;" class="s52" d="m915.2 345.5c0 19.2-2.9 38-8.5 56.1q-4.1 13.6-10.2 26.7-3 6.5-6.5 12.9-1.8 3.2-3.6 6.4v-5.1h-772.5v5q-1.9-3.1-3.6-6.3-3.5-6.4-6.5-13-6.1-13-10.3-26.6c-5.5-18.2-8.4-36.9-8.4-56.1 0-153.8 185.8-278.4 415.1-278.4 229.2 0 415 124.7 415 278.4z"/>
							<path id="&lt;Path&gt;" class="s53" d="m913.2 345.5c0 19.1-2.9 37.8-8.4 55.8q-4.1 13.6-10.2 26.6-3 6.5-6.5 12.9-1.7 3.2-3.6 6.3v-4.6h-768.8v4.6q-1.8-3.2-3.6-6.4-3.4-6.3-6.5-12.8-6-13.1-10.1-26.6c-5.5-18-8.4-36.7-8.4-55.8 0-153.1 184.9-277.1 413.1-277.1 228.1 0 413 124.1 413 277.1z"/>
							<path id="&lt;Path&gt;" class="s54" d="m911.2 345.5c0 19-2.9 37.6-8.3 55.6q-4.2 13.4-10.2 26.4-3 6.5-6.4 12.8-1.8 3.2-3.6 6.3v-4.1h-765.1v4.1q-1.9-3.2-3.6-6.3-3.5-6.4-6.5-12.8-6-13-10.1-26.5c-5.5-17.9-8.3-36.5-8.3-55.5 0-152.3 184-275.8 411.1-275.7 227 0 411 123.4 411 275.7z"/>
							<path id="&lt;Path&gt;" class="s55" d="m909.2 345.5c0 19-2.8 37.4-8.3 55.3q-4.1 13.4-10.1 26.3-2.9 6.5-6.4 12.8-1.7 3.1-3.5 6.2v-3.6h-761.5v3.6q-1.8-3.1-3.5-6.3-3.5-6.3-6.5-12.7-6-12.9-10.1-26.3c-5.4-17.9-8.3-36.4-8.3-55.3 0-151.6 183.2-274.4 409.2-274.4 225.9 0 409 122.9 409 274.4z"/>
							<path id="&lt;Path&gt;" class="s56" d="m907.3 345.5c0 18.9-2.9 37.3-8.3 55q-4.1 13.4-10 26.2-3 6.4-6.4 12.7-1.8 3.1-3.6 6.2v-3.1h-757.7v3.1q-1.9-3.1-3.6-6.2-3.4-6.3-6.4-12.7-5.9-12.9-10-26.2c-5.4-17.8-8.3-36.2-8.3-55 0-150.9 182.3-273.1 407.2-273.1 224.8 0 407.1 122.3 407.1 273.1z"/>
							<path id="&lt;Path&gt;" class="s57" d="m905.3 345.5c0 18.8-2.9 37.1-8.3 54.8q-4 13.2-9.9 26-3 6.4-6.4 12.6-1.7 3.2-3.5 6.3v-2.7h-754.1v2.6q-1.8-3.1-3.5-6.2-3.4-6.2-6.4-12.6-5.9-12.8-10-26.1c-5.4-17.7-8.2-36-8.2-54.7 0-150.1 181.4-271.8 405.2-271.8 223.7 0 405.1 121.7 405.1 271.8z"/>
							<path id="&lt;Path&gt;" class="s58" d="m903.3 345.5c0 18.7-2.8 36.9-8.2 54.5q-4 13.2-9.9 25.9-3 6.4-6.4 12.6-1.7 3.1-3.5 6.2v-2.2h-750.4v2.1q-1.8-3-3.5-6.2-3.4-6.2-6.3-12.5-5.9-12.7-9.9-25.9c-5.4-17.6-8.2-35.9-8.2-54.5 0-149.4 180.5-270.5 403.2-270.4 222.6 0 403.1 121.1 403.1 270.4z"/>
							<path id="&lt;Path&gt;" class="s59" d="m901.3 345.5c0 37.2-11.2 72.6-31.5 104.8v-7.8h-739.3v7.7c-20.3-32.2-31.5-67.6-31.5-104.7 0-148.7 179.6-269.1 401.2-269.1 221.5 0 401.1 120.5 401.1 269.1z"/>
							<path id="&lt;Path&gt;" class="s60" d="m899.3 345.5c0 37-11.1 72.2-31.3 104.2v-7.2h-735.7v7.2c-20.2-32-31.4-67.3-31.4-104.2 0-147.9 178.8-267.8 399.3-267.8 220.4 0 399.2 119.9 399.1 267.8z"/>
							<path id="&lt;Path&gt;" class="s61" d="m897.4 345.5c0 36.8-11.2 71.8-31.3 103.7v-6.7h-732v6.7c-20.1-31.9-31.2-66.9-31.2-103.7 0-147.2 177.9-266.5 397.3-266.5 219.3 0.1 397.2 119.4 397.2 266.5z"/>
							<path id="&lt;Path&gt;" class="s62" d="m895.4 345.5c0 36.6-11.1 71.5-31.1 103.2v-6.2h-728.4v6.2c-20-31.8-31-66.6-31-103.2 0-146.5 177-265.1 395.3-265.1 218.2 0 395.2 118.7 395.2 265.1z"/>
							<path id="&lt;Path&gt;" class="s63" d="m893.4 345.5c0 36.4-11 71.1-30.9 102.7v-5.7h-724.7v5.6c-19.9-31.5-30.9-66.2-30.9-102.6 0-145.7 176.1-263.8 393.3-263.8 217.2 0 393.2 118.1 393.2 263.8z"/>
							<path id="&lt;Path&gt;" class="s64" d="m891.4 345.5c0 36.2-10.9 70.8-30.7 102.2v-5.2h-721.1v5.1c-19.8-31.4-30.8-65.9-30.7-102.1 0-145 175.2-262.5 391.3-262.5 216.1 0 391.2 117.6 391.2 262.5z"/>
							<path id="&lt;Path&gt;" class="s65" d="m887.5 345.5c0 35.9-10.9 70.1-30.5 101.1v-4.1h-713.8v4.1c-19.6-31.1-30.4-65.3-30.4-101.1 0-143.5 173.4-259.8 387.4-259.8 213.9 0 387.3 116.3 387.3 259.8z"/>
							<path id="&lt;Path&gt;" class="s66" d="m885.5 345.5c0 35.7-10.8 69.7-30.3 100.6v-3.6h-710.1v3.6c-19.5-30.9-30.3-64.9-30.3-100.6 0-142.8 172.5-258.5 385.4-258.5 212.8 0 385.3 115.8 385.3 258.5z"/>
							<path id="&lt;Path&gt;" class="s67" d="m883.5 345.5c0 35.5-10.7 69.3-30.1 100.1v-3.1h-706.5v3.1c-19.4-30.8-30.1-64.6-30.1-100.1 0-142.1 171.6-257.2 383.4-257.2 211.7 0 383.3 115.2 383.3 257.2z"/>
							<path id="&lt;Path&gt;" class="s68" d="m881.5 345.5c0 35.3-10.6 69-29.9 99.6v-2.6h-702.9v2.5c-19.3-30.6-30-64.2-30-99.5 0.1-141.3 170.8-255.8 381.5-255.8 210.6 0 381.3 114.5 381.3 255.8z"/>
							<path id="&lt;Path&gt;" class="s69" d="m879.6 345.5c0 35.1-10.7 68.6-29.9 99.1v-2.1h-699.2v2c-19.2-30.4-29.8-63.9-29.8-99 0-140.6 169.9-254.5 379.5-254.5 209.5 0 379.4 114 379.4 254.5z"/>
							<path id="&lt;Path&gt;" class="s70" d="m877.6 345.5c0 35-10.6 68.3-29.7 98.5v-1.5h-695.5v1.5c-19.1-30.3-29.7-63.6-29.7-98.5 0-139.9 169-253.2 377.5-253.2 208.4 0 377.4 113.4 377.4 253.2z"/>
							<path id="&lt;Path&gt;" class="s71" d="m875.6 345.5c0 34.8-10.5 67.9-29.5 98v-1h-691.9v1c-19-30.1-29.5-63.3-29.5-98 0-139.1 168.1-251.9 375.5-251.9 207.3 0.1 375.4 112.8 375.4 251.9z"/>
							<path id="&lt;Path&gt;" class="s72" d="m873.6 345.5c0 34.6-10.4 67.5-29.3 97.5v-0.5h-688.3v0.5c-18.9-30-29.3-62.9-29.3-97.5 0-138.4 167.2-250.5 373.5-250.5 206.2 0 373.4 112.2 373.4 250.5z"/>
							<path id="&lt;Path&gt;" class="s73" d="m871.6 345.5c0 34.4-10.4 67.2-29.2 97q-1.7 2.8-3.6 5.6v-5.6h-677.3v5.5q-1.9-2.7-3.7-5.5c-18.8-29.9-29.2-62.6-29.2-97 0-137.7 166.4-249.2 371.6-249.2 205.1 0 371.4 111.6 371.4 249.2z"/>
							<path id="&lt;Path&gt;" class="s74" d="m869.7 345.5c0 34.2-10.4 66.8-29.1 96.5q-1.7 2.8-3.6 5.5v-5h-673.7v5q-1.9-2.8-3.6-5.6c-18.7-29.6-29.1-62.2-29.1-96.4 0-136.9 165.5-247.9 369.6-247.9 204 0 369.5 111 369.5 247.9z"/>
							<path id="&lt;Path&gt;" class="s75" d="m867.7 345.5c0 34-10.3 66.5-28.9 96q-1.7 2.7-3.6 5.5v-4.5h-670.1v4.4q-1.9-2.7-3.6-5.5c-18.6-29.5-28.9-61.9-28.9-95.9 0-136.2 164.6-246.6 367.6-246.5 202.9 0 367.5 110.4 367.5 246.5z"/>
							<path id="&lt;Path&gt;" class="s76" d="m865.7 345.5c0 33.9-10.2 66.1-28.7 95.4q-1.8 2.8-3.6 5.5v-3.9h-666.5v3.9q-1.9-2.7-3.6-5.5c-18.5-29.3-28.7-61.6-28.7-95.4 0-135.5 163.7-245.2 365.6-245.2 201.8 0 365.5 109.8 365.5 245.2z"/>
							<path id="&lt;Path&gt;" class="s77" d="m863.7 345.5c0 33.7-10.2 65.8-28.6 94.9q-1.7 2.8-3.5 5.5v-3.4h-662.9v3.3q-1.9-2.7-3.6-5.4c-18.4-29.2-28.5-61.3-28.5-94.9 0-134.7 162.8-243.9 363.6-243.9 200.8 0 363.5 109.2 363.5 243.9z"/>
							<path id="&lt;Path&gt;" class="s78" d="m861.7 345.5c0 33.5-10.1 65.4-28.4 94.4q-1.7 2.7-3.5 5.4v-2.8h-659.3v2.8q-1.8-2.7-3.6-5.4c-18.3-29-28.4-60.9-28.4-94.4 0-134 161.9-242.6 361.7-242.6 199.7 0 361.6 108.6 361.5 242.6z"/>
							<path id="&lt;Path&gt;" class="s79" d="m859.8 345.5c0 33.3-10.1 65-28.3 93.9q-3.4 5.4-7.2 10.7v-7.6h-648.3v7.5q-3.8-5.2-7.2-10.6c-18.2-28.9-28.3-60.6-28.3-93.9 0-133.3 161-241.2 359.7-241.2 198.6 0 359.6 108 359.6 241.2z"/>
							<path id="&lt;Path&gt;" class="s80" d="m857.8 345.5c0 33.1-10 64.7-28.1 93.4q-3.4 5.4-7.2 10.6v-7h-644.7v7q-3.8-5.3-7.2-10.7c-18.1-28.7-28.1-60.2-28.1-93.3 0-132.5 160.1-239.9 357.7-239.9 197.5 0 357.6 107.4 357.6 239.9z"/>
							<path id="&lt;Path&gt;" class="s81" d="m855.8 345.5c0 32.9-9.9 64.3-27.9 92.9q-3.4 5.3-7.2 10.5v-6.4h-641.2v6.4q-3.7-5.2-7.1-10.6c-18-28.5-27.9-59.9-27.9-92.8 0-131.8 159.2-238.6 355.7-238.6 196.4 0 355.6 106.8 355.6 238.6z"/>
							<path id="&lt;Path&gt;" class="s82" d="m853.8 345.5c0 32.8-9.9 64-27.8 92.3q-3.3 5.4-7.1 10.6v-5.9h-637.6v5.8q-3.7-5.2-7.1-10.5c-17.9-28.4-27.8-59.6-27.7-92.3 0-131.1 158.3-237.3 353.7-237.3 195.3 0.1 353.6 106.3 353.6 237.3z"/>
							<path id="&lt;Path&gt;" class="s83" d="m851.9 345.5c0 32.6-9.9 63.6-27.7 91.8q-3.3 5.3-7 10.5v-5.3h-634.1v5.2q-3.7-5.1-7-10.4c-17.8-28.2-27.7-59.3-27.7-91.8 0-130.3 157.5-235.9 351.8-235.9 194.2 0 351.7 105.6 351.7 235.9z"/>
							<path id="&lt;Path&gt;" class="s84" d="m849.9 345.5c0 32.4-9.8 63.3-27.5 91.3q-3.3 5.3-7 10.4v-4.7h-630.5v4.7q-3.7-5.2-7-10.4c-17.7-28.1-27.5-58.9-27.5-91.3 0-129.6 156.6-234.6 349.8-234.6 193.1 0 349.7 105 349.7 234.6z"/>
							<path id="&lt;Path&gt;" class="s84" d="m847.9 345.5c0 32.2-9.7 62.9-27.3 90.8q-3.3 5.2-7 10.3v-4.1h-626.9v4.1q-3.7-5.1-7-10.3c-17.6-27.9-27.3-58.6-27.3-90.8 0-128.9 155.7-233.3 347.8-233.3 192 0 347.7 104.5 347.7 233.3z"/>
							<path id="&lt;Path&gt;" class="s84" d="m845.9 345.5c0 32-9.7 62.5-27.2 90.3q-3.2 5.2-6.9 10.3v-3.6h-623.3v3.5q-3.7-5.1-7-10.3c-17.5-27.7-27.1-58.2-27.1-90.2 0-128.1 154.8-232 345.8-231.9 190.9 0 345.7 103.8 345.7 231.9z"/>
							<path id="&lt;Path&gt;" class="s85" d="m842.1 345.5c0 31.7-9.6 61.8-26.9 89.3q-3.2 5.1-6.9 10.1v-2.4h-616.4v2.4q-3.6-5-6.8-10.2c-17.3-27.4-26.9-57.6-26.9-89.2 0-126.7 153.1-229.4 342-229.4 188.8 0 341.9 102.7 341.9 229.4z"/>
							<path id="&lt;Path&gt;" class="s86" d="m838.2 345.5c0 31.3-9.4 61.1-26.5 88.3q-3.3 5.1-6.8 10v-1.3h-609.5v1.3q-3.6-5-6.8-10.1c-17.1-27.1-26.6-56.9-26.5-88.2 0-125.3 151.3-226.8 338.1-226.8 186.7 0 338 101.6 338 226.8z"/>
							<path id="&lt;Path&gt;" class="s87" d="m834.4 345.5c0 31-9.4 60.4-26.3 87.3q-3.2 5-6.7 9.9v-0.2h-602.6v0.2q-3.5-4.9-6.6-10c-17-26.8-26.3-56.3-26.3-87.2 0-123.9 149.7-224.2 334.3-224.2 184.6 0 334.2 100.4 334.2 224.2z"/>
							<path id="&lt;Path&gt;" class="s88" d="m830.5 345.5c0 30.6-9.2 59.8-25.9 86.3q-3.2 4.9-6.6 9.8-1.8 2.4-3.6 4.8v-3.9h-588.5v3.9q-1.8-2.4-3.6-4.8-3.5-4.9-6.6-9.9c-16.7-26.5-26-55.6-26-86.2 0-122.4 148-221.6 330.5-221.6 182.4 0 330.4 99.2 330.3 221.6z"/>
							<path id="&lt;Path&gt;" class="s89" d="m826.7 345.5c0 30.2-9.1 59.1-25.7 85.3q-6.2 9.8-13.7 19.1v-7.4h-574.3v7.4q-7.6-9.3-13.8-19.2c-16.5-26.2-25.6-55-25.6-85.2 0-121 146.2-219.1 326.6-219.1 180.3 0.1 326.5 98.1 326.5 219.1z"/>
							<path id="&lt;Path&gt;" class="s90" d="m822.9 345.5c0 29.9-9.1 58.4-25.4 84.3q-6.1 9.7-13.6 18.9v-6.2h-567.5v6.2q-7.5-9.3-13.6-19c-16.4-25.9-25.4-54.3-25.4-84.2 0-119.6 144.5-216.5 322.8-216.5 178.2 0 322.7 97 322.7 216.5z"/>
							<path id="&lt;Path&gt;" class="s91" d="m819 345.5c0 29.5-8.9 57.7-25 83.3q-6.1 9.6-13.5 18.7v-5h-560.8v4.9q-7.3-9.1-13.4-18.7c-16.1-25.6-25-53.7-25-83.2 0-118.2 142.7-213.9 318.9-213.9 176.1 0 318.8 95.8 318.8 213.9z"/>
							<path id="&lt;Path&gt;" class="s92" d="m815.2 345.5c0 29.2-8.8 57-24.8 82.3q-6 9.4-13.2 18.4v-3.7h-554.1v3.7q-7.3-9-13.2-18.5c-16-25.3-24.8-53.1-24.8-82.2 0-116.7 141.1-211.3 315.1-211.3 173.9 0 315 94.6 315 211.3z"/>
							<path id="&lt;Path&gt;" class="s93" d="m811.3 345.5c0 28.8-8.7 56.3-24.4 81.3q-5.9 9.3-13.1 18.2v-2.5h-547.3v2.5q-7.2-8.9-13.1-18.3c-15.8-25-24.5-52.4-24.5-81.2 0-115.3 139.4-208.8 311.3-208.8 171.8 0.1 311.1 93.5 311.1 208.8z"/>
							<path id="&lt;Path&gt;" class="s94" d="m807.5 345.5c0 28.5-8.6 55.6-24.2 80.2q-5.8 9.3-12.9 18.1v-1.3h-540.5v1.2q-7.1-8.7-13-18c-15.5-24.6-24.1-51.8-24.1-80.2 0-113.9 137.6-206.2 307.4-206.2 169.7 0 307.3 92.3 307.3 206.2z"/>
							<path id="&lt;Path&gt;" class="s95" d="m803.7 345.5c0 28.1-8.5 54.9-23.9 79.2q-5.8 9.2-12.8 17.8h-530.2v4.3q-1.8-2.1-3.5-4.3-7.1-8.6-12.8-17.8c-15.4-24.3-23.9-51.1-23.9-79.2 0-112.5 135.9-203.6 303.6-203.6 167.6 0 303.5 91.2 303.5 203.6z"/>
							<path id="&lt;Path&gt;" class="s96" d="m799.8 345.5c0 27.8-8.4 54.2-23.5 78.2q-5.7 9.1-12.7 17.6-3.4 4.3-7.2 8.4v-7.2h-512.6v7.2q-3.7-4.1-7.2-8.4-6.9-8.6-12.6-17.6c-15.1-24-23.5-50.5-23.5-78.2 0-111 134.1-201 299.7-201 165.5 0 299.6 90 299.6 201z"/>
							<path id="&lt;Path&gt;" class="s97" d="m796 345.5c0 27.4-8.3 53.5-23.3 77.2q-5.6 8.9-12.4 17.4-3.5 4.2-7.2 8.3v-5.9h-506v5.9q-3.7-4.1-7.1-8.3-6.8-8.5-12.4-17.4c-15-23.7-23.3-49.8-23.3-77.2 0-109.6 132.5-198.5 295.9-198.4 163.3 0 295.8 88.8 295.8 198.4z"/>
							<path id="&lt;Path&gt;" class="s98" d="m792.1 345.5c0 27-8.1 52.8-22.9 76.2q-5.6 8.8-12.3 17.2-3.4 4.1-7 8.2v-4.6h-499.5v4.5q-3.6-4-7-8.2-6.8-8.3-12.3-17.1c-14.8-23.4-22.9-49.2-22.9-76.2 0-108.2 130.7-195.9 292-195.9 161.2 0 291.9 87.7 291.9 195.9z"/>
							<path id="&lt;Path&gt;" class="s99" d="m788.3 345.5c0 26.7-8.1 52.1-22.7 75.2q-5.4 8.7-12.1 16.9-3.3 4.1-6.9 8.1v-3.2h-492.9v3.2q-3.6-4-6.9-8.1-6.7-8.2-12.2-16.9c-14.5-23.1-22.6-48.5-22.6-75.2 0-106.8 129-193.3 288.2-193.3 159.1 0 288.1 86.6 288.1 193.3z"/>
							<path id="&lt;Path&gt;" class="s100" d="m784.4 345.5c0 26.3-7.9 51.4-22.3 74.2q-5.4 8.6-12 16.7-3.3 4.1-6.8 8v-1.9h-486.3v1.9q-3.6-4-6.9-8-6.5-8.1-11.9-16.7c-14.4-22.8-22.4-47.9-22.4-74.2 0-105.4 127.3-190.7 284.4-190.7 157 0 284.3 85.4 284.2 190.7z"/>
							<path id="&lt;Path&gt;" class="s101" d="m780.6 345.5c0 26-7.8 50.7-22 73.2q-5.4 8.5-11.9 16.5-3.2 4-6.7 7.8v-0.5h-479.7v0.5q-3.5-3.9-6.8-7.9-6.5-8-11.8-16.4c-14.2-22.5-22-47.3-22-73.2 0-103.9 125.6-188.1 280.5-188.1 154.8 0 280.4 84.2 280.4 188.1z"/>
							<path id="&lt;Path&gt;" class="s102" d="m776.8 345.5c0 25.6-7.8 50-21.8 72.2-7 11.1-15.5 21.7-25.5 31.5v-6.7h-458.7v6.7c-10-9.9-18.5-20.4-25.5-31.5-14-22.2-21.8-46.6-21.8-72.2 0-102.5 123.9-185.6 276.7-185.6 152.7 0 276.6 83.1 276.6 185.6z"/>
							<path id="&lt;Path&gt;" class="s103" d="m772.9 345.5c0 25.3-7.6 49.3-21.4 71.2-6.9 11-15.4 21.4-25.2 31.1v-5.3h-452.4v5.3c-9.8-9.8-18.2-20.2-25.1-31.1-13.8-21.9-21.4-46-21.4-71.2 0-101.1 122.1-183 272.8-183 150.6 0 272.7 82 272.7 183z"/>
							<path id="&lt;Path&gt;" class="s104" d="m769.1 345.5c0 24.9-7.6 48.6-21.2 70.2-6.8 10.8-15.1 21.1-24.8 30.7v-3.9h-446v3.8c-9.6-9.6-18-19.8-24.8-30.6-13.6-21.6-21.1-45.3-21.1-70.2 0-99.7 120.4-180.4 269-180.4 148.5 0 268.9 80.8 268.9 180.4z"/>
							<path id="&lt;Path&gt;" class="s105" d="m765.2 345.5c0 24.6-7.4 47.9-20.8 69.2-6.7 10.6-14.9 20.8-24.4 30.2v-2.4h-439.7v2.4c-9.5-9.5-17.7-19.6-24.4-30.2-13.4-21.3-20.9-44.7-20.9-69.2 0.1-98.2 118.7-177.8 265.2-177.8 146.4 0 265 79.6 265 177.8z"/>
							<path id="&lt;Path&gt;" class="s106" d="m761.4 345.5c0 24.2-7.3 47.2-20.5 68.2-6.7 10.5-14.7 20.5-24.1 29.8v-1h-433.3v0.9c-9.4-9.3-17.5-19.2-24.1-29.7-13.2-21-20.5-44-20.5-68.2 0-96.8 117-175.3 261.3-175.3 144.2 0.1 261.2 78.5 261.2 175.3z"/>
							<path id="&lt;Path&gt;" class="s107" d="m757.6 345.5c-0.1 23.8-7.3 46.5-20.3 67.2-6.5 10.3-14.5 20.1-23.7 29.3q-3.5 3.5-7.2 6.8v-6.3h-412.5v6.3q-3.7-3.3-7.2-6.8c-9.3-9.2-17.2-19-23.7-29.3-13.1-20.7-20.3-43.4-20.3-67.2 0-95.4 115.3-172.7 257.5-172.7 142.1 0 257.4 77.3 257.4 172.7z"/>
							<path id="&lt;Path&gt;" class="s108" d="m753.7 345.5c0 23.5-7.1 45.9-19.9 66.2-6.4 10.2-14.3 19.8-23.4 28.9q-3.4 3.4-7.1 6.7v-4.8h-406.4v4.7q-3.6-3.2-7-6.6c-9.1-9.1-17-18.7-23.4-28.9-12.8-20.4-19.9-42.7-19.9-66.2 0-94 113.5-170.1 253.6-170.1 140 0 253.5 76.2 253.5 170.1z"/>
							<path id="&lt;Path&gt;" class="s109" d="m749.9 345.5c0 23.1-7 45.2-19.7 65.2-6.3 10-14 19.5-23 28.5q-3.4 3.3-7 6.5v-3.2h-400.2v3.2q-3.6-3.2-6.9-6.6c-9-8.9-16.7-18.4-23.1-28.4-12.6-20.1-19.6-42.1-19.6-65.2 0-92.5 111.8-167.5 249.7-167.5 138 0 249.8 75 249.8 167.5z"/>
							<path id="&lt;Path&gt;" class="s110" d="m746 345.5c0 22.8-6.9 44.5-19.3 64.2-6.2 9.9-13.8 19.2-22.7 28q-3.3 3.3-6.8 6.5v-1.7h-394.1v1.7q-3.5-3.2-6.9-6.5c-8.8-8.8-16.4-18.2-22.6-28-12.5-19.8-19.3-41.5-19.3-64.2 0-91.1 110.1-165 245.8-164.9 135.8 0 245.9 73.8 245.9 164.9z"/>
							<path id="&lt;Path&gt;" class="s111" d="m742.2 345.5c0 22.4-6.8 43.8-19 63.2-6.2 9.7-13.7 18.9-22.4 27.6q-6.5 6.4-13.9 12.5v-6.3h-373.5v6.2q-7.4-6-14-12.5c-8.7-8.6-16.2-17.8-22.3-27.5-12.2-19.5-19-40.8-19-63.2 0-89.7 108.4-162.4 242-162.4 133.7 0 242.1 72.7 242.1 162.4z"/>
							<path id="&lt;Path&gt;" class="s112" d="m738.3 345.5c0 22.1-6.6 43.1-18.7 62.2-6 9.5-13.4 18.6-21.9 27.1q-6.5 6.4-13.8 12.3v-4.6h-367.6v4.6q-7.3-5.9-13.7-12.3c-8.5-8.5-15.9-17.6-21.9-27.1-12.1-19.2-18.8-40.2-18.8-62.2 0-88.3 106.7-159.8 238.2-159.8 131.6 0 238.2 71.6 238.2 159.8z"/>
							<path id="&lt;Path&gt;" class="s113" d="m734.5 345.5c0 21.7-6.6 42.4-18.4 61.2-6 9.4-13.2 18.3-21.6 26.7q-6.4 6.3-13.5 12.1v-3h-361.7v3q-7.2-5.9-13.5-12.1c-8.4-8.4-15.7-17.3-21.6-26.7-11.9-18.8-18.4-39.5-18.4-61.2 0-86.8 104.9-157.2 234.3-157.2 129.5 0 234.4 70.4 234.4 157.2z"/>
							<path id="&lt;Path&gt;" class="s114" d="m730.7 345.5c0 21.3-6.5 41.7-18.2 60.2-5.8 9.2-12.9 18-21.2 26.2q-6.2 6.2-13.3 11.9v-1.3h-355.7v1.3q-7.1-5.7-13.3-11.9c-8.3-8.2-15.4-17-21.3-26.2-11.6-18.5-18.1-38.9-18.1-60.2 0-85.4 103.2-154.6 230.5-154.6 127.4 0 230.6 69.2 230.6 154.6z"/>
							<path id="&lt;Path&gt;" class="s115" d="m726.8 345.5c0 21-6.3 41-17.8 59.2-5.7 9.1-12.8 17.7-20.9 25.8q-6.1 6.1-13.1 11.7-3.4 2.8-7.1 5.5v-5.2h-335.6v5.2q-3.6-2.7-7.1-5.5-6.9-5.6-13-11.7c-8.2-8.1-15.2-16.7-20.9-25.8-11.5-18.2-17.8-38.2-17.8-59.2 0-84 101.5-152.1 226.6-152.1 125.2 0 226.7 68.1 226.7 152.1z"/>
							<path id="&lt;Path&gt;" class="s116" d="m723 345.5c0 20.6-6.3 40.3-17.5 58.2-5.7 8.9-12.6 17.4-20.6 25.4q-6 5.9-12.8 11.5-3.4 2.7-7 5.4v-3.5h-329.9v3.5q-3.6-2.7-7-5.4-6.8-5.6-12.8-11.6c-8-7.9-14.9-16.4-20.6-25.3-11.3-17.9-17.5-37.6-17.5-58.2 0-82.6 99.8-149.5 222.8-149.5 123.1 0 222.9 66.9 222.9 149.5z"/>
							<path id="&lt;Path&gt;" class="s117" d="m719.1 345.5c0 40.6-24.5 77.3-64.1 103.9v-6.9h-309.7v6.8c-39.6-26.5-64.2-63.3-64.1-103.8 0-81.2 98-146.9 218.9-146.9 121 0 219 65.8 219 146.9z"/>
							<path id="&lt;Path&gt;" class="s118" d="m715.3 345.5c0 39.8-24.1 75.9-63 102v-5h-304.3v5c-38.9-26.1-63-62.2-63-102 0-79.7 96.3-144.3 215.1-144.3 118.9 0 215.2 64.6 215.2 144.3z"/>
							<path id="&lt;Path&gt;" class="s119" d="m711.4 345.5c0 39.1-23.6 74.6-61.8 100.2v-3.2h-298.9v3.2c-38.2-25.7-61.9-61.1-61.9-100.2 0-78.3 94.6-141.8 211.3-141.7 116.8 0 211.4 63.4 211.3 141.7z"/>
							<path id="&lt;Path&gt;" class="s120" d="m707.6 345.5c0 38.4-23.2 73.2-60.8 98.4v-1.4h-293.4v1.4c-37.5-25.2-60.7-60-60.7-98.4 0-76.9 92.9-139.2 207.4-139.2 114.6 0 207.5 62.3 207.5 139.2z"/>
							<path id="&lt;Path&gt;" class="s121" d="m703.8 345.5c0 37.7-22.8 71.9-59.7 96.6q-3.4 2.3-7.1 4.5v-4.1h-273.8v4.1q-3.6-2.2-7-4.5c-36.9-24.8-59.7-58.9-59.7-96.6 0-75.5 91.2-136.6 203.6-136.6 112.5 0 203.7 61.2 203.7 136.6z"/>
							<path id="&lt;Path&gt;" class="s122" d="m699.9 345.5c0 37-22.3 70.5-58.5 94.7q-6.8 4.6-14.2 8.7v-6.4h-254.1v6.4q-7.4-4.1-14.2-8.7c-36.2-24.2-58.5-57.7-58.5-94.7 0-74 89.4-134 199.7-134 110.4 0 199.8 60 199.8 134z"/>
							<path id="&lt;Path&gt;" class="s123" d="m696.1 345.5c0 36.3-22 69.1-57.4 92.9q-6.7 4.5-13.9 8.5v-4.4h-249.3v4.4q-7.3-4-13.9-8.5c-35.5-23.8-57.4-56.6-57.4-92.9 0-72.6 87.7-131.4 195.9-131.4 108.3 0 196 58.8 196 131.4z"/>
							<path id="&lt;Path&gt;" class="s124" d="m692.2 345.5c0 35.6-21.5 67.8-56.2 91.1q-6.6 4.4-13.7 8.3v-2.4h-244.4v2.4q-7.1-3.9-13.6-8.3c-34.8-23.3-56.3-55.5-56.3-91.1 0-71.2 86.1-128.9 192.1-128.9 106.1 0 192.1 57.7 192.1 128.9z"/>
							<path id="&lt;Path&gt;" class="s125" d="m688.4 345.5c0 34.9-21.1 66.4-55.1 89.3-8.6 5.7-17.9 10.9-27.9 15.4v-7.7h-210.5v7.7c-10-4.6-19.4-9.7-27.9-15.4-34-22.9-55.1-54.5-55.1-89.3 0-69.8 84.3-126.3 188.2-126.3 104 0 188.3 56.6 188.3 126.3z"/>
							<path id="&lt;Path&gt;" class="s126" d="m684.6 345.5c0 34.2-20.7 65.1-54.1 87.5-8.3 5.6-17.4 10.6-27.3 15.1v-5.6h-206.2v5.6c-9.8-4.5-18.9-9.6-27.3-15.2-33.3-22.3-54-53.3-54-87.4 0-68.3 82.6-123.7 184.4-123.7 101.9 0 184.5 55.4 184.5 123.7z"/>
							<path id="&lt;Path&gt;" class="s127" d="m680.7 345.5c0 33.4-20.2 63.7-52.9 85.6-8.2 5.5-17.1 10.5-26.7 14.8v-3.4h-201.9v3.4c-9.6-4.3-18.6-9.3-26.7-14.8-32.7-21.9-52.9-52.2-52.9-85.6 0-66.9 80.8-121.1 180.5-121.1 99.8 0 180.6 54.2 180.6 121.1z"/>
							<path id="&lt;Path&gt;" class="s128" d="m676.9 345.5c0 32.7-19.8 62.4-51.8 83.8-8 5.4-16.8 10.2-26.2 14.5v-1.3h-197.6v1.3c-9.4-4.3-18.1-9.1-26.1-14.5-32-21.5-51.8-51.1-51.8-83.8 0-65.5 79.1-118.6 176.7-118.6 97.7 0 176.8 53.1 176.8 118.6z"/>
							<path id="&lt;Path&gt;" class="s129" d="m673 345.5c0 32-19.3 61-50.6 82-7.8 5.2-16.4 10-25.6 14.2q-6.9 3.1-14.3 5.8v-5h-164.8v4.9q-7.3-2.6-14.2-5.8c-9.2-4.1-17.8-8.9-25.6-14.1-31.3-21-50.6-50-50.6-82 0-64.1 77.4-116 172.8-116 95.5 0 172.9 51.9 172.9 116z"/>
							<path id="&lt;Path&gt;" class="s130" d="m669.2 345.5c0 31.3-18.9 59.7-49.5 80.2-15.3 10.2-33.5 18.5-53.8 24.3v-7.5h-131.6v7.5c-20.2-5.8-38.4-14.1-53.7-24.3-30.6-20.6-49.5-48.9-49.5-80.2 0-62.6 75.7-113.4 169-113.4 93.4 0 169.1 50.8 169.1 113.4z"/>
							<path id="&lt;Path&gt;" class="s131" d="m665.3 345.5c0 30.6-18.5 58.3-48.3 78.3-15 10.1-32.8 18.2-52.6 23.8v-5.1h-128.6v5.1c-19.7-5.6-37.5-13.7-52.5-23.8-29.9-20-48.4-47.7-48.4-78.3 0-61.2 74-110.8 165.2-110.8 91.3 0 165.2 49.6 165.2 110.8z"/>
							<path id="&lt;Path&gt;" class="s132" d="m661.5 345.5c0 29.9-18.1 56.9-47.3 76.5-14.6 9.8-32 17.7-51.3 23.2v-2.7h-125.6v2.7c-19.3-5.5-36.7-13.4-51.3-23.2-29.2-19.6-47.2-46.6-47.2-76.5 0-59.8 72.2-108.3 161.3-108.2 89.2 0 161.4 48.4 161.4 108.2z"/>
							<path id="&lt;Path&gt;" class="s133" d="m657.7 345.5c0 29.2-17.7 55.6-46.2 74.7-14.2 9.6-31.2 17.3-50.1 22.6v-0.3h-122.6v0.3c-18.8-5.3-35.8-13-50-22.6-28.6-19.1-46.2-45.5-46.2-74.7 0-58.4 70.6-105.7 157.5-105.7 87 0 157.6 47.3 157.6 105.7z"/>
							<path id="&lt;Path&gt;" class="s134" d="m653.8 345.5c0 56.9-68.8 103.1-153.7 103.1-84.8 0-153.6-46.2-153.6-103.1 0-57 68.8-103.1 153.6-103.1 84.9 0 153.7 46.2 153.7 103.1z"/>
							<path id="&lt;Path&gt;" class="s135" d="m650 345.5c0 55.5-67.1 100.5-149.9 100.5-82.7 0-149.8-45-149.8-100.5 0-55.5 67.1-100.5 149.8-100.5 82.8 0 149.9 45 149.9 100.5z"/>
							<path id="&lt;Path&gt;" class="s136" d="m646.1 345.5c0 54.1-65.3 97.9-146 97.9-80.6 0-146-43.8-146-97.9 0-54.1 65.4-97.9 146-97.9 80.7 0 146 43.8 146 97.9z"/>
							<path id="&lt;Path&gt;" class="s137" d="m642.3 345.5c0 52.7-63.7 95.3-142.2 95.3-78.5 0-142.1-42.7-142.1-95.3 0-52.7 63.6-95.4 142.1-95.4 78.6 0 142.2 42.7 142.2 95.4z"/>
							<path id="&lt;Path&gt;" class="s138" d="m638.5 345.5c-0.1 51.2-62 92.8-138.4 92.8-76.4 0-138.3-41.6-138.3-92.8 0-51.3 62-92.8 138.3-92.8 76.4 0 138.4 41.6 138.4 92.8z"/>
							<path id="&lt;Path&gt;" class="s139" d="m634.6 345.5c0 49.8-60.2 90.2-134.5 90.2-74.2 0-134.4-40.4-134.4-90.2 0-49.8 60.2-90.2 134.4-90.2 74.3 0 134.5 40.4 134.5 90.2z"/>
							<path id="&lt;Path&gt;" class="s140" d="m630.8 345.5c0 48.4-58.5 87.6-130.7 87.6-72.1 0-130.6-39.2-130.6-87.6 0-48.4 58.5-87.6 130.6-87.6 72.2 0 130.7 39.2 130.7 87.6z"/>
							<path id="&lt;Path&gt;" class="s141" d="m626.9 345.5c0 47-56.7 85-126.8 85-70 0-126.7-38.1-126.7-85 0-47 56.7-85.1 126.7-85.1 70.1 0 126.8 38.1 126.8 85.1z"/>
							<path id="&lt;Path&gt;" class="s142" d="m623.1 345.5c0 45.5-55.1 82.5-123 82.4-67.9 0-122.9-36.9-122.9-82.4 0-45.6 55-82.5 122.9-82.5 67.9 0 123 36.9 123 82.5z"/>
							<path id="&lt;Path&gt;" class="s143" d="m619.2 345.5c0 44.1-53.3 79.9-119.1 79.9-65.7 0-119.1-35.8-119.1-79.9 0-44.1 53.4-79.9 119.1-79.9 65.8 0 119.1 35.8 119.1 79.9z"/>
							<path id="&lt;Path&gt;" class="s144" d="m615.4 345.5c0 42.7-51.6 77.3-115.3 77.3-63.6 0-115.2-34.6-115.2-77.3 0-42.7 51.6-77.3 115.2-77.3 63.7 0 115.3 34.6 115.3 77.3z"/>
							<path id="&lt;Path&gt;" class="s145" d="m611.6 345.5c0 41.3-49.9 74.7-111.5 74.7-61.5 0-111.4-33.4-111.4-74.7 0-41.3 49.9-74.8 111.4-74.7 61.6 0 111.5 33.4 111.5 74.7z"/>
							<path id="&lt;Path&gt;" class="s146" d="m607.7 345.5c0 39.8-48.2 72.1-107.6 72.1-59.4 0-107.5-32.3-107.5-72.1 0-39.9 48.1-72.2 107.5-72.2 59.5 0 107.6 32.3 107.6 72.2z"/>
							<path id="&lt;Path&gt;" class="s147" d="m603.9 345.5c0 38.4-46.5 69.6-103.8 69.6-57.3 0-103.7-31.2-103.7-69.6 0-38.4 46.5-69.6 103.7-69.6 57.3 0 103.8 31.2 103.8 69.6z"/>
							<path id="&lt;Path&gt;" class="s148" d="m600 345.5c0 37-44.7 67-99.9 67-55.1 0-99.9-30-99.8-67 0-37 44.7-67 99.8-67 55.2 0 99.9 30 99.9 67z"/>
							<path id="&lt;Path&gt;" class="s149" d="m596.2 345.5c0 35.6-43 64.4-96.1 64.4-53 0-96-28.8-96-64.4 0-35.6 43-64.4 96-64.4 53.1 0 96.1 28.8 96.1 64.4z"/>
							<path id="&lt;Path&gt;" class="s150" d="m592.3 345.5c0 34.1-41.2 61.8-92.2 61.8-50.9 0-92.2-27.7-92.2-61.8 0-34.2 41.3-61.9 92.2-61.9 51 0 92.2 27.7 92.2 61.9z"/>
							<path id="&lt;Path&gt;" class="s151" d="m588.5 345.5c0 32.7-39.6 59.3-88.4 59.3-48.8 0-88.3-26.6-88.3-59.3 0-32.8 39.5-59.3 88.3-59.3 48.8 0 88.4 26.6 88.4 59.3z"/>
							<path id="&lt;Path&gt;" class="s152" d="m584.7 345.5c0 31.3-37.9 56.7-84.6 56.7-46.6 0-84.5-25.4-84.5-56.7 0-31.3 37.9-56.7 84.5-56.7 46.7 0 84.6 25.4 84.6 56.7z"/>
							<path id="&lt;Path&gt;" class="s153" d="m580.8 345.5c0 29.9-36.1 54.1-80.7 54.1-44.5 0-80.6-24.2-80.6-54.1 0-29.9 36.1-54.1 80.6-54.1 44.6 0 80.7 24.2 80.7 54.1z"/>
							<path id="&lt;Path&gt;" class="s154" d="m577 345.5c0 28.5-34.4 51.5-76.9 51.5-42.4 0-76.8-23.1-76.8-51.5 0-28.5 34.4-51.6 76.8-51.6 42.5 0 76.9 23.1 76.9 51.6z"/>
							<path id="&lt;Path&gt;" class="s155" d="m573.1 345.5c0 27-32.6 49-73 48.9-40.3 0-73-21.9-73-48.9 0-27.1 32.7-49 73-49 40.4 0 73 21.9 73 49z"/>
							<path id="&lt;Path&gt;" class="s156" d="m569.3 345.5c0 25.6-31 46.4-69.2 46.4-38.2 0-69.1-20.8-69.1-46.4 0-25.6 31-46.4 69.1-46.4 38.2 0 69.2 20.8 69.2 46.4z"/>
							<path id="&lt;Path&gt;" class="s157" d="m565.5 345.5c0 24.2-29.3 43.8-65.4 43.8-36 0-65.3-19.6-65.3-43.8 0-24.2 29.3-43.8 65.3-43.8 36.1 0 65.4 19.6 65.4 43.8z"/>
							<path id="&lt;Path&gt;" class="s158" d="m561.6 345.5c0 22.8-27.5 41.2-61.5 41.2-33.9 0-61.4-18.4-61.4-41.2 0-22.8 27.5-41.2 61.4-41.2 34 0 61.5 18.4 61.5 41.2z"/>
							<path id="&lt;Path&gt;" class="s159" d="m557.8 345.5c0 21.3-25.8 38.6-57.7 38.6-31.8 0-57.6-17.3-57.6-38.6 0-21.4 25.8-38.7 57.6-38.7 31.9 0 57.7 17.3 57.7 38.7z"/>
							<path id="&lt;Path&gt;" class="s160" d="m553.9 345.5c0 19.9-24.1 36.1-53.8 36.1-29.7 0-53.7-16.2-53.7-36.1 0-19.9 24-36.1 53.7-36.1 29.7 0 53.8 16.2 53.8 36.1z"/>
							<path id="&lt;Path&gt;" class="s161" d="m550.1 345.5c0 18.5-22.4 33.5-50 33.5-27.5 0-49.9-15-49.9-33.5 0-18.5 22.4-33.5 49.9-33.5 27.6 0 50 15 50 33.5z"/>
							<path id="&lt;Path&gt;" class="s162" d="m546.2 345.5c0 17.1-20.6 30.9-46.1 30.9-25.4 0-46.1-13.8-46.1-30.9 0-17.1 20.7-30.9 46.1-30.9 25.5 0 46.1 13.8 46.1 30.9z"/>
							<path id="&lt;Path&gt;" class="s163" d="m542.4 345.5c0 15.6-18.9 28.3-42.3 28.3-23.3 0-42.2-12.7-42.2-28.3 0-15.7 18.9-28.4 42.2-28.4 23.4 0 42.3 12.7 42.3 28.4z"/>
							<path id="&lt;Path&gt;" class="s164" d="m538.6 345.5c0 14.2-17.2 25.8-38.5 25.8-21.2 0-38.4-11.6-38.4-25.8 0-14.2 17.2-25.8 38.4-25.8 21.3 0 38.5 11.6 38.5 25.8z"/>
							<path id="&lt;Path&gt;" class="s165" d="m534.7 345.5c0 12.8-15.5 23.2-34.6 23.2-19.1 0-34.5-10.4-34.5-23.2 0-12.8 15.4-23.2 34.5-23.2 19.1 0 34.6 10.4 34.6 23.2z"/>
							<path id="&lt;Path&gt;" class="s166" d="m530.9 345.5c0 11.4-13.8 20.6-30.8 20.6-16.9 0-30.7-9.2-30.7-20.6 0-11.4 13.8-20.6 30.7-20.6 17 0 30.8 9.2 30.8 20.6z"/>
							<path id="&lt;Path&gt;" class="s167" d="m527 345.5c0 9.9-12 18-26.9 18-14.8 0-26.9-8.1-26.9-18 0-10 12.1-18.1 26.9-18.1 14.9 0 26.9 8.1 26.9 18.1z"/>
							<path id="&lt;Path&gt;" class="s168" d="m523.2 345.5c0 8.5-10.3 15.4-23.1 15.4-12.7 0-23-6.9-23-15.4 0-8.6 10.3-15.5 23-15.5 12.8 0 23.1 6.9 23.1 15.5z"/>
							<path id="&lt;Path&gt;" class="s169" d="m519.4 345.5c-0.1 7.1-8.7 12.9-19.3 12.9-10.6 0-19.2-5.8-19.2-12.9 0-7.1 8.6-12.9 19.2-12.9 10.7 0 19.3 5.8 19.3 12.9z"/>
							<path id="&lt;Path&gt;" class="s170" d="m515.5 345.5c0 5.7-6.9 10.3-15.4 10.3-8.4 0-15.3-4.6-15.3-10.3 0-5.7 6.9-10.3 15.3-10.3 8.5 0 15.4 4.6 15.4 10.3z"/>
							<path id="&lt;Path&gt;" class="s171" d="m511.7 345.5c0 4.3-5.2 7.7-11.6 7.7-6.3 0-11.5-3.4-11.5-7.7 0-4.3 5.2-7.7 11.5-7.7 6.4 0 11.6 3.4 11.6 7.7z"/>
							<path id="&lt;Path&gt;" class="s172" d="m507.8 345.5c0 2.8-3.4 5.1-7.7 5.1-4.2 0-7.6-2.3-7.6-5.1 0-2.9 3.4-5.2 7.6-5.2 4.3 0 7.7 2.3 7.7 5.2z"/>
							<path id="&lt;Path&gt;" class="s173" d="m504 345.5c0 1.4-1.7 2.6-3.9 2.6-2.1 0-3.8-1.2-3.8-2.6 0-1.4 1.7-2.6 3.8-2.6 2.2 0 3.9 1.2 3.9 2.6z"/>
						</g>
					</g>
					<path id="&lt;Path&gt;" class="s174" d="m221.4-7c0 0 47.9 35.8 70.1 45.2 0 0 27.6-2.1 31.4 0 3.7 2 20.1 12.2 21.8 16.2 1.7 4 2.9 12.5 6.3 16.4 3.4 4 33.9 18.7 44.7 20.4 10.8 1.7 36.8 6.8 41.9 10.2 5.1 3.4 3.4 11.4 6.3 15.3 2.8 4 19.8 10.8 26.6 15.3 6.8 4.5 28 3.4 34.4 6.2 6.4 2.9 20 11.4 20 11.4l5.1 4.5c0 0-2.9 9.6 0 12.5 2.8 2.8 14.7 5.1 14.7 5.1 0 0-9.1-9.1-9.1-14.8 0-5.6-5.6-10.2-5.6-10.2 0 0-28.4-13-32.3-16.4-4-3.4-39.7-32.8-42.5-37.9-2.8-5.1-9.1-19.3-12.5-23.3-3.4-3.9-35.7-12.4-43.6-15.8-7.9-3.4-18.1-13.6-22.9-22.1-4.8-8.5-13.9-32-16.7-35.1-2.9-3.1-9.1-3.1-9.1-3.1z"/>
					<path id="&lt;Path&gt;" class="s175" d="m427.4 168.3c0 0 25.7 16.8 32.9 22.9 7.2 6.2 30.8 8.9 35.4 10.6 4.7 1.7 15.7 17.1 15.7 17.1 0 0 6.4 11.4 8 19.6 1.5 8.2 22 17.4 22 17.4l19.4 8.2c0 0-30.1-33.9-33.5-42.1-3.3-8.2 0.8-15.7-7.9-20.2-8.8-4.4-30-11.6-32.2-19.8-2.2-8.2-36.8-37-47.8-42.1-10.9-5.1-43.4-17.5-43.4-17.5 0 0 21.1 34.6 31.4 45.9z"/>
					<path id="&lt;Path&gt;" class="s176" d="m877.5 236.2c0 0 25.7 16.8 32.9 22.9 7.1 6.2 30.7 8.9 35.4 10.6 4.6 1.8 15.7 17.2 15.7 17.2 0 0 6.4 11.3 7.9 19.5 1.5 8.2 22 17.4 22 17.4l19.5 8.2c0 0-30.2-33.8-33.5-42.1-3.4-8.2 0.7-15.7-8-20.2-8.7-4.4-30-11.6-32.2-19.8-2.2-8.2-36.8-37-47.7-42.1-11-5.1-43.4-17.4-43.4-17.4 0 0 21.1 34.5 31.4 45.8z"/>
					<path id="&lt;Path&gt;" class="s177" d="m769 59.5c0 0 34.2 30.6 54.5 42.5 20.3 11.9 31.4 6.8 31.4 6.8 0 0 17.9 5.2 28.9 13.6 11 8.5 9.3 23.8 16.1 32.3 6.8 8.5 34.8 2.5 34.8 2.5l42 46.4 27.8 29.2c0 0-30-39-35-47.5-5.1-8.5-39.9-57.8-46.7-66.3-6.8-8.5-16.1-6.8-22.9-18.7-6.8-11.9-14.5-25.5-25.5-35.7-11.1-10.2-34-25.5-46.3-32.3-12.4-6.8-31.9-13.6-31.9-13.6l-34-7.6-33.1-18.1h-152.1c0 0 74.6 51.2 108.5 64 12.8 4.8 83.5 2.5 83.5 2.5z"/>
					<path id="&lt;Path&gt;" class="s178" d="m903.5-1.9c0 0 18.5 26.4 31.7 34 13.2 7.7 30 10.9 36.2 18.6 6.3 7.6 30.5 25.1 30.5 25.1l34.8 14.4c0 0-47.4-40.1-52.6-49.4-5.1-9.3-19.1-16.9-19.1-16.9z"/>
					<path id="&lt;Path&gt;" class="s179" d="m-28.3 169.5c0 0 39.8 28.8 47.8 35.8 8 6.9 29.5 6.4 36.6 13.6 7.1 7.3 19.8 10.5 28.7 20.4 9 9.9 38.5 17.1 48.6 28.8 10.1 11.6 27.2 16.4 35.8 21.7 8.7 5.2 35.4 18 35.4 18 0 0-32.6-15.3-38-30.6-5.3-15.3-2.3-34.4-2.3-34.4 0 0 6.9-1.5 0-14.1-6.8-12.7-1.1-20.8-9.7-31.4-8.6-10.6-12.7-29.7-6.8-38.6 5.9-9 19.6-35.1 16.5-50.7-3-15.6 23.6-27.1 23.6-27.1 0 0 40.2 3.8 45 10.2 4.9 6.4 40.3 16.9 40.3 16.9 0 0 28.3 1.5 32.1 0 3.9-1.6 16 8.6 25.8 17.5 9.9 8.9 11.8 3.5 25.6 13.1 13.7 9.5 16.3 23.9 24.2 30.9 0 0-8.9-15.4-11.6-30.9 0 0 14.1 1.5 24.3 4.1 10.2 2.5 15 1.9 22.1 7.3 7 5.4 14.8 8.8 14.8 8.8 0 0-11.9-10.8-14.8-16.7-2.9-6-5.1-11.9-8.8-14.2-3.7-2.2-45.4-12.7-56-17.7-10.7-4.9-19.8-21.2-19.8-21.2 0 0-24.4-34.3-39.8-34.8-15.4-0.6-42.4-8-52.2-14.9-9.9-7-42.3-46.3-42.3-46.3h-219.7z"/>
				</g>
				<path id="&lt;Path&gt;" class="s180" d="m845 243c0 85.8-162.7 155.3-363.4 155.3-200.7 0-363.4-69.5-363.4-155.3 0-85.8 162.7-155.3 363.4-155.3 200.7 0 363.4 69.5 363.4 155.3z"/>
			</g>
		</g>
	</g>
</svg>