<svg version="1.2" xmlns="http://www.w3.org/2000/svg" viewBox="0 0 1000 400" width="1000" height="400">
	<title>2107</title>
	<defs>
		<clipPath clipPathUnits="userSpaceOnUse" id="cp1">
			<path d="m1000 400h-1000v-400h1000z"/>
		</clipPath>
		<linearGradient id="g1" x2="1" gradientUnits="userSpaceOnUse" gradientTransform="matrix(0,-162.667,906.6,0,563.627,349.667)">
			<stop offset=".006" stop-color="#86f9ff"/>
			<stop offset="1" stop-color="#4c51dd"/>
		</linearGradient>
	</defs>
	<style>
		.s0 { fill: url(#g1) } 
		.s1 { mix-blend-mode: soft-light;fill: #ffffff } 
		.s2 { opacity: .5;mix-blend-mode: soft-light;fill: #ffffff } 
	</style>
	<g id="_Artboards_">
	</g>
	<g id="layer1">
		<g id="&lt;Group&gt;">
			<g id="&lt;Clip Group&gt;" clip-path="url(#cp1)">
				<g id="&lt;Group&gt;">
					<path id="&lt;Path&gt;" class="s0" d="m95.7 286.9l49.7-12.6h4l140.6-53.7 40.2 22.2 3.8 0.9 50.2 23.3 3.8 0.9 15.7 5.5 24.8 3.9-67.6-12.7 2.1-0.2 33.4-14.3 7.2-2.2 35.9 18.3 2.4-0.2 6.4 6 9 4.1 58.1-51.1h2.8l36-36.7 3.5-1.3 22.2 20.2 1.7 0.3 84.1 66.8 2.9 0.4 66-18.7 4.6-0.3 80.9 40.8 51.6-29.7 3 0.2 75.6-38.5 52 18.6v102.6l-906.6-0.2z"/>
					<path id="&lt;Path&gt;" class="s1" d="m557.7 187l25.4 29.7-21.4-22.1-5.7 1.2 25 32.7-16.1-18.6-13.7 13.4 2.9 19.1-2.9 0.7-6.3-8.6-3.3 1.1 11 26.5-53.9 30.7-38-19.5 54.7-48.3 19 29-16.2-29 36-36.7z"/>
					<path id="&lt;Path&gt;" class="s1" d="m632.7 265.5l-49.6-48.8 25.9 26.7-1.1 1.1 13.7 16.7z"/>
					<path id="&lt;Path&gt;" class="s1" d="m290 220.6l23.2 20.5-23.2-16.8-3.1 0.7 14.7 11.9-11.3-6.1-15.7 7.6 19.3 24-11.6-11.7-2.3 0.2 9 8.5-26.2 14.9-30.1-26.4-3.4 1.5 17.4 16.1-55.1-7.3z"/>
					<path id="&lt;Path&gt;" class="s1" d="m739.2 255.7l11.6 7.9-8.8-4-2.8-0.5 15.7 17.6-15.7 2.8-22.6-15.5-2.1 0.2 3.5 2.6-5.9-3.7-4.1 0.4 13.6 13-22.3 0.7-10.5-8.4 45.8-12.8z"/>
					<path id="&lt;Path&gt;" class="s2" d="m515.4 225l27.5 42.6-27.5 15.6-14-40.3 8.9 43.2-4.4 2.6-14.6-42.5z"/>
					<path id="&lt;Path&gt;" class="s1" d="m554.2 188.3l1.8 7.5 25 32.7-16.1-18.6-13.7 13.4-8.3-16.5 11.2 35.6-2.9 0.7-6.3-8.6-11.1-25.5z"/>
					<path id="&lt;Path&gt;" class="s2" d="m268.6 228.8l25.3 33.6-11.6-11.7-13.7-12.7 11.4 12.9 9 8.5-12.9 7.3-22.1-27.3 19 29.1-5.1 2.9-22.5-33.8z"/>
					<path id="&lt;Path&gt;" class="s1" d="m840.3 284.9l31.4-18.1 44.1 32.1-41.1-31.9 75.6-38.5 19.3 8.7-4.8 10.5-18.9-7.3h-1.9l31.5 18.5-35.9 16-27.9-19.2h-2.8l39.7 33.5-31.9-23.7-16.8-3.1 70.2 53.4-65.2 7.6-49.4-32.6 28.4 22z"/>
					<path id="&lt;Path&gt;" class="s1" d="m871.7 266.8l44.1 32.1 22.4 19.3-10.8 0.9-55.7-44.8-3.5 1.7 42 32.9-21 4.2-42.8-31.7z"/>
					<path id="&lt;Path&gt;" class="s1" d="m950.3 228.5l19.3 8.7-2.5 5.6-19.1-11.2-0.9 0.9 18.3 14-0.6 1.2-28.8-11.9z"/>
					<path id="&lt;Path&gt;" class="s1" d="m933.5 237.1l32.3 26.1-16.2 7.2-28.3-22.7h-2.3l25.1 25.2-4.5 2-33.6-23.8z"/>
				</g>
			</g>
		</g>
	</g>
</svg>