<svg version="1.2" xmlns="http://www.w3.org/2000/svg" viewBox="0 0 1000 400" width="1000" height="400">
	<title>2107</title>
	<defs>
		<clipPath clipPathUnits="userSpaceOnUse" id="cp1">
			<path d="m1000 400h-1000v-400h1000z"/>
		</clipPath>
		<linearGradient id="g1" x2="1" gradientUnits="userSpaceOnUse" gradientTransform="matrix(0,-190.372,1007.333,0,516.655,372.375)">
			<stop offset=".006" stop-color="#86c4ff"/>
			<stop offset="1" stop-color="#4c40dd"/>
		</linearGradient>
	</defs>
	<style>
		.s0 { fill: url(#g1) } 
		.s1 { opacity: .5;fill: #ffffff } 
		.s2 { mix-blend-mode: soft-light;fill: #ffffff } 
		.s3 { fill: #4f8df4 } 
		.s4 { fill: #7aa9f7 } 
		.s5 { opacity: .2;fill: #223995 } 
	</style>
	<g id="_Artboards_">
	</g>
	<g id="layer1">
		<g id="&lt;Group&gt;">
			<g id="&lt;Clip Group&gt;" clip-path="url(#cp1)">
				<g id="&lt;Group&gt;">
					<path id="&lt;Path&gt;" class="s0" d="m901.6 237.6l-139.6 62.4h-5.1l-116.7-25.1h-4.1l-49.1-24.8-58.6 27.2-2.6 0.3-30.5 17.3-2.1-0.6-65.6-62.5-2 0.2-49-50h-5l-40.7 51-4.2 3.2-30.4 38.7-67-8.8-1.8-1.9-132.4-34.6-3.6 1.2-36 45.6-33.1 11.8-27.4-31.7v99.7l1007.3 16.2v-68.6l-86.5-48.7-4.1-2.3z"/>
					<path id="&lt;Path&gt;" class="s1" d="m427.6 231.8l4.8 5.9 20.6 41.3-24.4-19.2-6.7-2.7-1.1 2.6 3.2 9-5.1-9 6.7-27.7z"/>
					<path id="&lt;Compound Path&gt;" fill-rule="evenodd" class="s2" d="m289 301.3l31.3-42.8 2.1-6-20.8 21.8-5.3 0.6 30.4-38.7 6.9 2.1-2.7-5.3 40.7-51h5l13.4 11.4-11.5-8.7-1.9-0.5-5.4 7.6 9.4 26.8-3.9-13.9 9.2 25.8-7.6-10.3-7.1 49.5 25.4 35.4zm86.4-13h3.3l-4.6-3.3-1.9-0.8zm-37.3-4.8l-2.3-1 2.3 16.4h6.4zm38.2-65.4l-7-27-2.1-1.3 2.4 26.3zm-6.2 53.7l-6.4-1.8 12.5 15.1 4.7 2.3z"/>
					<path id="&lt;Path&gt;" class="s2" d="m388.2 234.4l4 2.8 17.4 36-19.7-34z"/>
					<path id="&lt;Path&gt;" class="s2" d="m486.1 308.3l-33.1-29.3 22.1 22.7-5.5-1.7 4.5 7.9z"/>
					<path id="&lt;Compound Path&gt;" fill-rule="evenodd" class="s2" d="m587 250.1l-3.3 8 35.3 29.3-18.9-11.3-5.7-0.1 3.1 3.3-23.3 11.5 18.3 21.3-47.8-1.7-16.3-33.1zm11 28.9l5 6.3-5.6-6zm-2.8-5.1h3.3l-6.1-6.8-4.5-1.4zm-19.9 24.4l1.8-0.7-2.7-3.2-0.9 1.6zm-1.7-9.8h2.4l-9.4-9.9-3.9-2.1z"/>
					<path id="&lt;Path&gt;" class="s2" d="m525.8 277.6l15.8 32.7-37.7-2-8.6-13.4 13.2-7.5 9.9 17.7-6.3-19.8z"/>
					<path id="&lt;Path&gt;" class="s2" d="m636.1 274.9l68.7 41.3 9.7 0.3-74.3-41.6z"/>
					<path id="&lt;Compound Path&gt;" fill-rule="evenodd" class="s2" d="m901.6 237.6l6.3 33.6-18.7-12.7-3 1.6 41.2 55.4-8.1-0.6-48.8-59.4-13.3 4.6 37 62.8-67.7-2.4-30.9-26.8-5.2 0.7 22.1 25.6-31.3-1.1-19.2-18.9zm-79.4 72.8l-7.4-16-10.2-9.4-2.3 1.4z"/>
					<path id="&lt;Path&gt;" class="s2" d="m229.3 266.1l23 21.3-15.1-17.2 3.6 0.5 29.6 23 25.9-18.8z"/>
					<path id="&lt;Path&gt;" class="s2" d="m146.1 242.9l34.6 34.7-34.6-25.1-31-8 50.9 52.7-33.6-1.5-23.9-37.2 19.3 37-9.4-0.3-35.8-47.7-3.2 1.9 25 45-48.9-18 36-45.6 3.6-1.2z"/>
					<path id="&lt;Path&gt;" class="s2" d="m208 298.4l-27.3-20.8 21.2 20.6z"/>
					<path id="&lt;Path&gt;" class="s2" d="m175.8 258.5l4.9 1.6 17.2 19.8z"/>
					<path id="&lt;Path&gt;" class="s3" d="m855.5 321.7l-6-5.2-16.1 1.7-1.6 2.1-1.8-0.2-3.2-1.8-7.8 1.3-5.3 0.5-8.5-1-1.4-1.4-2.8-0.6-6.3 2-1.9-0.6-7.1 0.5z"/>
					<path id="&lt;Path&gt;" class="s3" d="m673.4 315l-6.1-2.9h-9.8l-30.7 1.5z"/>
					<path id="&lt;Path&gt;" class="s2" d="m367 189.7l-29.6 36.9 22.4-27.9 0.4 1.8-14.7 23.8 18.1 45.7 6.3 1.8 1.3-2.1 3.4-19.3-7.6-24.7 8 13.2 3-17.3-9.4-6.3z"/>
					<path id="&lt;Path&gt;" class="s2" d="m326.7 236.2l6.9 2.1 14.8 43.3-15.9-30.5-1.7 0.2 24 49.5h-9.4z"/>
					<path id="&lt;Path&gt;" class="s2" d="m428.6 259.8l23.6 18.5-13.7-21.8-11.3-20.3 5.2 1.5-4.8-5.9-2 0.2-5.3 24 1.6 1.1z"/>
					<path id="&lt;Path&gt;" class="s2" d="m320.3 258.5l18.6 41.9-14.4-0.3-11.3-26.9-2-0.5 11.7 27.4-17-0.4-1-20.2z"/>
					<path id="&lt;Path&gt;" class="s2" d="m598.1 279l-10.2-13.4 4.5 1.5 7.7 9 6 0.3 2.4 0.6-24.8-18.9 3.3-8-28.1 13 7.8 15.5-10.1-14.4-7.3 3.4 27.9 38.4 10.7 0.3-13.7-15.5 17.1-8.5-15.2-16.7 16.4 16.2z"/>
					<path id="&lt;Path&gt;" class="s2" d="m550.9 275.9l-22.5 1.4 13.2 27.8 18.7 0.5-12.3-28.9 0.3 3.3 15.7 25.6h6.6z"/>
					<path id="&lt;Path&gt;" class="s2" d="m804.8 280.9l-0.2 4.1 10.2 9.4 8.1 17.2 8.9 0.4-13.6-33.1 16.3 33.1h7.4l-19.7-35.4 45.3 36.2h11.9l-57.2-39.7z"/>
					<path id="&lt;Path&gt;" class="s2" d="m788 288.4l2.4 6 14.6 16.8-23.1-0.4-6-15.3 5 15.3-8.1-0.2-10.8-10.6z"/>
					<path id="&lt;Path&gt;" class="s2" d="m166 297.2l-63.6-65.7-7.3-1.9-3.6 1.2-10.8 13.7 37.7 50.7 3.6 0.3-27.1-47.5 11.8 12.4 17.5 35 3.6 0.1-17.8-37 22.4 37.2 25.2 1.5-45.4-53.3 50.2 52.4z"/>
					<path id="&lt;Path&gt;" class="s3" d="m1002.3 317.1l-1007.3-26.3v91.4h1007.3z"/>
					<path id="&lt;Path&gt;" class="s4" d="m901.9 313.6l-906.9-22.8 906.9 32.4z"/>
					<path id="&lt;Path&gt;" class="s5" d="m431.4 302.6l-21.8-29.4 25.8 29.5z"/>
					<path id="&lt;Path&gt;" class="s5" d="m619 287.4l20.3 20.1-3.2-0.1z"/>
					<path id="&lt;Path&gt;" class="s2" d="m636.1 280.3l-4.7 9.9 8.1 13.8-5.1-11.8 5.7 7.9-2.3-18z"/>
					<path id="&lt;Path&gt;" class="s2" d="m404.9 276.3l-7.3 14.3 7.3-3.2z"/>
					<path id="&lt;Path&gt;" class="s2" d="m191.6 267.9l18.4 22.6 40.4 6.4-38-7.1 38 4.8-3.2-6.3z"/>
					<path id="&lt;Path&gt;" class="s2" d="m925.8 300.4h35.9l37.6 16.7-21-0.4-32.4-14-3.4-0.2 16.6 13.3-22.3-1.2z"/>
					<path id="&lt;Path&gt;" class="s2" d="m901.6 237.6l6.3 33.6-6.3-4.3-14.6-22.7-3 1.3 5.2 13-3 1.6 41.2 55.4-51.7-66.1z"/>
					<path id="&lt;Path&gt;" class="s2" d="m78.3 247.5l25.6 46h-1.9l-24.6-38.5-0.8 1 19.1 35.2-12.4-4.6-15.4-26z"/>
					<path id="&lt;Path&gt;" class="s2" d="m65.8 263.4l12 21.2-1.3-0.5-13.3-17.4z"/>
					<path id="&lt;Path&gt;" class="s2" d="m51.2 277.9l19.6 15.8-17.6-0.8-12.5-10.5-3.5 0.5 9.2 9.3-9.2 0.1-7.7-6.5z"/>
				</g>
			</g>
		</g>
	</g>
</svg>