<svg version="1.2" xmlns="http://www.w3.org/2000/svg" viewBox="0 0 1000 400" width="1000" height="400">
	<title>2107</title>
	<defs>
		<clipPath clipPathUnits="userSpaceOnUse" id="cp1">
			<path d="m1000 400h-1000v-400h1000z"/>
		</clipPath>
		<radialGradient id="g1" cx="0" cy="0" r="1" gradientUnits="userSpaceOnUse" gradientTransform="matrix(6.356,-39.206,39.206,6.356,859.93,108.885)">
			<stop offset="0" stop-color="#00a9ff"/>
			<stop offset="1" stop-color="#000000"/>
		</radialGradient>
		<radialGradient id="g2" cx="0" cy="0" r="1" gradientUnits="userSpaceOnUse" gradientTransform="matrix(48.159,-34.722,34.722,48.159,833.694,107.63)">
			<stop offset=".006" stop-color="#4fb1ff"/>
			<stop offset="1" stop-color="#001652"/>
		</radialGradient>
		<linearGradient id="g3" x2="1" gradientUnits="userSpaceOnUse" gradientTransform="matrix(0,-72.531,62.559,0,826.006,145.222)">
			<stop offset="0" stop-color="#e8ddff"/>
			<stop offset="1" stop-color="#aa8ad8"/>
		</linearGradient>
		<linearGradient id="g4" x2="1" gradientUnits="userSpaceOnUse" gradientTransform="matrix(-5.627,-7.804,5.331,-3.844,835.165,116.367)">
			<stop offset="0" stop-color="#e8ddff"/>
			<stop offset="1" stop-color="#aa8ad8"/>
		</linearGradient>
		<linearGradient id="g5" x2="1" gradientUnits="userSpaceOnUse" gradientTransform="matrix(-0.819,-1.135,1.092,-0.787,840.854,115.696)">
			<stop offset="0" stop-color="#e8ddff"/>
			<stop offset="1" stop-color="#aa8ad8"/>
		</linearGradient>
		<linearGradient id="g6" x2="1" gradientUnits="userSpaceOnUse" gradientTransform="matrix(-18.461,-25.605,20.453,-14.746,847.386,126.459)">
			<stop offset="0" stop-color="#e8ddff"/>
			<stop offset="1" stop-color="#aa8ad8"/>
		</linearGradient>
		<linearGradient id="g7" x2="1" gradientUnits="userSpaceOnUse" gradientTransform="matrix(-17.79,-24.674,21.505,-15.505,880.308,131.113)">
			<stop offset="0" stop-color="#e8ddff"/>
			<stop offset="1" stop-color="#aa8ad8"/>
		</linearGradient>
		<radialGradient id="g8" cx="0" cy="0" r="1" gradientUnits="userSpaceOnUse" gradientTransform="matrix(19.218,-13.856,13.856,19.218,829.466,105.04)">
			<stop offset="0" stop-color="#a9faff"/>
			<stop offset="1" stop-color="#70b7f8"/>
		</radialGradient>
	</defs>
	<style>
		.s0 { mix-blend-mode: screen;fill: url(#g1) } 
		.s1 { opacity: .3;mix-blend-mode: multiply;fill: url(#g2) } 
		.s2 { opacity: .3;mix-blend-mode: multiply;fill: url(#g3) } 
		.s3 { opacity: .3;mix-blend-mode: multiply;fill: url(#g4) } 
		.s4 { opacity: .3;mix-blend-mode: multiply;fill: url(#g5) } 
		.s5 { opacity: .3;mix-blend-mode: multiply;fill: url(#g6) } 
		.s6 { opacity: .3;mix-blend-mode: multiply;fill: url(#g7) } 
		.s7 { fill: url(#g8) } 
	</style>
	<g id="_Artboards_">
	</g>
	<g id="layer1">
		<g id="&lt;Group&gt;">
			<g id="&lt;Clip Group&gt;" clip-path="url(#cp1)">
				<g id="&lt;Group&gt;">
					<g id="&lt;Group&gt;">
					</g>
					<g id="&lt;Group&gt;">
						<path id="&lt;Path&gt;" class="s0" d="m866.3 69.7c21.5 3.5 36 23.8 32.5 45.5-3.5 21.6-23.8 36.4-45.2 32.9-21.5-3.5-36.1-23.9-32.5-45.5 3.5-21.7 23.7-36.4 45.2-32.9z"/>
					</g>
					<path id="&lt;Path&gt;" class="s1" d="m892.4 86.7q0.3 0.4 0.6 0.9c2.1 3.1 3.6 6.3 4.7 9.7 2.9 9.6 1.9 20-2.9 28.7-2.5 4.7-6.2 8.9-10.8 12.2-4.9 3.6-10.4 5.8-16 6.6-8.7 1.3-17.6-0.5-25.1-5.1q-1-0.6-1.9-1.3c-3.2-2.3-6.2-5.1-8.6-8.5-11.2-15.6-8.6-37 5.5-49.4q1.1-0.9 2.2-1.8 0 0 0 0 0.3-0.2 0.7-0.4 3.3-2.4 7-4 2.3-1 4.7-1.7c7.8-2.1 16.2-1.6 23.6 1.4 6.3 2.5 12 6.7 16.3 12.7z"/>
					<path id="&lt;Compound Path&gt;" fill-rule="evenodd" class="s2" d="m892.4 86.7q0.3 0.4 0.6 0.9c-0.5 0.1-1.1-0.1-1.4-0.2-0.8-0.3-1.5-0.6-2.4-0.7-0.9-0.1-1.9-0.1-2.7 0.1-0.5 0.2-1.6 0.4-2 0.9-0.1 0.3 0 0.5-0.1 0.7-0.1 0.2-0.3 0.4-0.4 0.6-0.2 0.5 0 1.5 0.1 2 0.2 0.5 0.5 1 0.7 1.5 0.1 0.4 0.2 0.8 0.4 1.2q0.2 0.5 0.4 0.9c0.2 0.5 0.1 0.8 0.2 1.3 0 1-0.2 2.2-0.5 3.2-0.1 0.7-0.2 1.5 0.1 2.1 0.1 0.3 0.2 0.4 0.3 0.7 0 0.2 0 0.6 0 0.8 0 0.5 0 1.5 0.7 1.4 0.3 0 0.6-0.3 0.9-0.4 0.2-0.2 0.5-0.2 0.7-0.4 0.5-0.5 0.8-0.9 1.3-1.3 0.3-0.2 0.6-0.3 1-0.5 0.4-0.2 0.5-0.6 0.8-0.8 0.7-0.4 0.9 0.7 1.4 0.9 0.5 0.3 1-0.2 1.4-0.6 0.2-0.3 0.4-0.5 0.7-0.7 0.3-0.3 0.7-0.3 1-0.5 0.5-0.3 1.3-1.9 2.1-2.5 2.9 9.6 1.9 20-2.9 28.7-0.6-0.4-1.5-0.6-2.1-0.2-0.6 0.3-1 1-1.7 1-0.6 0-1.2-0.2-1.9 0.1-0.9 0.5-2 1.4-2.7 2.2-0.3 0.3-0.7 0.5-1 0.8-0.5 0.5-0.8 1.2-1.3 1.8-1.1 1.2-2.2 2.5-3.7 3.1-1.1 0.5-2.1 0.8-3.1 1.5-0.9 0.7-1.7 1.6-2.7 2.3-0.8 0.5-1.5 1.1-2.2 1.8-0.7 0.8-1.5 1.4-2.4 2.1-0.7 0.4-1.2 0.8-1.6 1.6q-0.2 0.3-0.4 0.7c-8.7 1.3-17.6-0.5-25.1-5.1q0-0.1 0-0.1c0.8 0.6 1.2 0.7 2.1 0.8 0.5 0 0.8-0.1 1.3-0.1 0.9-0.1 1.8 0.4 2.4 0.9 0.2 0.2 0.5 0.3 0.7 0.6 0.2 0.2 0.1 0.3 0.4 0.4 0.2 0 0.6-0.1 0.8-0.2q0.7 0 1.3 0.1c0.6 0.1 0.9 0.2 1.5 0.2 0.3-0.1 0.6 0 0.9 0 0.4 0 0.8-0.1 1.2 0 0.5 0.1 0.9 0.4 1.4 0.6 1.6 0.5 3.4-0.6 4.9-1 0.6-0.1 1.2-0.2 1.8-0.4 0.6-0.2 1.2-0.2 1.6-0.6q1.4-0.9 2.7-1.9c0.6-0.4 1-0.5 1.5-0.8 0.8-0.4 1.5-1 2.1-1.7 0.7-0.9 1.5-1.7 2.1-2.7 0.5-0.7 0.7-1.5 1.1-2.3 0.7-1.3 1.6-2.4 2.4-3.6 1-1.5 2.1-2.6 2.5-4.4 0.2-1.3-0.6-2.5-0.2-3.7 0.3-0.7 0.6-1.4 0.9-2.2 0.2-0.5 0.5-1 0.6-1.5 0.1-0.6 0.4-1.3 0.4-1.9 0-0.2-0.1-0.9-0.2-1-0.1-0.3-0.1-0.2-0.4-0.4-0.7-0.4-1.3-0.9-2-1.5-1.3-1.1-2.3-2.7-3.3-4.2-1.2-1.6-2.8-3.1-4.3-4.4-0.8-0.7-1.3-1.2-2.3-1.4-1-0.2-1.9-0.5-2.9-0.1-0.5 0.2-0.9 0.8-1.5 0.8-0.6 0.1-1.1 0.1-1.7 0.4-0.9 0.3-1.8 0.9-2.5 1.4-0.7 0.5-1.7 0.9-2 1.7-0.2 0.6 0 1.2-0.2 1.8-0.2 0.5-0.5 0.7-0.5 1.3 0 2.1 1.7 2.5 3.3 2.9 0.4 0.1 1.1 0.7 1.5 0.6 0.6-0.2 0.5-0.9 0.4-1.4-0.1-0.8-0.2-0.9-1-1.1-0.4-0.1-1.4-0.2-1.3-0.8 0-0.3 0.3-0.4 0.5-0.5 0.2-0.2 0.3-0.4 0.4-0.6q0.7-0.7 1.5-0.4c0.6 0.2 0.8 0.7 1.2 0.9 0.5 0.2 1.1-0.1 1.5-0.4 0.8-0.5 1.8-1.3 2.7-0.6 0.8 0.8 1.4 2 2 2.9 0.3 0.4 0.5 0.9 0.5 1.4-0.1 0.3-0.3 0.5-0.4 0.8-0.3 0.6-0.5 1.4-0.7 2.1-0.3 0.7-0.3 1.5-0.4 2.2-0.1 1-0.4 1.8-0.8 2.7-0.4 1.3-1.2 3.1-2.9 2.3-0.6-0.3-1.1-0.6-1.7-0.9-0.8-0.5-1.7-0.4-2.5-0.6-0.8-0.2-1.5-0.1-2.2-0.3-0.9-0.3-1.8-0.4-2.6-0.9-0.6-0.4-1.3-1-1.9-1.4q-0.6-0.6-1.2-1.2c-0.3-0.4-0.8-0.7-1.3-1.1-0.4-0.4-0.6-0.9-1.2-1.1-0.9-0.5-1.7 0.1-2.6 0.3-1.4 0.2-2.5-0.5-3.7-1.2-1-0.5-2.1-2-2-3.1 0.1-0.7 0.5-1.4 0.8-2 0.1-0.4 0.3-0.7 0.7-0.8 0.4-0.2 1 0.1 1.3-0.1 0.6-0.2 0.4-0.9 0.4-1.3 0-0.7-0.1-1.4 0.2-2 0.4-1.3-0.9-2.6-2.1-3.1-1-0.5-2.2-0.6-3.2-1.2-0.6-0.3-0.7-0.9-0.9-1.5-0.2-0.6 0-1.3-0.3-1.9-0.3-0.7-1.3-1.1-2-1.5-0.7-0.5-1-0.9-0.5-1.8 0.7-1.4 2-2.9 3.2-3.8 0.6-0.5 1.1-0.6 1.8-0.6 0.2 0 0.5 0.1 0.8 0 0.4 0 0.8-0.3 1.2-0.4 0.6-0.2 1.3-0.3 2-0.5 0.9-0.4 1.7-1.1 2.6-1.5 0.3-0.1 0.7-0.3 1.1-0.3 0.3 0 0.3 0.1 0.6 0.2 0.8 0.5 1.6 0 2.2-0.5 0.4-0.4 0.6-0.8 1.1-1.1 0.6-0.4 1.3-0.4 2-0.6 0.7-0.2 1.7-0.2 2.2-0.8 0.7-0.8 0.7-2.1 0.9-3.1 0.2-0.9 0.2-1.8 0.2-2.7 0.1-1.4-1.2-1.7-2.3-2.1-0.6-0.3-0.5-0.5-0.1-1 0.2-0.4 0.4-0.9 0.8-1.1 0.7-0.4 1.6-0.3 2.3-0.2 0.4 0 0.7 0 1 0.2 0.5 0.2 0.8 0.3 1.3 0.5 2.1 0.7 4.3 1.8 6.5 1.7 0.9-0.1 1.7-0.3 2.5-0.4 0.7 0 1.5-0.1 2.2-0.3 0.3-0.1 0.7-0.3 1.2-0.4 0.5-0.1 1-0.2 1.6-0.2q0.1 0 0.2 0.1c6.3 2.5 12 6.7 16.3 12.7zm-22.3 11.5c-0.3-0.4-0.5-0.8-0.9-0.9-0.7-0.2-1.4 0-2 0.1-0.4 0.1-0.7 0.3-0.6 0.8 0 0.7 0.7 0.8 1.3 1h-0.5c0.4 0.3 0.8 0.5 1.3 0.5 0.5 0.1 1.1 0.3 1.5 0.1 0.2-0.1 0.6-0.5 0.5-0.8-0.1-0.3-0.5-0.6-0.6-0.8zm-6-21.7c-0.4-0.3-0.7-0.3-1.2-0.5-0.7-0.2-1.4-0.7-2.1-0.9q-0.4-0.2-0.8-0.2c-0.3-0.1-0.6-0.3-0.8-0.2-0.3 0-0.4 0.1-0.5 0.3-0.1 0.4 0.2 0.5 0.4 0.8 0.2 0.3 0.3 0.8 0.4 1.1 0.2 0.5 0.2 1 0.4 1.4 0 0.2 0.1 0.5 0.2 0.6 0.2 0.3 0.5 0.4 0.7 0.6-1 0.3 0 0.5 0.4 0.5 0.8 0.1 1.7 0.2 2.4-0.3 0.3-0.2 0.7-0.6 0.8-0.9 0.3-0.4 0.4-0.9 0.4-1.3-0.1-0.4-0.4-0.8-0.7-1zm22.2 6.4c-0.2-0.3-0.5-0.7-0.8-1.1-0.3-0.4-0.7-0.5-1.1-0.7-0.3-0.1-0.7-0.1-0.9-0.3q-0.3-0.3-0.7-0.5c-0.4-0.3-0.7-0.7-1.2-1-0.5-0.4-1.3-0.6-2-0.7-0.7-0.1-1.5-0.1-2.2 0.1-0.6 0.2-1.1 0.7-1.5 1.1-0.5 0.7-0.5 1.8-0.2 2.5 0.4 1.2 1.6 2.1 2.6 2.9 0.6 0.4 1.2 0.8 1.8 1.3 0.4 0.4 0.8 0.8 1.3 1.1-0.5 0.3-0.1 0.2 0.4 0.2 0.4 0 0.7 0 1.1-0.2 1-0.4 2.2-0.9 2.9-1.6 0.5-0.4 1.2-1.2 1.1-1.9 0-0.5-0.3-0.8-0.6-1.2z"/>
					<path id="&lt;Path&gt;" class="s3" d="m841.5 110.2c0 0.3 0.2 1.1 0 1.5-0.2 0.4-0.9 0.3-1.3 0.4-0.3 0-0.6 0-0.9 0.1-0.3 0.1-0.5 0.3-0.8 0.3-0.2 0-0.5 0.1-0.7 0-0.2 0-0.4-0.2-0.6-0.3-0.4-0.3-0.8-0.8-1.2-1.2-0.3-0.2-0.4-0.5-0.5-0.8-0.1-0.4-0.3-0.8-0.5-1.3-0.2-0.6-0.4-1.3-0.5-1.9 0-0.6 0.1-1.1 0.5-1.6 0.1-0.2 0.3-0.4 0.4-0.6 0.1-0.3 0.3-0.5 0.5-0.8 0.1-0.1 0.3-0.2 0.4-0.3 0.2-0.1 0.4-0.1 0.6-0.1 0.3 0 0.4-0.1 0.7 0q0.3 0.1 0.6 0.3c0.4 0.3 0.9 0.6 1.2 0.9 0.5 0.4 0.8 0.8 1 1.5 0.1 0.5 0.3 1 0.6 1.6 0.2 0.4 0.5 1 0.5 1.5 0 0.4-0.1 0.7 0 0.8z"/>
					<path id="&lt;Path&gt;" class="s4" d="m840.5 114.3q-0.1 0.3 0 0.6c0.4 0 0.7 0.5 1 0.3 0.1-0.3 0.3-0.8-0.1-1-0.1 0-0.2 0-0.3 0-0.1 0-0.1-0.1-0.2-0.1-0.2 0-0.6 0.4-0.8 0.5z"/>
					<path id="&lt;Path&gt;" class="s5" d="m848.4 112.2c0.3 0.1 0.5 0.2 0.8 0.2 0.3 0.1 0.6 0.1 0.9 0.1 0.5 0 1.1 0 1.5 0.1 0.5 0.1 0.6 0.4 0.9 0.8 0.2 0.2 0.4 0.3 0.6 0.5 0.1 0.1 0.2 0.2 0.3 0.3 0.1 0.1 0.2 0.3 0.3 0.4 0.3 0.2 0.6 0.3 0.9 0.5 0.2 0.2 0.4 0.4 0.7 0.5 0.2 0.1 0.4 0 0.6 0 0.3 0 0.5 0.1 0.8 0.2 0.9 0.3 1.5 1 2.3 1.4 0.8 0.3 1.6-0.6 2.2-0.9 0.1 0 0.3 0 0.4-0.1 0.1 0 0.1-0.2 0.2-0.3 0.1-0.2 0.3-0.3 0.5-0.4 0.1-0.1 0.1 0 0.2-0.1 0.1-0.1 0.1-0.4 0.1-0.5 0-0.4-0.2-0.6-0.5-0.8q-0.4-0.3-0.9-0.7c-0.2-0.2-0.5-0.3-0.8-0.6-0.2-0.2-0.4-0.5-0.6-0.8-0.6-0.5-1.2-0.6-2-0.7-0.7-0.1-1.6 0-2-0.7-0.2-0.2-0.1-0.3-0.1-0.6 0-0.3-0.1-0.7-0.1-1 0.1-0.1 0.3-0.4 0.4-0.5 0.1-0.2 0.3-0.5 0.5-0.7 0.1-0.3 0-0.5 0-0.7 0-0.2 0.1-0.2 0.1-0.3 0.1-0.2 0.1-0.3 0.2-0.5 0-0.3 0-0.6-0.1-1 0-0.3-0.1-0.5 0-0.8 0-0.4 0.1-0.8 0.2-1.1 0.1-0.3 0.3-0.7 0.6-1 0.1-0.1 0.3-0.2 0.4-0.3 0.5-0.3 0.7-0.8 1-1.3 0.4-0.7 0.7-2 1.8-1.8 0.3 0.1 0.5 0.4 0.8 0.4 0.7 0 1-0.6 1.3-1.2 0.6-0.8 0.8-1.8 1-2.8 0.1-0.6 0.2-1.1-0.1-1.7-0.7-1.1-2.1-1.2-3-2.1-0.8-0.8-1.1-2.2-1.7-3.2-0.2-0.6-0.7-1.2-1.3-1.4-0.2-0.1-0.5-0.1-0.7-0.1-0.5 0-0.7 0.3-1.1 0.5-0.2 0.1-0.4 0.1-0.7 0.1-0.7-0.1-1.4 0.7-2 1.1-0.8 0.6-1.7 1.1-2.7 1.2-1.1 0.1-2.3 0.2-3.5 0.2-0.8 0-1.7 0-2.5 0.1-0.6 0.1-1.2 0.4-1.7 0.7-0.7 0.5-1.2 1.1-1.2 2-0.1 0.8 0.3 0.9 0.9 1.3 0.2 0.2 0.6 0.4 0.7 0.7 0 0.4-0.6 0.7-0.9 0.9-0.2 0.2-0.8 0.5-0.7 0.9 0 0.3 0.5 0.7 0.6 0.9 0.2 0.2 0.3 0.6 0.6 0.6 0.2 0.1 0.4-0.1 0.6-0.1 0.4 0 0.6 0.2 1 0.3 0.2 0.1 0.5 0.1 0.8 0.1 0.3 0 0.6 0.2 0.9 0.1 0.6-0.1 0.9-0.5 1.5-0.4 0.2 0.1 0.4 0.2 0.6 0.1 0.2 0 0.4-0.1 0.5-0.1 0.4-0.1 1-0.2 1.3 0.1 0.4 0.4 0 1-0.2 1.3-0.2 0.3-0.6 0.6-0.5 1 0.1 0.3 0.5 0.4 0.5 0.8 0 1.2-1.6 1.3-2.3 1.9-1.1 0.8-1 2.2-1 3.5 0 0.1 0 0.2 0 0.3 0 0.2 0.1 0.3 0.1 0.5 0.1 0.2-0.1 0.5-0.2 0.7-0.1 0.3-0.2 0.5-0.5 0.7-0.3 0.2-0.6 0.4-0.9 0.6-0.5 0.5-0.2 1.3 0.3 1.7 0.3 0.3 0.9 0.2 1.3 0.4 0.3 0.2 0.6 0.4 0.9 0.5 0.2 0 0.4 0 0.6 0 0.3 0.1 0.5 0.3 0.3 0.1z"/>
					<path id="&lt;Path&gt;" class="s6" d="m872.1 100.2c0.2 0.3 0.3 0.6 0.5 0.8 0.2 0.3 0.4 0.5 0.6 0.7 0.5 0.7 0.9 1.4 1.4 2.1 0.2 0.4 0.6 0.6 0.9 0.9 0.5 0.5 0.6 1.1 1 1.5 0.5 0.7 1 1.4 1.8 1.6 0.3 0.1 0.6 0.1 0.9-0.1 0.3-0.1 0.4-0.4 0.7-0.6 0.2-0.2 0.4-0.1 0.7-0.2q0.5-0.1 1-0.2c0.4-0.1 0.6-0.1 0.9 0 0.3 0 0.5-0.1 0.8 0.1 0.2 0.2 0.1 0.6 0 0.9 0 0.6 0 1.1-0.3 1.6-0.2 0.3-0.3 0.4-0.7 0.5-0.3 0.2-0.6 0.2-0.8 0.6-0.1 0.5-0.2 1-0.2 1.5 0 0.1 0.1 0.3 0.1 0.4 0.1 0.2 0.1 0 0.2 0.1 0.3 0.1 0.4 0.1 0.6 0.3 0.2 0.3 0.3 0.8 0.4 1.2q0 0.4-0.1 0.7c0 0.3 0 0.6-0.1 0.9-0.3 0.5-0.3 1.1-0.5 1.6-0.4 0.7-0.6 1.3-0.8 2-0.4 1.5-1.1 2.7-0.9 4.3 0 0.3 0.3 1 0.7 1.2 0.1 0 0.4 0 0.6 0.1 0.3 0 0.5 0.2 0.7 0.4 0.3 0.2 0.8 0.5 1.1 0.5 0.4 0 0.9-0.2 1.2-0.4 0.2-0.1 0.3-0.2 0.5-0.3 0.1-0.1 0.3-0.1 0.4-0.2 0.5-0.4 0.9-0.7 1.6-0.7q0.3 0 0.6 0.1c0.3 0 0.6 0.2 0.8 0.3 0.5 0 1-0.7 1.2-1.1 0.3-0.5 0.6-1.1 1.2-1.4 0.4-0.2 0.8-0.1 1.1-0.2 0.5-0.1 0.9-0.2 1.5-0.3 0.2 0 0.3 0 0.5-0.1 0.6-0.4 0.9-1.1 1.2-1.8 0.4-0.7 0.6-1.5 1-2.2 0.4-0.9 0.5-1.5 0.7-2.4 0.1-0.8 0.5-1.5 0.7-2.3q0.2-0.9 0.5-1.8c0.2-0.6 0.2-1.2 0.3-1.8 0-0.5 0.1-1 0.1-1.5 0-0.5-0.1-1.1-0.1-1.6 0.1-0.6 0.1-1.1 0-1.7-0.1-0.6-0.3-1.6-1.1-1.5-0.5 0.1-1 0.7-1.5 1-0.7 0.5-1.5 0.4-2.3 0.2-0.6-0.1-1.2-0.4-1.9-0.5-0.3 0-0.8-0.2-1.1-0.1-0.2 0.1-0.5 0.3-0.7 0.5q-0.6 0.7-1.4 1.1c-0.5 0.2-1.2 0.5-1.7 0.4-0.4 0-0.7-0.2-1.1-0.3-0.5-0.2-0.8-0.8-0.9-1.3-0.3-1-0.9-2-1.1-3-0.1-0.6 0.6-1 0.9-1.5 0.2-0.4 0.1-0.9 0.2-1.3 0-0.4 0.2-0.8 0.4-1.2 0.3-1.2-0.2-2.3-1.6-2.6-0.7-0.2-1.5 0-2 0.6-0.2 0.3-0.4 0.6-0.6 0.9-0.2 0.4-0.3 0.8-0.7 1.1-1.2 1.3-3 1.3-4.7 1.5-0.7 0.1-1.6 0.3-2.2 0.6-0.4 0.2-0.5 0.3-0.7 0.7-0.2 0.3-0.3 0.4-0.5 0.7-0.2 0.3-0.2 0.6 0.1 0z"/>
					<path id="&lt;Path&gt;" class="s7" d="m847.8 74.3q0 0-0.1 0.1c-0.5 0.6-1.1 1.1-1.8 1.6-0.1 0.1-0.3 0.3-0.5 0.3-0.1 0.1-0.2 0-0.3 0.1q-0.5 0.2-0.9 0.4c-0.5 0.2-1 0.7-1.5 1-0.5 0.4-1.3 0.6-1.8 1-0.6 0.5-1 1.2-1.6 1.6l-0.4 0.3c-0.4 0.3-0.4 0.6-0.7 1.1 0.1 0.3 0.4 0.8 0.3 1.2-0.1 0.1-0.1 0.2-0.2 0.3-0.2 0.3-0.3 0.6-0.5 0.9-0.4 0.4-0.9 1-1.4 1.4-0.4 0.3-0.8 0.5-1.3 0.8-0.9 0.5-1.8 1-2.3 1.9q-0.5 0.8-0.9 1.6c-0.2 0.3-0.4 0.6-0.5 0.9-0.1 0.3-0.1 0.5-0.2 0.8-0.1 0.3-0.4 0.5-0.5 0.8-0.2 0.3-0.3 0.6-0.3 1 0 0.5 0.3 0.9 0.4 1.3 0 0.3-0.2 0.5-0.3 0.8-0.5 1.1-0.1 2.2-0.2 3.4-0.1 0.9-0.7 1.6-0.9 2.4-0.2 0.9-0.2 1.8-0.3 2.6 0 0.6-0.2 0.9-0.5 1.4-0.2 0.5-0.5 1.1-0.6 1.6 0 0.6-0.1 1.2-0.2 1.8-0.1 0.4-0.3 0.8-0.4 1.3 0 0.4 0.1 0.8 0.1 1.2 0.1 1 0.4 1.8 0.4 2.7 0.1 0.8-0.1 1.7 0.3 2.4 0.2 0.2 0.3 0.3 0.5 0.5 0.3 0.2 0.5 0.6 0.7 0.9 0.1 0.2 0.3 0.3 0.5 0.4 0.2 0.2 0.4 0.4 0.6 0.6 0.4 0.2 0.9 0.2 1.3 0.3 0.5 0.2 0.8 0.6 1 1.1q0.2 0.8 0.4 1.5c0.2 0.8 0 1.7 0.3 2.4 0.2 0.3 0.4 0.5 0.6 0.7 0.3 0.2 0.5 0.5 0.8 0.8q0.3 0.4 0.5 0.9c0.1 0.2 0.1 0.5 0.1 0.7 0 0.1-0.1 0.3-0.1 0.4 0 0.2 0.1 0.4 0.2 0.6 0 0.2 0.1 0.7 0 0.9-0.2 0.4-0.8-0.2-0.9 0.2 0 0.2 0.3 0.5 0.5 0.7 0.1 0.3 0.2 0.7 0.3 1 0.1 0.6 0 0.8 0.5 1.3 0.4 0.3 0.8 0.5 1.3 0.8 0.6 0.2 0.8 0.7 1.3 1.1 0.2 0.2 0.4 0.5 0.6 0.8 0.1 0.2 0.4 0.3 0.6 0.5 0.2 0.2 0.4 0.4 0.5 0.7 0 0.1-0.1 0.3-0.1 0.4 0 0.4 0.1 0.6 0.2 0.8 0.2 0.5 0.3 0.8 0.6 1.1-3.2-2.3-6.2-5.1-8.6-8.5-11.2-15.6-8.6-37 5.5-49.4q1.1-0.9 2.2-1.8 0 0 0 0 0.3-0.2 0.7-0.4 3.3-2.4 7-4z"/>
				</g>
			</g>
		</g>
	</g>
</svg>