<svg version="1.2" xmlns="http://www.w3.org/2000/svg" viewBox="0 0 1000 400" width="1000" height="400">
	<title>2107</title>
	<defs>
		<clipPath clipPathUnits="userSpaceOnUse" id="cp1">
			<path d="m1000 400h-1000v-400h1000z"/>
		</clipPath>
		<linearGradient id="g1" x2="1" gradientUnits="userSpaceOnUse" gradientTransform="matrix(0,-106.937,460.577,0,895.797,418.818)">
			<stop offset="0" stop-color="#009dba"/>
			<stop offset="1" stop-color="#000e77"/>
		</linearGradient>
		<linearGradient id="g2" x2="1" gradientUnits="userSpaceOnUse" gradientTransform="matrix(171.386,0,0,19.588,677.923,326.167)">
			<stop offset="0" stop-color="#6bebed"/>
			<stop offset="1" stop-color="#3994dd"/>
		</linearGradient>
		<radialGradient id="g3" cx="0" cy="0" r="1" gradientUnits="userSpaceOnUse" gradientTransform="matrix(130.998,0,0,130.998,955.781,332.638)">
			<stop offset="0" stop-color="#4caced"/>
			<stop offset="1" stop-color="#39a5dd"/>
		</radialGradient>
		<linearGradient id="g4" x2="1" gradientUnits="userSpaceOnUse" gradientTransform="matrix(0,-82.116,460.577,0,900.891,421.313)">
			<stop offset="0" stop-color="#097098"/>
			<stop offset="1" stop-color="#003194"/>
		</linearGradient>
		<linearGradient id="g5" x2="1" gradientUnits="userSpaceOnUse" gradientTransform="matrix(0,-38.432,66.73,0,784.288,405.049)">
			<stop offset="0" stop-color="#00b4ba"/>
			<stop offset="1" stop-color="#0031a2"/>
		</linearGradient>
		<linearGradient id="g6" x2="1" gradientUnits="userSpaceOnUse" gradientTransform="matrix(66.73,0,0,13.016,761.99,359.198)">
			<stop offset="0" stop-color="#4ccced"/>
			<stop offset="1" stop-color="#39bddd"/>
		</linearGradient>
		<linearGradient id="g7" x2="1" gradientUnits="userSpaceOnUse" gradientTransform="matrix(13.156,0,0,4.725,689.308,362.766)">
			<stop offset="0" stop-color="#4ccced"/>
			<stop offset="1" stop-color="#39bddd"/>
		</linearGradient>
		<linearGradient id="g8" x2="1" gradientUnits="userSpaceOnUse" gradientTransform="matrix(170.844,0,0,8.162,882.147,323.73)">
			<stop offset="0" stop-color="#0059a2"/>
			<stop offset="1" stop-color="#000e77"/>
		</linearGradient>
		<linearGradient id="g9" x2="1" gradientUnits="userSpaceOnUse" gradientTransform="matrix(291.002,0,0,29.222,761.989,325.184)">
			<stop offset="0" stop-color="#4ccced"/>
			<stop offset="1" stop-color="#39bddd"/>
		</linearGradient>
		<linearGradient id="g10" x2="1" gradientUnits="userSpaceOnUse" gradientTransform="matrix(65.64,0,0,7.372,1073.087,329.987)">
			<stop offset="0" stop-color="#0059a2"/>
			<stop offset="1" stop-color="#000e77"/>
		</linearGradient>
		<linearGradient id="g11" x2="1" gradientUnits="userSpaceOnUse" gradientTransform="matrix(144.293,0,0,11.839,994.207,356.305)">
			<stop offset="0" stop-color="#4ccced"/>
			<stop offset="1" stop-color="#39bddd"/>
		</linearGradient>
		<linearGradient id="g12" x2="1" gradientUnits="userSpaceOnUse" gradientTransform="matrix(0,-4.914,51.565,0,762.346,344.112)">
			<stop offset="0" stop-color="#4ccced"/>
			<stop offset="1" stop-color="#39bddd"/>
		</linearGradient>
		<linearGradient id="g13" x2="1" gradientUnits="userSpaceOnUse" gradientTransform="matrix(0,-20.861,63.225,0,953.342,366.617)">
			<stop offset="0" stop-color="#0059a2"/>
			<stop offset="1" stop-color="#000e77"/>
		</linearGradient>
		<linearGradient id="g14" x2="1" gradientUnits="userSpaceOnUse" gradientTransform="matrix(49.795,0,0,6.068,936.468,303.456)">
			<stop offset="0" stop-color="#4ccced"/>
			<stop offset="1" stop-color="#39bddd"/>
		</linearGradient>
		<linearGradient id="g15" x2="1" gradientUnits="userSpaceOnUse" gradientTransform="matrix(0,-30.219,29.92,0,851.819,284.597)">
			<stop offset="0" stop-color="#4c51dd"/>
			<stop offset=".994" stop-color="#57cfff"/>
		</linearGradient>
		<linearGradient id="g16" x2="1" gradientUnits="userSpaceOnUse" gradientTransform="matrix(0,-27.054,29.9,0,854.83,284.597)">
			<stop offset="0" stop-color="#3e47be"/>
			<stop offset="1" stop-color="#239aba"/>
		</linearGradient>
	</defs>
	<style>
		.s0 { fill: #ffffff } 
		.s1 { fill: url(#g1) } 
		.s2 { fill: url(#g2) } 
		.s3 { fill: url(#g3) } 
		.s4 { fill: url(#g4) } 
		.s5 { fill: url(#g5) } 
		.s6 { fill: url(#g6) } 
		.s7 { fill: url(#g7) } 
		.s8 { fill: url(#g8) } 
		.s9 { fill: url(#g9) } 
		.s10 { fill: #c2ffff } 
		.s11 { fill: url(#g10) } 
		.s12 { fill: url(#g11) } 
		.s13 { fill: url(#g12) } 
		.s14 { fill: url(#g13) } 
		.s15 { fill: url(#g14) } 
		.s16 { mix-blend-mode: soft-light;fill: #ffffff } 
		.s17 { fill: url(#g15) } 
		.s18 { fill: url(#g16) } 
		.s19 { fill: #a0ffed } 
	</style>
	<g id="_Artboards_">
	</g>
	<g id="layer1">
		<g id="&lt;Group&gt;">
			<g id="&lt;Clip Group&gt;" clip-path="url(#cp1)">
				<g id="&lt;Group&gt;">
					<path id="&lt;Path&gt;" class="s0" d="m609.2-12.1c0 0.6-0.5 1.1-1.2 1-0.6 0-1-0.6-1-1.2 0-0.6 0.6-1 1.2-1 0.6 0 1.1 0.6 1 1.2z"/>
					<path id="&lt;Path&gt;" class="s0" d="m598.6-16.9c0 0.6-0.5 1.1-1.1 1-0.7 0-1.1-0.5-1.1-1.1 0-0.6 0.6-1.1 1.2-1.1 0.6 0.1 1.1 0.6 1 1.2z"/>
					<path id="&lt;Path&gt;" class="s0" d="m609.4-19.3c0.7-0.6 1.7-0.5 2.2 0.1 0.6 0.7 0.5 1.7-0.1 2.2-0.7 0.6-1.7 0.5-2.2-0.1-0.6-0.7-0.5-1.7 0.1-2.2z"/>
					<path id="&lt;Path&gt;" class="s0" d="m598.8-25c1.7-1.5 4.2-1.3 5.7 0.4 1.5 1.7 1.4 4.2-0.3 5.7-1.7 1.5-4.3 1.4-5.8-0.3-1.5-1.7-1.3-4.3 0.4-5.8z"/>
					<path id="&lt;Path&gt;" class="s0" d="m603.5-19.3c0.7-0.6 1.7-0.5 2.2 0.2 0.6 0.6 0.6 1.6-0.1 2.2-0.7 0.6-1.6 0.5-2.2-0.2-0.6-0.6-0.5-1.6 0.1-2.2z"/>
					<path id="&lt;Path&gt;" class="s0" d="m634.8-25.5c0.4-0.4 1.1-0.4 1.5 0.1 0.4 0.4 0.4 1.1-0.1 1.5-0.4 0.5-1.1 0.4-1.5-0.1-0.4-0.4-0.4-1.1 0.1-1.5z"/>
					<path id="&lt;Path&gt;" class="s0" d="m615.3-46.8c0.2-0.1 0.3-0.1 0.4 0 0.1 0.1 0.1 0.3 0 0.4-0.1 0.1-0.3 0.1-0.4 0-0.1-0.1-0.1-0.3 0-0.4z"/>
					<path id="&lt;Path&gt;" class="s0" d="m593.8-47.8c0.3-0.2 0.6-0.2 0.8 0.1 0.2 0.2 0.2 0.5-0.1 0.7-0.2 0.2-0.5 0.2-0.7-0.1-0.2-0.2-0.2-0.5 0-0.7z"/>
					<path id="&lt;Path&gt;" class="s0" d="m596.4-5.4c0.2-0.2 0.6-0.2 0.8 0 0.2 0.2 0.1 0.6-0.1 0.8-0.2 0.2-0.5 0.1-0.7-0.1-0.2-0.2-0.2-0.5 0-0.7z"/>
					<path id="&lt;Path&gt;" class="s0" d="m606.3-22.3c0.4-0.4 1.1-0.4 1.5 0.1 0.4 0.4 0.4 1.2-0.1 1.6-0.4 0.4-1.1 0.3-1.5-0.1-0.4-0.5-0.4-1.2 0.1-1.6z"/>
					<path id="&lt;Path&gt;" class="s0" d="m604.5-29.9c0.5-0.4 1.2-0.4 1.6 0.1 0.4 0.4 0.3 1.2-0.1 1.6-0.5 0.4-1.2 0.3-1.6-0.1-0.4-0.5-0.4-1.2 0.1-1.6z"/>
					<path id="&lt;Path&gt;" class="s0" d="m617.1-27.9c0.2-0.2 0.5-0.2 0.7 0.1 0.2 0.2 0.2 0.5 0 0.7-0.2 0.2-0.6 0.2-0.8 0-0.2-0.3-0.1-0.6 0.1-0.8z"/>
					<path id="&lt;Path&gt;" class="s0" d="m610.3-30.8c0.2-0.2 0.5-0.2 0.7 0 0.2 0.2 0.2 0.5 0 0.7-0.3 0.2-0.6 0.2-0.8 0-0.2-0.2-0.2-0.6 0.1-0.7z"/>
					<path id="&lt;Path&gt;" class="s0" d="m602.7-26.8c0.1-0.1 0.3 0 0.4 0.1 0.1 0.1 0 0.2-0.1 0.3-0.1 0.1-0.2 0.1-0.3 0-0.1-0.1-0.1-0.3 0-0.4z"/>
					<path id="&lt;Path&gt;" class="s0" d="m608.5-26.6c0.1-0.1 0.3-0.1 0.4 0 0.1 0.1 0.1 0.3 0 0.4-0.2 0-0.3 0-0.4-0.1-0.1-0.1-0.1-0.2 0-0.3z"/>
					<path id="&lt;Path&gt;" class="s0" d="m600.8-22.5c0.2-0.2 0.6-0.2 0.7 0 0.2 0.3 0.2 0.6 0 0.8-0.2 0.2-0.6 0.2-0.7-0.1-0.2-0.2-0.2-0.5 0-0.7z"/>
					<path id="&lt;Path&gt;" class="s0" d="m600.2-24.4c-0.1 0.4-0.4 0.7-0.8 0.6-0.3 0-0.6-0.3-0.6-0.7 0-0.4 0.3-0.7 0.7-0.6 0.4 0 0.7 0.3 0.7 0.7z"/>
					<path id="&lt;Path&gt;" class="s0" d="m608.2-27.1c0.4-0.3 1-0.3 1.4 0.1 0.3 0.4 0.3 1-0.1 1.4-0.4 0.3-1 0.3-1.4-0.1-0.3-0.4-0.3-1 0.1-1.4z"/>
					<path id="&lt;Path&gt;" class="s0" d="m598.3-30.7c0.3-0.2 0.8-0.2 1 0.1 0.3 0.3 0.2 0.7-0.1 0.9-0.2 0.3-0.7 0.3-0.9 0-0.3-0.3-0.2-0.7 0-1z"/>
					<path id="&lt;Path&gt;" class="s0" d="m605-34.1c0.1-0.1 0.3-0.1 0.5 0 0.1 0.1 0.1 0.4-0.1 0.5-0.1 0.1-0.3 0.1-0.4-0.1-0.1-0.1-0.1-0.3 0-0.4z"/>
					<path id="&lt;Path&gt;" class="s0" d="m600.8-35.9c0.1-0.2 0.3-0.1 0.5 0 0.1 0.1 0.1 0.3-0.1 0.4-0.1 0.2-0.3 0.1-0.4 0-0.1-0.1-0.1-0.3 0-0.4z"/>
					<path id="&lt;Path&gt;" class="s0" d="m596.1-33.4c0.1-0.1 0.2-0.1 0.3 0 0 0.1 0 0.2-0.1 0.2 0 0.1-0.1 0.1-0.2 0 0-0.1 0-0.2 0-0.2z"/>
					<path id="&lt;Path&gt;" class="s0" d="m599.7-33.3c0.1-0.1 0.2-0.1 0.3 0 0 0 0 0.1-0.1 0.2 0 0.1-0.1 0-0.2 0-0.1-0.1 0-0.2 0-0.2z"/>
					<path id="&lt;Path&gt;" class="s0" d="m595-30.8c0.1-0.1 0.3-0.1 0.4 0 0.2 0.2 0.1 0.4 0 0.5-0.1 0.1-0.3 0.1-0.5 0-0.1-0.2-0.1-0.4 0.1-0.5z"/>
					<path id="&lt;Path&gt;" class="s0" d="m612.8-35.1c-0.6 0.2-1.2 0-1.5-0.6-0.2-0.6 0-1.2 0.6-1.4 0.6-0.3 1.2 0 1.5 0.5 0.2 0.6-0.1 1.3-0.6 1.5z"/>
					<path id="&lt;Path&gt;" class="s0" d="m619.3-38.2c0.8 0.4 1.2 1.3 0.9 2.1-0.4 0.8-1.3 1.2-2.1 0.9-0.8-0.4-1.2-1.3-0.9-2.1 0.4-0.8 1.3-1.2 2.1-0.9z"/>
					<path id="&lt;Path&gt;" class="s0" d="m636.2-18.3c0.6 0.2 0.8 0.9 0.6 1.5-0.2 0.5-0.9 0.8-1.4 0.6-0.6-0.3-0.9-0.9-0.6-1.5 0.2-0.6 0.8-0.8 1.4-0.6z"/>
					<path id="&lt;Path&gt;" class="s0" d="m646.5-45.2c0.1 0.1 0.2 0.2 0.1 0.4 0 0.1-0.2 0.2-0.3 0.1-0.1-0.1-0.2-0.2-0.2-0.3 0.1-0.2 0.3-0.2 0.4-0.2z"/>
					<path id="&lt;Path&gt;" class="s0" d="m637.7-64.9c0.3 0.2 0.4 0.5 0.3 0.7-0.1 0.3-0.4 0.4-0.7 0.3-0.2-0.1-0.4-0.4-0.2-0.7 0.1-0.2 0.4-0.4 0.6-0.3z"/>
					<path id="&lt;Path&gt;" class="s0" d="m620.5-42.3c0.6 0.2 0.9 0.9 0.7 1.4-0.3 0.6-0.9 0.9-1.5 0.6-0.6-0.2-0.8-0.8-0.6-1.4 0.2-0.6 0.9-0.8 1.4-0.6z"/>
					<path id="&lt;Path&gt;" class="s0" d="m630.4-35.2c0.2 0.2 0.4 0.5 0.3 0.7-0.1 0.3-0.5 0.4-0.7 0.3-0.3-0.1-0.4-0.4-0.3-0.7 0.1-0.2 0.4-0.4 0.7-0.3z"/>
					<path id="&lt;Path&gt;" class="s0" d="m630-42.6c0.2 0.1 0.4 0.4 0.3 0.7-0.2 0.3-0.5 0.4-0.7 0.3-0.3-0.1-0.4-0.4-0.3-0.7 0.1-0.3 0.4-0.4 0.7-0.3z"/>
					<path id="&lt;Path&gt;" class="s0" d="m622.9-47.5c0.1 0 0.2 0.2 0.2 0.3-0.1 0.2-0.3 0.2-0.4 0.2-0.1-0.1-0.2-0.2-0.1-0.4 0-0.1 0.2-0.2 0.3-0.1z"/>
					<path id="&lt;Path&gt;" class="s0" d="m625.4-42.3c0.1 0.1 0.2 0.2 0.2 0.4-0.1 0.1-0.2 0.2-0.4 0.1-0.1 0-0.2-0.2-0.1-0.3 0-0.1 0.2-0.2 0.3-0.2z"/>
					<path id="&lt;Path&gt;" class="s0" d="m618.3-47.3c0.2 0.1 0.4 0.4 0.2 0.7-0.1 0.3-0.4 0.4-0.6 0.3-0.3-0.1-0.4-0.4-0.3-0.7 0.1-0.3 0.4-0.4 0.7-0.3z"/>
				</g>
				<g id="&lt;Group&gt;">
					<path id="&lt;Path&gt;" class="s1" d="m820.4 311.9c0 0 2.8 5.7 5 8.9 2.2 3.3 4.2 5.4 4.2 5.4l-2.1 3.1-76.5 3.5-73.1 6.4c0 0 4.3 6 6 7.8 1.8 1.7 4.2 3.3 4.2 3.3 0 0 1.5 7.4 2 10.4 0.6 3.1-0.8 5.9-0.8 5.9l3.2 10.5 103.9 21.8h66.6l134.9 12.9 140.6 7v-73l-127.5-18.4z"/>
					<path id="&lt;Path&gt;" class="s2" d="m849.3 329.8c0 0-6.4-3-10.4-3.5-4.1-0.5-108.3 3.3-114.5 3.5l-13.9-1.1c0 0-2.8-3-5.6-2.5-2.8 0.6-5.1 1.8-5.1 1.8 0 0-1 3.2-1.9 4-0.8 0.8-4.6 1.5-4.6 1.5l-2.9 2.3-4.5-3-4.9 3-3.1 3.4c0 0 7.5 1 9.8 1.6 2.3 0.7 37.8-1.4 48.3 0 10.5 1.5 22.2 1.5 23 2.3 0.9 0.8 11.7 3 15.7 2.6 4-0.5 44.2-6.5 44.2-6.5l23.2-4.8z"/>
					<path id="&lt;Path&gt;" class="s3" d="m1138.7 303.5h-184.1c0 0-4.6 1.9-7.9 2.2-3.3 0.3-41.7 0.8-47.1 0.9-5.5 0-20.1-0.8-29.4 0-9.2 0.7-21 1.1-24.7 1.8-3.7 0.6-14.2 1.7-18 2.4-3.8 0.6-7.9 0-7.1 1.1 0.9 1.1 9.6 1.3 12.7 2.8 3 1.5 16.8 2.6 20.1 3.5 3.2 0.9 20.9 3.3 24.9 4.6 4 1.3 7.3 2.4 7.3 2.4 0 0-34.7 3.9-39.1 5.2-4.3 1.3-8.2 2.4-8.2 2.4 0 0-52.3 6.1-57.5 8.1-5.1 1.9-8.3 2.8-7.7 4.1 0.6 1.3 19.4 2.6 23.8 3.1 4.3 0.4 23.5-4.6 26.8-2.9 3.3 1.8 6.8 2.9 8.6 4.4 1.9 1.5 7.5 0.2 12.6 1.5 5 1.3 85.4 2.4 89.8 3.3 4.3 0.9 8.3 5 13.1 6.1 4.8 1.1 190.9 1.3 190.9 1.3z"/>
					<path id="&lt;Path&gt;" class="s4" d="m1114.2 362.1l4.1 53.8-47.4 1.1-63-5.1-7.7-26.1-6-23.7-0.7 25.7 0.7 17-10.7 11.1-26.3-5.6-9.6-49.8-13.1-6.1-4.7 27.7-5.5 2.4 2 13.8-30.6 0.9-44.7 1.5-6.3-49.6-4-0.5 4.6 27.7-11.3-28-0.8 37.6-4.5-20.2-9.3-0.2 0.7-22.6-23.4 3.2 1.6 16.1-17.8 2.4-10-2.4-12.7-21.4-21-1.1 6.2 12.9 1.5 7.2 3.8 18.3-17.2-3.6-11-25.7-1-5.8-3.4-4.6-28 0.4-9.8-1.6c0 0 4.7 6.6 6 7.8 1.3 1.2 4.2 3.3 4.2 3.3l9.2 0.6 6.3 4.1 4.7 6.8-9.7 2.4-3.7 2.6-5.2 0.7 2.4 7.5 15.7 7.1 118.8 26.2 140.4 11.9 151.3 1.1 20.2-2.5v-57z"/>
					<path id="&lt;Path&gt;" class="s5" d="m762 366.6l5.3 30.6c0 0 16.5 6.3 23.1 7.6 6.6 1.3 14.1-3 14.1-3l12.2-1.1 8.3-5.7 3.7-27.3-20.7-0.2z"/>
					<path id="&lt;Path&gt;" class="s6" d="m762 366.6c0 0 20-7.6 22.8-7.4 2.7 0.2 11.9 0 11.9 0 0 0 7.4 3.3 12 3.7 4.5 0.4 20 4.8 20 4.8 0 0-10.6 1.8-14 1.8l1.4 2.1c0 0-7.4 1.3-18.8 0 0 0-9.4-1.9-35.3-5z"/>
					<path id="&lt;Path&gt;" class="s7" d="m690.1 363.7l7.8-0.9 4.6 0.4-3.9 1-3.7 2.6-5.2 0.7c0 0-1.1-1.9 0.4-3.8z"/>
					<path id="&lt;Path&gt;" class="s8" d="m882.1 324.1l46.4-0.4 27.3 0.4 32.5 3 64.7 4.8h-80.5l-34.3-1.2-48.8-4.7z"/>
					<path id="&lt;Path&gt;" class="s9" d="m769 346.5l27.7 1.6c0 0 9.2-0.2 23.4-3.2l13.9 5.4 10.7 0.8 2.1 2.5 87.7 0.8 33.5-4.7 16.7-3.2 68.3-14.6-78.2-2.4-13.5 2.4-27.2-1.6-48.7-5.1c0 0-33.1 3.8-39.1 5.2-5.9 1.4-46 7-46 7l-38.3 6.7c0 0-0.3 1.5 7 2.4z"/>
					<path id="&lt;Path&gt;" class="s10" d="m699.8 328l2.7 2 4.2-1 2-1-1.1-2c0 0-5.5 0.2-7.8 2z"/>
					<path id="&lt;Path&gt;" class="s10" d="m692.3 334.3h3.6l2.6-2.1c0 0-2.7-0.8-6.2 2.1z"/>
					<path id="&lt;Path&gt;" class="s10" d="m685.9 332.8l-4.1 3.2 1 1.4h4.5l3.1-1.6z"/>
					<path id="&lt;Path&gt;" class="s11" d="m1073.1 332.1l65.4-2.1 0.2 7.4z"/>
					<path id="&lt;Path&gt;" class="s12" d="m994.2 362.1l22.7 2.1h11.1l23.2-1.1 11.5 0.6 15.7 0.5 6.6 3.9 14.6-0.6 12.5-1.3 4.2-4.1 13.6-0.8 8.6 0.5-57.6-5.5-30.4 2.9h-29z"/>
					<path id="&lt;Path&gt;" class="s13" d="m736.8 341.7l8-0.8 5.7-1.1 9.1 1 13.2 0.9 15.6-2.5-26.4 4.9-3.8-0.7-1.7 0.7z"/>
					<path id="&lt;Path&gt;" class="s14" d="m934.5 354.4l15-2.1 18.5-2.6 20.4-3.9-26 2.9-37.2 5.2 6.9 12.7z"/>
					<path id="&lt;Path&gt;" class="s15" d="m954.6 303.5l29.2 3 2.5 3-12.1-0.9h-21.6l-16.1-2.1z"/>
				</g>
				<g id="&lt;Group&gt;">
					<path id="&lt;Path&gt;" class="s0" d="m773.4 66.2c0.1 0.2 0.2 0.4 0 0.6-0.1 0.1-0.4 0.1-0.5 0-0.2-0.2-0.2-0.4-0.1-0.6 0.2-0.1 0.4-0.1 0.6 0z"/>
					<path id="&lt;Path&gt;" class="s0" d="m762.7 73.6c0.2 0.2 0.2 0.3 0.1 0.4-0.1 0.2-0.3 0.1-0.4 0-0.1-0.1-0.2-0.3-0.1-0.4 0.1-0.1 0.3-0.1 0.4 0z"/>
					<path id="&lt;Path&gt;" class="s0" d="m758.8 72.6c0.1 0.1 0.1 0.2 0 0.3 0 0.1-0.2 0.1-0.3 0-0.1-0.1-0.1-0.2 0-0.3 0.1-0.1 0.2-0.1 0.3 0z"/>
					<path id="&lt;Path&gt;" class="s0" d="m768 69.8c0 0.1 0.1 0.2 0 0.2 0 0.1-0.1 0.1-0.2 0 0 0 0-0.1 0-0.2 0 0 0.1 0 0.2 0z"/>
					<path id="&lt;Path&gt;" class="s0" d="m762.1 74.1c0 0.1 0 0.2 0 0.2-0.1 0.1-0.2 0.1-0.2 0-0.1 0-0.1-0.1 0-0.2 0 0 0.1 0 0.2 0z"/>
					<path id="&lt;Path&gt;" class="s0" d="m764.5 76.4c0.1 0 0.1 0.1 0 0.2 0 0-0.1 0-0.1 0-0.1-0.1-0.1-0.2-0.1-0.2 0.1-0.1 0.2-0.1 0.2 0z"/>
					<path id="&lt;Path&gt;" class="s0" d="m765 74.6c0.1 0.1 0.1 0.2 0.1 0.2-0.1 0.1-0.2 0.1-0.2 0-0.1 0-0.1-0.1 0-0.2 0 0 0.1 0 0.1 0z"/>
					<path id="&lt;Path&gt;" class="s0" d="m763.8 72.7q0 0.1 0 0.1-0.1 0-0.1 0-0.1 0 0-0.1 0 0 0.1 0z"/>
					<path id="&lt;Path&gt;" class="s0" d="m747.7 31.8c0.1 0.1 0.1 0.2 0 0.3-0.1 0-0.2 0-0.2 0-0.1-0.1-0.1-0.2 0-0.3 0 0 0.1 0 0.2 0z"/>
					<path id="&lt;Path&gt;" class="s0" d="m763.9 74.2q0.1 0.1 0 0.1 0 0-0.1 0 0-0.1 0-0.1 0.1 0 0.1 0z"/>
					<path id="&lt;Path&gt;" class="s0" d="m762.6 72.3c0.1 0 0.1 0.1 0 0.1 0 0.1-0.1 0.1-0.2 0 0 0 0-0.1 0-0.2 0.1 0 0.2 0 0.2 0.1z"/>
					<path id="&lt;Path&gt;" class="s0" d="m758.5 76.3c0 0 0 0.1 0 0.2-0.1 0-0.1 0-0.2 0-0.1-0.1-0.1-0.2 0-0.2 0-0.1 0.1-0.1 0.2 0z"/>
					<path id="&lt;Path&gt;" class="s0" d="m735.6 20.2c0.1 0.2 0.1 0.4 0 0.5-0.1 0.1-0.3 0.1-0.4 0-0.2-0.2-0.2-0.4-0.1-0.5 0.1-0.1 0.3-0.1 0.5 0z"/>
					<path id="&lt;Path&gt;" class="s0" d="m767.3 57.6c0.4 0.4 0.5 1 0.1 1.4-0.3 0.4-1 0.3-1.4-0.1-0.4-0.4-0.4-1-0.1-1.3 0.4-0.4 1-0.4 1.4 0z"/>
					<path id="&lt;Path&gt;" class="s0" d="m775.3 74.2c0.4 0.4 0.5 1 0.1 1.4-0.3 0.3-0.9 0.3-1.3-0.1-0.4-0.4-0.5-1-0.1-1.4 0.3-0.3 0.9-0.3 1.3 0.1z"/>
					<path id="&lt;Path&gt;" class="s0" d="m745.5 41.2c0.4 0.4 0.5 1 0.1 1.4-0.3 0.3-0.9 0.3-1.3-0.1-0.4-0.4-0.5-1-0.1-1.3 0.3-0.4 0.9-0.4 1.3 0z"/>
					<path id="&lt;Path&gt;" class="s0" d="m735.7 43.7c0.4 0.4 0.5 1 0.1 1.4-0.3 0.3-0.9 0.3-1.3-0.1-0.4-0.4-0.5-1-0.1-1.4 0.3-0.3 0.9-0.3 1.3 0.1z"/>
					<path id="&lt;Path&gt;" class="s0" d="m767.4 84.6c0.1 0.1 0.1 0.3 0 0.4-0.1 0.1-0.3 0.1-0.4 0-0.1-0.1-0.1-0.3 0-0.4 0.1-0.1 0.3-0.1 0.4 0z"/>
					<path id="&lt;Path&gt;" class="s0" d="m791.6 87.3c0.3 0.2 0.3 0.7 0.1 0.9-0.3 0.3-0.7 0.3-1 0-0.3-0.3-0.3-0.7-0.1-1 0.3-0.2 0.7-0.2 1 0.1z"/>
					<path id="&lt;Path&gt;" class="s0" d="m785.9 81.6c0.3 0.2 0.3 0.7 0.1 0.9-0.3 0.3-0.7 0.3-1 0-0.3-0.3-0.3-0.7-0.1-1 0.3-0.2 0.7-0.2 1 0.1z"/>
					<path id="&lt;Path&gt;" class="s0" d="m745.3 59.6c0.3 0.3 0.3 0.7 0.1 1-0.3 0.2-0.7 0.2-1-0.1-0.3-0.3-0.3-0.7-0.1-1 0.3-0.2 0.7-0.2 1 0.1z"/>
					<path id="&lt;Path&gt;" class="s0" d="m762.8 76.6c0.1 0.1 0.2 0.3 0.1 0.4-0.2 0.1-0.3 0.1-0.5 0-0.1-0.1-0.1-0.3 0-0.4 0.1-0.1 0.3-0.1 0.4 0z"/>
					<path id="&lt;Path&gt;" class="s0" d="m737.8 42.1c0.2 0.2 0.2 0.5 0 0.7-0.2 0.2-0.5 0.2-0.7 0-0.2-0.2-0.2-0.5 0-0.7 0.2-0.2 0.5-0.2 0.7 0z"/>
					<path id="&lt;Path&gt;" class="s0" d="m717.3 12.3c0.2 0.2 0.2 0.5 0.1 0.7-0.2 0.1-0.5 0.1-0.7-0.1-0.2-0.2-0.3-0.5-0.1-0.7 0.2-0.2 0.5-0.2 0.7 0.1z"/>
					<path id="&lt;Path&gt;" class="s0" d="m763.8 59.3c0.1 0.2 0.1 0.4 0 0.5-0.1 0.1-0.3 0.1-0.5 0-0.1-0.2-0.1-0.4 0-0.5 0.1-0.1 0.3-0.1 0.5 0z"/>
					<path id="&lt;Path&gt;" class="s0" d="m743.7 60.8c0.1 0.1 0.1 0.3 0 0.4-0.1 0.2-0.3 0.2-0.5 0-0.1-0.1-0.1-0.3 0-0.4 0.1-0.1 0.3-0.1 0.5 0z"/>
					<path id="&lt;Path&gt;" class="s0" d="m738.3 44.6c0.2 0.1 0.2 0.3 0.1 0.4-0.1 0.1-0.3 0.1-0.5 0-0.1-0.1-0.1-0.3 0-0.4 0.1-0.2 0.3-0.2 0.4 0z"/>
					<path id="&lt;Path&gt;" class="s0" d="m749.6 66.2c0.1 0.1 0.1 0.3 0 0.4-0.1 0.1-0.3 0.1-0.4 0-0.2-0.1-0.2-0.4-0.1-0.5 0.1-0.1 0.3-0.1 0.5 0.1z"/>
					<path id="&lt;Path&gt;" class="s0" d="m750.8 62c0.2 0.1 0.2 0.3 0.1 0.4-0.2 0.1-0.4 0.1-0.5 0-0.1-0.1-0.2-0.3 0-0.5 0.1-0.1 0.3-0.1 0.4 0.1z"/>
					<path id="&lt;Path&gt;" class="s0" d="m744 33.2c0.2 0.2 0.2 0.4 0.1 0.5-0.2 0.1-0.4 0.1-0.5 0-0.1-0.2-0.2-0.4 0-0.5 0.1-0.1 0.3-0.1 0.4 0z"/>
					<path id="&lt;Path&gt;" class="s0" d="m747.7 57.4c0.1 0 0.1 0.1 0 0.2 0 0.1-0.1 0.1-0.2 0-0.1-0.1-0.1-0.2 0-0.2 0-0.1 0.1-0.1 0.2 0z"/>
					<path id="&lt;Path&gt;" class="s0" d="m740.7 31.8c0 0.1 0.1 0.2 0 0.2-0.1 0.1-0.2 0.1-0.2 0-0.1 0-0.1-0.1 0-0.2 0-0.1 0.1 0 0.2 0z"/>
					<path id="&lt;Path&gt;" class="s0" d="m743.9 36.4c0.1 0 0.1 0.1 0.1 0.2-0.1 0-0.2 0-0.3 0 0-0.1 0-0.2 0-0.3 0.1 0 0.2 0 0.2 0.1z"/>
					<path id="&lt;Path&gt;" class="s0" d="m736.2 43.3c0.1 0.1 0.1 0.2 0.1 0.3-0.1 0-0.2 0-0.3 0 0-0.1 0-0.2 0-0.3 0.1 0 0.2 0 0.2 0z"/>
					<path id="&lt;Path&gt;" class="s0" d="m748.1 60.9c0.1 0.1 0.1 0.2 0 0.3 0 0-0.1 0-0.2-0.1-0.1 0-0.1-0.1 0-0.2 0.1 0 0.2 0 0.2 0z"/>
					<path id="&lt;Path&gt;" class="s16" d="m748.9 15.7c0.3 0.3 0.3 0.8 0 1.1-0.2 0.3-0.7 0.2-1-0.1-0.4-0.3-0.4-0.8-0.1-1.1 0.3-0.2 0.7-0.2 1.1 0.1z"/>
					<path id="&lt;Path&gt;" class="s16" d="m777.4 63.9c0.3 0.3 0.3 0.8 0.1 1.1-0.3 0.3-0.8 0.3-1.1-0.1-0.4-0.3-0.4-0.8-0.1-1 0.3-0.3 0.8-0.3 1.1 0z"/>
					<path id="&lt;Path&gt;" class="s16" d="m768.6 82.5c0.1 0 0.1 0.2 0 0.3-0.1 0.1-0.2 0.1-0.3 0-0.1-0.1-0.1-0.3 0-0.4 0 0 0.2 0 0.3 0.1z"/>
					<path id="&lt;Path&gt;" class="s16" d="m790.4 74.4c0.2 0.2 0.2 0.5 0 0.7-0.2 0.2-0.5 0.2-0.7 0-0.3-0.2-0.3-0.6-0.1-0.8 0.2-0.2 0.6-0.2 0.8 0.1z"/>
					<path id="&lt;Path&gt;" class="s16" d="m785.8 69.8c0.3 0.2 0.3 0.6 0.1 0.8-0.2 0.2-0.5 0.1-0.8-0.1-0.2-0.2-0.2-0.5 0-0.7 0.2-0.2 0.5-0.2 0.7 0z"/>
					<path id="&lt;Path&gt;" class="s16" d="m753.4 52.2c0.2 0.2 0.2 0.6 0 0.8-0.2 0.2-0.5 0.2-0.7 0-0.3-0.3-0.3-0.6-0.1-0.8 0.2-0.2 0.6-0.2 0.8 0z"/>
					<path id="&lt;Path&gt;" class="s16" d="m764.1 83.1q0.1 0.1 0 0.1 0 0.1-0.1 0-0.1 0 0-0.1 0.1-0.1 0.1 0z"/>
					<path id="&lt;Path&gt;" class="s16" d="m752.1 53.2c0.1 0.1 0.1 0.3 0 0.3-0.1 0.1-0.3 0.1-0.4 0-0.1-0.1-0.1-0.2 0-0.3 0.1-0.1 0.3-0.1 0.4 0z"/>
					<path id="&lt;Path&gt;" class="s16" d="m756.8 57.5c0.1 0.1 0.1 0.2 0 0.3-0.1 0.1-0.2 0.1-0.3 0-0.1-0.1-0.2-0.3-0.1-0.3 0.1-0.1 0.3-0.1 0.4 0z"/>
					<path id="&lt;Path&gt;" class="s16" d="m757.8 54.1c0.1 0.1 0.1 0.3 0 0.4-0.1 0.1-0.2 0.1-0.4 0-0.1-0.1-0.1-0.3 0-0.4 0.1-0.1 0.3-0.1 0.4 0z"/>
					<path id="&lt;Path&gt;" class="s16" d="m755.3 50.5q0.1 0 0 0.1-0.1 0.1-0.2 0 0-0.1 0-0.2 0.1 0 0.2 0.1z"/>
					<path id="&lt;Path&gt;" class="s16" d="m755.6 53.3q0.1 0.1 0 0.2 0 0-0.1 0-0.1-0.1-0.1-0.2 0.1-0.1 0.2 0z"/>
					<path id="&lt;Path&gt;" class="s0" d="m738.6 42.4c0 0.1 0 0.2 0 0.2-0.1 0.1-0.2 0.1-0.3 0 0 0 0-0.2 0-0.2 0.1-0.1 0.2-0.1 0.3 0z"/>
					<path id="&lt;Path&gt;" class="s0" d="m745 56.3c0.1 0.1 0.1 0.3 0 0.4-0.1 0.1-0.3 0.1-0.4 0-0.2-0.1-0.2-0.3-0.1-0.5 0.1-0.1 0.3-0.1 0.5 0.1z"/>
					<path id="&lt;Path&gt;" class="s0" d="m738.4 36.5c0.1 0.1 0.1 0.3 0 0.4-0.1 0.1-0.3 0.1-0.4 0-0.2-0.1-0.2-0.4-0.1-0.5 0.2-0.1 0.4-0.1 0.5 0.1z"/>
					<path id="&lt;Path&gt;" class="s0" d="m738.4 40.7c0.1 0.1 0.1 0.3 0 0.4-0.1 0.2-0.3 0.1-0.4 0-0.2-0.1-0.2-0.3-0.1-0.4 0.1-0.2 0.3-0.1 0.5 0z"/>
					<path id="&lt;Path&gt;" class="s0" d="m730.1 45.2c0.1 0.1 0.1 0.3 0 0.4-0.1 0.2-0.3 0.1-0.4 0-0.2-0.1-0.2-0.3-0.1-0.4 0.1-0.2 0.3-0.1 0.5 0z"/>
				</g>
				<g id="&lt;Group&gt;">
					<path id="&lt;Path&gt;" class="s0" d="m696.4 78c0.1 0.2 0.2 0.5 0 0.6-0.1 0.2-0.4 0.1-0.6 0-0.1-0.2-0.1-0.4 0-0.6 0.2-0.1 0.4-0.1 0.6 0z"/>
					<path id="&lt;Path&gt;" class="s0" d="m685.7 85.5c0.2 0.1 0.2 0.3 0.1 0.4-0.1 0.1-0.3 0.1-0.4-0.1-0.1-0.1-0.2-0.3-0.1-0.4 0.1-0.1 0.3-0.1 0.4 0.1z"/>
					<path id="&lt;Path&gt;" class="s0" d="m681.8 84.4c0.1 0.1 0.1 0.2 0 0.3 0 0.1-0.2 0.1-0.3 0-0.1-0.1-0.1-0.2 0-0.3 0.1-0.1 0.2-0.1 0.3 0z"/>
					<path id="&lt;Path&gt;" class="s0" d="m691 81.6c0 0.1 0 0.2 0 0.2 0 0.1-0.1 0.1-0.2 0 0 0-0.1-0.1 0-0.2 0 0 0.1 0 0.2 0z"/>
					<path id="&lt;Path&gt;" class="s0" d="m685.1 86c0 0 0 0.1 0 0.1-0.1 0.1-0.2 0.1-0.2 0-0.1 0-0.1-0.1 0-0.2 0 0 0.1 0 0.2 0.1z"/>
					<path id="&lt;Path&gt;" class="s0" d="m687.5 88.2c0.1 0 0.1 0.1 0 0.2 0 0-0.1 0-0.1 0-0.1-0.1-0.1-0.2-0.1-0.2 0.1-0.1 0.2-0.1 0.2 0z"/>
					<path id="&lt;Path&gt;" class="s0" d="m688 86.4c0.1 0.1 0.1 0.2 0.1 0.2-0.1 0.1-0.2 0.1-0.2 0-0.1 0-0.1-0.1 0-0.2 0 0 0.1 0 0.1 0z"/>
					<path id="&lt;Path&gt;" class="s0" d="m686.7 84.5q0.1 0.1 0.1 0.1-0.1 0.1-0.1 0-0.1 0 0-0.1 0 0 0 0z"/>
					<path id="&lt;Path&gt;" class="s0" d="m670.7 43.6c0 0.1 0.1 0.2 0 0.3-0.1 0-0.2 0-0.2 0-0.1-0.1-0.1-0.2 0-0.3 0 0 0.1 0 0.2 0z"/>
					<path id="&lt;Path&gt;" class="s0" d="m686.9 86q0.1 0.1 0 0.1 0 0-0.1 0 0 0 0-0.1 0.1 0 0.1 0z"/>
					<path id="&lt;Path&gt;" class="s0" d="m685.6 84.1c0.1 0 0.1 0.1 0 0.2 0 0-0.1 0-0.2-0.1 0 0 0-0.1 0-0.1 0.1-0.1 0.1-0.1 0.2 0z"/>
					<path id="&lt;Path&gt;" class="s16" d="m752 109.3c0.2 0.3 0.2 0.6 0.1 0.8-0.2 0.2-0.6 0.2-0.8 0-0.2-0.3-0.2-0.6 0-0.8 0.1-0.2 0.5-0.2 0.7 0z"/>
					<path id="&lt;Path&gt;" class="s16" d="m744 112.4c0.1 0.1 0.1 0.4 0 0.5-0.1 0.2-0.4 0.1-0.5 0-0.2-0.2-0.2-0.4-0.1-0.5 0.2-0.2 0.4-0.2 0.6 0z"/>
					<path id="&lt;Path&gt;" class="s16" d="m738.8 111c0.1 0.1 0.1 0.3 0 0.4-0.1 0.1-0.3 0.1-0.4 0-0.1-0.1-0.1-0.3 0-0.4 0.1-0.1 0.3-0.1 0.4 0z"/>
					<path id="&lt;Path&gt;" class="s16" d="m750.8 107.4c0.1 0.1 0.1 0.2 0.1 0.2-0.1 0.1-0.2 0.1-0.3 0-0.1-0.1-0.1-0.2 0-0.2 0.1-0.1 0.2-0.1 0.2 0z"/>
					<path id="&lt;Path&gt;" class="s16" d="m743.1 113c0 0.1 0 0.2 0 0.3-0.1 0.1-0.2 0.1-0.3 0 0-0.1-0.1-0.2 0-0.3 0.1 0 0.2 0 0.3 0z"/>
					<path id="&lt;Path&gt;" class="s16" d="m746.3 116c0.1 0.1 0.1 0.2 0 0.2 0 0.1-0.2 0.1-0.2 0-0.1-0.1-0.1-0.2 0-0.2 0-0.1 0.1-0.1 0.2 0z"/>
					<path id="&lt;Path&gt;" class="s16" d="m747 113.7c0.1 0.1 0.1 0.2 0 0.2-0.1 0.1-0.2 0.1-0.2 0-0.1-0.1-0.1-0.2-0.1-0.2 0.1-0.1 0.2-0.1 0.3 0z"/>
					<path id="&lt;Path&gt;" class="s16" d="m745.3 111.2q0 0 0 0.1-0.1 0-0.1 0-0.1-0.1 0-0.1 0-0.1 0.1 0z"/>
					<path id="&lt;Path&gt;" class="s16" d="m745.5 113.1q0.1 0.1 0 0.1 0 0.1-0.1 0-0.1 0 0-0.1 0 0 0.1 0z"/>
					<path id="&lt;Path&gt;" class="s16" d="m743.8 110.6c0.1 0 0.1 0.1 0 0.2-0.1 0.1-0.2 0.1-0.3 0 0-0.1 0-0.2 0-0.3 0.1 0 0.2 0 0.3 0.1z"/>
					<path id="&lt;Path&gt;" class="s0" d="m681.5 88.1c0 0.1 0 0.1 0 0.2-0.1 0-0.2 0-0.2 0-0.1-0.1-0.1-0.2 0-0.2 0-0.1 0.1-0.1 0.2 0z"/>
					<path id="&lt;Path&gt;" class="s0" d="m658.6 32c0.1 0.2 0.1 0.4 0 0.5-0.1 0.1-0.3 0.1-0.4 0-0.2-0.2-0.2-0.4-0.1-0.5 0.1-0.1 0.3-0.1 0.5 0z"/>
					<path id="&lt;Path&gt;" class="s0" d="m690.3 69.4c0.4 0.4 0.4 1.1 0.1 1.4-0.3 0.4-1 0.3-1.4-0.1-0.4-0.4-0.4-1-0.1-1.3 0.4-0.4 1-0.3 1.4 0z"/>
					<path id="&lt;Path&gt;" class="s0" d="m755.3 115.1c0.2 0.2 0.3 0.5 0.1 0.7-0.2 0.2-0.6 0.2-0.8 0-0.2-0.2-0.2-0.6 0-0.8 0.2-0.1 0.5-0.1 0.7 0.1z"/>
					<path id="&lt;Path&gt;" class="s0" d="m698.3 86c0.4 0.4 0.5 1 0.1 1.4-0.3 0.3-0.9 0.3-1.3-0.1-0.4-0.4-0.5-1-0.1-1.4 0.3-0.3 0.9-0.3 1.3 0.1z"/>
					<path id="&lt;Path&gt;" class="s0" d="m747.3 111.8c0.2 0.3 0.2 0.6 0 0.8-0.2 0.2-0.5 0.2-0.7-0.1-0.3-0.2-0.3-0.5-0.1-0.7 0.2-0.2 0.5-0.2 0.8 0z"/>
					<path id="&lt;Path&gt;" class="s0" d="m668.5 53c0.4 0.4 0.5 1 0.1 1.4-0.3 0.3-0.9 0.3-1.3-0.1-0.4-0.4-0.5-1-0.1-1.3 0.3-0.4 0.9-0.4 1.3 0z"/>
					<path id="&lt;Path&gt;" class="s0" d="m658.7 55.5c0.4 0.4 0.5 1 0.1 1.4-0.3 0.3-0.9 0.3-1.3-0.1-0.4-0.4-0.5-1-0.1-1.3 0.3-0.4 0.9-0.4 1.3 0z"/>
					<path id="&lt;Path&gt;" class="s0" d="m690.4 96.4c0.1 0.1 0.1 0.3 0 0.4-0.1 0.1-0.3 0.1-0.4 0-0.1-0.1-0.1-0.3 0-0.4 0.1-0.1 0.3-0.1 0.4 0z"/>
					<path id="&lt;Path&gt;" class="s0" d="m714.6 99.1c0.3 0.3 0.3 0.7 0.1 0.9-0.3 0.3-0.7 0.3-1 0-0.3-0.3-0.3-0.7-0.1-1 0.3-0.2 0.7-0.2 1 0.1z"/>
					<path id="&lt;Path&gt;" class="s0" d="m708.9 93.4c0.3 0.3 0.3 0.7 0.1 0.9-0.3 0.3-0.7 0.3-1 0-0.3-0.3-0.3-0.7-0.1-1 0.3-0.2 0.7-0.2 1 0.1z"/>
					<path id="&lt;Path&gt;" class="s0" d="m668.3 71.4c0.3 0.3 0.3 0.7 0.1 1-0.3 0.2-0.7 0.2-1-0.1-0.3-0.3-0.3-0.7-0.1-0.9 0.3-0.3 0.7-0.3 1 0z"/>
					<path id="&lt;Path&gt;" class="s0" d="m685.8 88.4c0.1 0.1 0.1 0.3 0 0.4-0.1 0.1-0.2 0.1-0.4 0-0.1-0.1-0.1-0.3 0-0.4 0.1-0.1 0.3-0.1 0.4 0z"/>
					<path id="&lt;Path&gt;" class="s0" d="m660.8 53.9c0.2 0.2 0.2 0.6 0 0.7-0.2 0.2-0.5 0.2-0.7 0-0.2-0.2-0.2-0.5 0-0.7 0.1-0.2 0.5-0.2 0.7 0z"/>
					<path id="&lt;Path&gt;" class="s0" d="m640.3 24.1c0.2 0.2 0.2 0.5 0.1 0.7-0.2 0.2-0.5 0.1-0.7-0.1-0.3-0.2-0.3-0.5-0.1-0.7 0.2-0.2 0.5-0.1 0.7 0.1z"/>
					<path id="&lt;Path&gt;" class="s0" d="m686.8 71.1c0.1 0.2 0.1 0.4 0 0.5-0.1 0.1-0.3 0.1-0.5 0-0.1-0.2-0.1-0.4 0-0.5 0.1-0.1 0.3-0.1 0.5 0z"/>
					<path id="&lt;Path&gt;" class="s0" d="m666.7 72.6c0.1 0.1 0.1 0.3 0 0.5-0.1 0.1-0.3 0.1-0.5-0.1-0.1-0.1-0.1-0.3 0-0.4 0.1-0.1 0.3-0.1 0.5 0z"/>
					<path id="&lt;Path&gt;" class="s0" d="m661.3 56.4c0.2 0.1 0.2 0.3 0.1 0.4-0.1 0.2-0.3 0.1-0.5 0-0.1-0.1-0.1-0.3 0-0.4 0.1-0.2 0.3-0.1 0.4 0z"/>
					<path id="&lt;Path&gt;" class="s0" d="m672.6 78c0.1 0.1 0.1 0.3 0 0.4-0.1 0.1-0.3 0.1-0.4 0-0.2-0.1-0.2-0.3-0.1-0.5 0.1-0.1 0.3-0.1 0.5 0.1z"/>
					<path id="&lt;Path&gt;" class="s0" d="m673.8 73.8c0.1 0.1 0.2 0.3 0 0.4-0.1 0.1-0.3 0.1-0.4 0-0.1-0.1-0.2-0.3 0-0.5 0.1-0.1 0.3-0.1 0.4 0.1z"/>
					<path id="&lt;Path&gt;" class="s0" d="m667 45c0.2 0.2 0.2 0.4 0 0.5-0.1 0.1-0.3 0.1-0.4 0-0.1-0.2-0.2-0.4 0-0.5 0.1-0.1 0.3-0.1 0.4 0z"/>
					<path id="&lt;Path&gt;" class="s0" d="m670.7 69.2c0.1 0 0.1 0.1 0 0.2 0 0.1-0.1 0.1-0.2 0-0.1-0.1-0.1-0.2 0-0.2 0-0.1 0.1-0.1 0.2 0z"/>
					<path id="&lt;Path&gt;" class="s0" d="m663.7 43.6c0 0.1 0.1 0.2 0 0.3-0.1 0-0.2 0-0.2-0.1-0.1 0-0.1-0.1-0.1-0.2 0.1 0 0.2 0 0.3 0z"/>
					<path id="&lt;Path&gt;" class="s0" d="m666.9 48.2c0.1 0 0.1 0.1 0.1 0.2-0.1 0-0.2 0-0.3 0 0-0.1-0.1-0.2 0-0.2 0.1-0.1 0.2-0.1 0.2 0z"/>
					<path id="&lt;Path&gt;" class="s0" d="m659.2 55.2c0.1 0 0.1 0.1 0.1 0.2-0.1 0-0.2 0-0.3 0 0-0.1 0-0.2 0-0.3 0.1 0 0.2 0 0.2 0.1z"/>
					<path id="&lt;Path&gt;" class="s0" d="m671.1 72.7c0.1 0.1 0.1 0.2 0 0.3 0 0-0.1 0-0.2-0.1-0.1 0-0.1-0.1 0-0.2 0 0 0.1 0 0.2 0z"/>
					<path id="&lt;Path&gt;" class="s16" d="m671.9 27.5c0.3 0.3 0.3 0.8 0 1.1-0.2 0.3-0.7 0.3-1.1-0.1-0.3-0.3-0.3-0.8 0-1.1 0.2-0.2 0.7-0.2 1.1 0.1z"/>
					<path id="&lt;Path&gt;" class="s16" d="m700.4 75.7c0.3 0.3 0.3 0.8 0 1.1-0.2 0.3-0.7 0.3-1-0.1-0.4-0.3-0.4-0.8-0.1-1 0.3-0.3 0.7-0.3 1.1 0z"/>
					<path id="&lt;Path&gt;" class="s16" d="m691.6 94.3c0.1 0.1 0.1 0.2 0 0.3-0.1 0.1-0.2 0.1-0.3 0-0.1-0.1-0.1-0.3 0-0.4 0 0 0.2 0 0.3 0.1z"/>
					<path id="&lt;Path&gt;" class="s16" d="m713.4 86.2c0.2 0.2 0.2 0.5 0 0.7-0.2 0.2-0.5 0.2-0.7 0-0.3-0.2-0.3-0.6-0.1-0.8 0.2-0.2 0.6-0.2 0.8 0.1z"/>
					<path id="&lt;Path&gt;" class="s16" d="m708.8 81.6c0.3 0.2 0.3 0.6 0.1 0.8-0.2 0.2-0.6 0.2-0.8-0.1-0.2-0.2-0.2-0.5 0-0.7 0.2-0.2 0.5-0.2 0.7 0z"/>
					<path id="&lt;Path&gt;" class="s16" d="m676.4 64c0.2 0.3 0.2 0.6 0 0.8-0.2 0.2-0.5 0.2-0.7 0-0.3-0.3-0.3-0.6-0.1-0.8 0.2-0.2 0.5-0.2 0.8 0z"/>
					<path id="&lt;Path&gt;" class="s16" d="m687.1 94.9q0.1 0.1 0 0.2 0 0-0.1-0.1-0.1 0 0-0.1 0-0.1 0.1 0z"/>
					<path id="&lt;Path&gt;" class="s16" d="m675.1 65c0.1 0.1 0.1 0.3 0 0.4-0.1 0.1-0.3 0-0.4-0.1-0.1-0.1-0.1-0.2 0-0.3 0.1-0.1 0.3-0.1 0.4 0z"/>
					<path id="&lt;Path&gt;" class="s16" d="m679.8 69.3c0.1 0.1 0.1 0.2 0 0.3-0.1 0.1-0.2 0.1-0.3 0-0.2-0.1-0.2-0.2-0.1-0.3 0.1-0.1 0.3-0.1 0.4 0z"/>
					<path id="&lt;Path&gt;" class="s16" d="m680.8 65.9c0.1 0.1 0.1 0.3 0 0.4-0.1 0.1-0.2 0.1-0.4 0-0.1-0.1-0.1-0.3 0-0.4 0.1-0.1 0.3-0.1 0.4 0z"/>
					<path id="&lt;Path&gt;" class="s16" d="m678.3 62.3q0.1 0.1 0 0.1-0.1 0.1-0.2 0 0-0.1 0-0.2 0.1 0 0.2 0.1z"/>
					<path id="&lt;Path&gt;" class="s16" d="m678.6 65.1q0.1 0.1 0 0.2 0 0.1-0.1 0-0.1-0.1-0.1-0.2 0.1-0.1 0.2 0z"/>
					<path id="&lt;Path&gt;" class="s0" d="m661.6 54.2c0 0.1 0 0.2 0 0.2-0.1 0.1-0.2 0.1-0.3 0 0 0 0-0.1 0-0.2 0.1-0.1 0.2-0.1 0.3 0z"/>
					<path id="&lt;Path&gt;" class="s0" d="m668 68.1c0.1 0.1 0.1 0.3 0 0.4-0.1 0.1-0.3 0.1-0.4 0-0.2-0.1-0.2-0.3-0.1-0.5 0.1-0.1 0.3-0.1 0.5 0.1z"/>
					<path id="&lt;Path&gt;" class="s0" d="m661.4 48.3c0.1 0.1 0.1 0.3 0 0.4-0.1 0.1-0.3 0.1-0.4 0-0.2-0.1-0.2-0.3-0.1-0.5 0.2-0.1 0.4-0.1 0.5 0.1z"/>
					<path id="&lt;Path&gt;" class="s0" d="m661.4 52.5c0.1 0.1 0.1 0.3 0 0.4-0.1 0.2-0.3 0.2-0.4 0-0.2-0.1-0.2-0.3-0.1-0.4 0.1-0.1 0.3-0.1 0.5 0z"/>
					<path id="&lt;Path&gt;" class="s0" d="m756.9 121.5c0.2 0.2 0.2 0.6 0 0.8-0.2 0.2-0.5 0.2-0.7-0.1-0.2-0.2-0.3-0.5-0.1-0.7 0.2-0.2 0.5-0.2 0.8 0z"/>
					<path id="&lt;Path&gt;" class="s0" d="m751.5 122.9c0.2 0.2 0.2 0.5 0.1 0.7-0.2 0.2-0.6 0.2-0.8 0-0.2-0.2-0.2-0.5 0-0.7 0.1-0.2 0.5-0.2 0.7 0z"/>
					<path id="&lt;Path&gt;" class="s0" d="m752.6 122c0.1 0.1 0.1 0.3 0 0.4-0.1 0.1-0.2 0.1-0.3 0-0.2-0.1-0.2-0.3-0.1-0.4 0.1-0.1 0.3-0.1 0.4 0z"/>
					<path id="&lt;Path&gt;" class="s0" d="m752.9 123.4c0.1 0 0.1 0.2 0 0.2 0 0.1-0.1 0.1-0.2 0-0.1-0.1-0.1-0.2 0-0.2 0-0.1 0.2-0.1 0.2 0z"/>
					<path id="&lt;Path&gt;" class="s0" d="m756 118.9q0.1 0 0 0.1-0.1 0-0.1 0-0.1-0.1 0-0.1 0-0.1 0.1 0z"/>
					<path id="&lt;Path&gt;" class="s0" d="m751.8 122.7q0 0.1 0 0.1-0.1 0.1-0.1 0-0.1-0.1 0-0.1 0-0.1 0.1 0z"/>
					<path id="&lt;Path&gt;" class="s0" d="m753 122.2q0.1 0 0.1 0.1-0.1 0.1-0.2 0 0-0.1 0-0.1 0.1-0.1 0.1 0z"/>
					<path id="&lt;Path&gt;" class="s0" d="m753 118.9c0 0.1 0 0.2 0 0.3-0.1 0-0.2 0-0.3 0 0-0.1-0.1-0.2 0-0.3 0.1-0.1 0.2-0.1 0.3 0z"/>
					<path id="&lt;Path&gt;" class="s0" d="m752.9 121.2c0.1 0.1 0.1 0.2 0.1 0.3-0.1 0.1-0.2 0-0.3 0-0.1-0.1-0.1-0.2 0-0.3 0.1 0 0.2 0 0.2 0z"/>
					<path id="&lt;Path&gt;" class="s0" d="m653.1 57c0.1 0.1 0.1 0.3 0 0.4-0.1 0.2-0.3 0.2-0.5 0-0.1-0.1-0.1-0.3 0-0.4 0.1-0.1 0.3-0.1 0.5 0z"/>
				</g>
				<g id="&lt;Group&gt;">
					<g id="&lt;Group&gt;">
					</g>
					<g id="&lt;Group&gt;">
					</g>
				</g>
				<g id="&lt;Group&gt;">
					<path id="&lt;Path&gt;" class="s17" d="m882 257.4v0.1c-0.1 1.4-1.5 12.5-2 15-0.5 2.7-1.5 2.7-1.5 2.7 0 0-2.8 7.7-5.2 9-2.5 1.2-10-0.5-10-0.5 0 0-9.6-7.2-11.2-25.3 0 0 9-4.3 15.3-4 6.4 0.3 14.6 3 14.6 3z"/>
					<path id="&lt;Path&gt;" class="s18" d="m882 257.5c-0.1 1.4-1.5 12.5-2 15-0.5 2.7-1.5 2.7-1.5 2.7 0 0-2.8 7.7-5.2 9-2.5 1.2-10-0.5-10-0.5 0 0-9.6-7.2-11.2-25.3 0 0 2.5 12.4 6.8 17.5 4.3 5.1 8.9 3.2 8.9 3.2l4.3-9.6 2.1-7.6 1.5-3.3 2 6.4-1 6.4h2.8z"/>
					<path id="&lt;Path&gt;" class="s19" d="m852.1 258.4l8.3-0.1 7.8-0.8 10.3-0.1 3.5 0.1c0 0-8.8-3.4-13.9-3.9-5-0.5-16 4.8-16 4.8z"/>
				</g>
			</g>
		</g>
	</g>
</svg>