<svg version="1.2" xmlns="http://www.w3.org/2000/svg" viewBox="0 0 1000 400" width="1000" height="400">
	<title>2107</title>
	<defs>
		<clipPath clipPathUnits="userSpaceOnUse" id="cp1">
			<path d="m1000 400h-1000v-400h1000z"/>
		</clipPath>
		<linearGradient id="g1" x2="1" gradientUnits="userSpaceOnUse" gradientTransform="matrix(-3.045,-78.018,56.248,-2.195,805.498,300.847)">
			<stop offset="0" stop-color="#1f4d95"/>
			<stop offset=".978" stop-color="#291689"/>
		</linearGradient>
		<linearGradient id="g2" x2="1" gradientUnits="userSpaceOnUse" gradientTransform="matrix(0,-18.092,6.416,0,820.917,208.645)">
			<stop offset="0" stop-color="#0e2463"/>
			<stop offset="1" stop-color="#004d93"/>
		</linearGradient>
	</defs>
	<style>
		.s0 { fill: #394fdd } 
		.s1 { fill: url(#g1) } 
		.s2 { fill: url(#g2) } 
	</style>
	<g id="_Artboards_">
	</g>
	<g id="layer1">
		<g id="&lt;Group&gt;">
			<g id="&lt;Clip Group&gt;" clip-path="url(#cp1)">
				<g id="&lt;Group&gt;">
					<path id="&lt;Path&gt;" class="s0" d="m720.7 237.3l1.9 12.2c0 0 6.4 2.1 7.4 4.2 1 2.1 5.1 39.9 5.1 39.9l4.5 3.4c0 0 2.8 7 5 6.2 2.3-0.8 4.6-10.2 4.6-10.2 0 0 0.4-0.4 0.9-1.1 0.6-0.8 1.3-1.8 2.1-3.2 1-1.6 2.2-7.9 2.9-12.5 0.4-2.8 0.7-4.9 0.7-4.9l11.3-2.4 1.4-2.8 9.4-5.7c2.7-14-0.2-31.6-0.2-31.6-3.1-2.4-17.3-5.7-22-5.3-4.4 0.4-13.5 3.5-14.6 3.8l-0.2 0.1-1.5 8.9c-7.5-2.2-18.7 1-18.7 1z"/>
					<path id="&lt;Path&gt;" class="s1" d="m720.7 237.3l1.9 12.2c0 0 6.4 2.1 7.4 4.2 1 2.1 5.1 39.9 5.1 39.9l4.5 3.4c0 0 2.8 7 5 6.2 2.3-0.8 4.6-10.2 4.6-10.2 0 0 0.4-0.4 0.9-1.1l-2.3-1.1-4.2 3.7-1.9-5.1-1.1-28.1 6.1 1.8 7.2 8.4 1.2 4.7c0.4-2.8 0.7-4.9 0.7-4.9l11.3-2.4 1.4-2.8 9.4-5.7-6.4 1.1-0.9-6.6-2.2 9.8-2.9 0.1-6.7-1.8c0 0-2.1-4.3-2.7-6.6-0.6-2.2-2-17.1-2-17.1l-0.6-13.5-3.6-0.9-8.8 2.4-0.2 0.1-1.5 8.9c-7.5-2.2-18.7 1-18.7 1z"/>
				</g>
				<g id="&lt;Group&gt;">
					<path id="&lt;Path&gt;" class="s0" d="m795.7 208.6c1.2-0.3 2.1-3 2.8-5.5l0.1-0.3c0.4-1.2 0.7-2.3 0.9-3 0.9-2.4 1.8-8.1 0-9.4-1.5-1-3.4-0.6-4.9 0.2-1.3 0.7-2.3 1.7-2.4 2.2-0.1 1.1 1.8 16.4 3.5 15.8z"/>
					<path id="&lt;Path&gt;" class="s2" d="m795.7 208.6c1.2-0.3 2.1-3 2.8-5.5l0.1-0.3h-1.7l-1.5-2.1-0.8-10.1c-1.3 0.7-2.3 1.7-2.4 2.2-0.1 1.1 1.8 16.4 3.5 15.8z"/>
				</g>
			</g>
		</g>
	</g>
</svg>