<svg version="1.2" xmlns="http://www.w3.org/2000/svg" viewBox="0 0 1000 400" width="1000" height="400">
	<title>2107</title>
	<defs>
		<clipPath clipPathUnits="userSpaceOnUse" id="cp1">
			<path d="m1019.98 0v409.9h-1025.16v-409.9z"/>
		</clipPath>
		<linearGradient id="g1" x2="1" gradientUnits="userSpaceOnUse" gradientTransform="matrix(0,-19,1017,0,480.377,400)">
			<stop offset="0" stop-color="#232824"/>
			<stop offset=".205" stop-color="#232824"/>
			<stop offset=".99" stop-color="#232824"/>
			<stop offset="1" stop-color="#232824"/>
		</linearGradient>
		<linearGradient id="g2" x2="1" gradientUnits="userSpaceOnUse" gradientTransform="matrix(0,-151.673,1024.025,0,500.646,385.776)">
			<stop offset="0" stop-color="#232824"/>
			<stop offset=".205" stop-color="#1c201d"/>
			<stop offset=".99" stop-color="#000000"/>
			<stop offset="1" stop-color="#000000"/>
		</linearGradient>
		<linearGradient id="g3" x2="1" gradientUnits="userSpaceOnUse" gradientTransform="matrix(551.033,0,0,54.688,116.955,337.501)">
			<stop offset="0" stop-color="#fc72ec"/>
			<stop offset="1" stop-color="#bd29b3"/>
		</linearGradient>
		<linearGradient id="g4" x2="1" gradientUnits="userSpaceOnUse" gradientTransform="matrix(217.996,0,0,19.423,293.182,367.353)">
			<stop offset="0" stop-color="#200377"/>
			<stop offset="1" stop-color="#005497"/>
		</linearGradient>
		<linearGradient id="g5" x2="1" gradientUnits="userSpaceOnUse" gradientTransform="matrix(117.181,0,0,14.75,729.369,376.441)">
			<stop offset="0" stop-color="#200377"/>
			<stop offset="1" stop-color="#005497"/>
		</linearGradient>
		<linearGradient id="g6" x2="1" gradientUnits="userSpaceOnUse" gradientTransform="matrix(187.99,0,0,24.848,288.303,346.033)">
			<stop offset="0" stop-color="#232824"/>
			<stop offset="1" stop-color="#005791"/>
		</linearGradient>
		<linearGradient id="g7" x2="1" gradientUnits="userSpaceOnUse" gradientTransform="matrix(0,-31.24,7.69,0,412.579,283.874)">
			<stop offset="0" stop-color="#0168dd"/>
			<stop offset=".994" stop-color="#86f9ff"/>
		</linearGradient>
		<linearGradient id="g8" x2="1" gradientUnits="userSpaceOnUse" gradientTransform="matrix(0,-23.293,22.053,0,425.275,328.8)">
			<stop offset="0" stop-color="#200377"/>
			<stop offset="1" stop-color="#005497"/>
		</linearGradient>
		<linearGradient id="g9" x2="1" gradientUnits="userSpaceOnUse" gradientTransform="matrix(0,-28.511,26.184,0,402.333,339.805)">
			<stop offset="0" stop-color="#200377"/>
			<stop offset="1" stop-color="#005497"/>
		</linearGradient>
		<linearGradient id="g10" x2="1" gradientUnits="userSpaceOnUse" gradientTransform="matrix(0,-94.817,14.263,0,162.255,348.834)">
			<stop offset="0" stop-color="#200377"/>
			<stop offset="1" stop-color="#005497"/>
		</linearGradient>
		<linearGradient id="g11" x2="1" gradientUnits="userSpaceOnUse" gradientTransform="matrix(0,-5.988,45.708,0,631.044,368.522)">
			<stop offset="0" stop-color="#200377"/>
			<stop offset="1" stop-color="#005497"/>
		</linearGradient>
		<linearGradient id="g12" x2="1" gradientUnits="userSpaceOnUse" gradientTransform="matrix(0,-9.22,29.263,0,522.654,358.172)">
			<stop offset="0" stop-color="#200377"/>
			<stop offset="1" stop-color="#005497"/>
		</linearGradient>
		<linearGradient id="g13" x2="1" gradientUnits="userSpaceOnUse" gradientTransform="matrix(47.175,0,0,9.21,217.16,323.939)">
			<stop offset="0" stop-color="#200377"/>
			<stop offset="1" stop-color="#005497"/>
		</linearGradient>
		<linearGradient id="g14" x2="1" gradientUnits="userSpaceOnUse" gradientTransform="matrix(18.697,0,0,4.61,147.754,323.591)">
			<stop offset="0" stop-color="#200377"/>
			<stop offset="1" stop-color="#005497"/>
		</linearGradient>
		<linearGradient id="g15" x2="1" gradientUnits="userSpaceOnUse" gradientTransform="matrix(19.69,0,0,7.865,73.581,314.748)">
			<stop offset="0" stop-color="#200377"/>
			<stop offset="1" stop-color="#005497"/>
		</linearGradient>
		<linearGradient id="g16" x2="1" gradientUnits="userSpaceOnUse" gradientTransform="matrix(33.487,0,0,8.158,419.378,339.257)">
			<stop offset="0" stop-color="#200377"/>
			<stop offset="1" stop-color="#005497"/>
		</linearGradient>
		<radialGradient id="g17" cx="0" cy="0" r="1" gradientUnits="userSpaceOnUse" gradientTransform="matrix(87.602,0,0,87.602,428.51,372.691)">
			<stop offset="0" stop-color="#bf2e90"/>
			<stop offset="1" stop-color="#000000"/>
		</radialGradient>
		<radialGradient id="g18" cx="0" cy="0" r="1" gradientUnits="userSpaceOnUse" gradientTransform="matrix(44.48,0,0,44.48,563.394,379.125)">
			<stop offset="0" stop-color="#bf2e90"/>
			<stop offset="1" stop-color="#000000"/>
		</radialGradient>
		<linearGradient id="g19" x2="1" gradientUnits="userSpaceOnUse" gradientTransform="matrix(NaN,NaN,NaN,NaN,NaN,NaN)">
			<stop offset="0" stop-color="#232824"/>
			<stop offset=".205" stop-color="#1c201d"/>
			<stop offset=".99" stop-color="#000000"/>
			<stop offset="1" stop-color="#000000"/>
		</linearGradient>
	</defs>
	<style>
		.s0 { fill: url(#g1) } 
		.s1 { fill: url(#g2) } 
		.s2 { fill: url(#g3) } 
		.s3 { fill: url(#g4) } 
		.s4 { fill: #4ca4ed } 
		.s5 { fill: #394fdd } 
		.s6 { fill: url(#g5) } 
		.s7 { fill: url(#g6) } 
		.s8 { fill: #9800ac } 
		.s9 { fill: #b23ad8 } 
		.s10 { fill: #1f0a70 } 
		.s11 { fill: url(#g7) } 
		.s12 { fill: url(#g8) } 
		.s13 { fill: url(#g9) } 
		.s14 { fill: url(#g10) } 
		.s15 { fill: url(#g11) } 
		.s16 { fill: url(#g12) } 
		.s17 { fill: url(#g13) } 
		.s18 { fill: url(#g14) } 
		.s19 { fill: url(#g15) } 
		.s20 { fill: url(#g16) } 
		.s21 { fill: #ffffff } 
		.s22 { mix-blend-mode: screen;fill: url(#g17) } 
		.s23 { mix-blend-mode: screen;fill: url(#g18) } 
		.s24 { fill: url(#g19) } 
	</style>
	<g id="_Artboards_">
	</g>
	<g id="layer1">
		<g id="&lt;Group&gt;">
			<g id="&lt;Clip Group&gt;" clip-path="url(#cp1)">
				<g id="&lt;Group&gt;">
					<path id="Shape 2" class="s0" d="m1000 381v19h-1017v-19z"/>
					<path id="&lt;Path&gt;" class="s1" d="m-0.2 307.9c0 0 35.2 0 40.7 0 5.6 0 17.2 0.3 19.5-0.4 4.9-1.3 13.9-6.3 20.6-6.8 15.5 5.4 58.5 10.9 67.7 10.9 9.1 0 14.2-2 14.2-2l5 3.9c0 0 41.3-1.5 50.2-3 8.9-1.5 29.4-5.6 34.6-6.3 5.2-0.8 5.2-0.8 5.2-0.8l7.8 10.1c0 0 61.1 1.5 68.1 3 7.1 1.5 40.4 2.2 40.4 2.2l9.5-1.8c0 0 28.7-15.7 38-19.1 0 0 14.6-8.2 20.5-8.9 5.9-0.7 7.8 2.6 7.8 2.6 0 0-2.3 7.8-2.3 10.4 0 2.7 8.9 21.3 8.9 21.3 0 0 4-4.1 5-7.1 1-3 2.4-26.5 3.4-29.6 1-3.2 7.9-11.9 7.9-11.9 0 0 1.3-20.2 2.4-23.5 1.1-3.2 1.1-11.5 2.2-13.9 0 0 3.1-4.6 4.2-2.6 1 2.1-0.4 28.2 0 32.7 0.3 4.5 1.6 15.9 1.9 18.4 0.2 2.5 0 21.5 0 21.5 0 0 0 17.5 1.4 20.8 1.4 3.4 27.2 9.7 27.2 9.7 0 0 8-4.4 14.4-4.1 6.4 0.4 8 2.3 11.1 4.1 3.1 1.9 77.8 6.4 84.9 6.4 7.1 0 23.3 2.2 25.7 4.4 2.3 2.3 11.9-1.1 19.7 0 7.9 1.2 39.3 0.5 42.8 0.8 3.4 0.4 13.1-2.6 13.1-2.6 0 0 28.6 3.3 35.9 5.2 7.3 1.9 13.8 0 13.8 0 0 0 15.4 2.6 20.3 4.1 4.8 1.5 30.6 5.2 38 6 7.4 0.7 12.6 6.3 20.4 6.3 7.8 0 172 17.5 172 17.5h-140.1-884z"/>
					<path id="&lt;Path&gt;" class="s2" d="m668 391.2c0 0-66.5-4.1-66.7-6.6-0.1-2.5 4.2-3.8 4.2-3.8 0 0-42.9-5.2-53.1-5.6-10.3-0.4-27.1 3-27.1 3 0 0-18.2-2.2-24-3-5.8-0.9-20-4.3-20-4.3 0 0-88.8-11.2-105.2-13-16.4-1.7-36.8-5.6-36.8-5.6 0 0-28.3-2.4-46-4.9-17.7-2.4-46-9.1-56.6-8.5-10.7 0.5-23.6 2.9-34.4 0-10.8-3-30.6-0.2-38.3-0.3-7.8-0.1-47 2.7-47 2.7l9.4 6.1c0 0 60.8 6.3 74.2 7.5 13.4 1.2 72.8 3.9 84.2 5 11.5 1.1 86.1 5.3 97.3 8.6 11.2 3.2 47.5 12.3 47.5 12.3 0 0 25-1.7 39.9-3 14.8-1.3 69.1 4.3 76.9 4.3 7.8 0 48.3 2.5 48.3 2.5 0 0 12.2 6.2 17.1 7.2 4.9 1.1 56.2-0.6 56.2-0.6z"/>
					<path id="&lt;Path&gt;" class="s3" d="m328.1 373.4c0 0 52 5.2 61.5 4.8 9.5-0.5 103.2 6.5 103.2 6.5l18.4 2.1h-68.9c0 0-45.4-1.5-60.5-2.1-15.1-0.5-51.4-10.4-59.8-11.3-8.3-0.8-28.8-1.8-28.8-1.8 0 0 18.9-4.7 24.6-4.2 5.8 0.4 10.3 6 10.3 6z"/>
					<path id="&lt;Path&gt;" class="s4" d="m377.7 334.3c0 0 16 0.2 23.5 0 7.4-0.2 18.9-6.6 22.1-8.6 3.1-2 4-11.8 2.5-14.9-1.4-3.2-45.6 20-48.1 23.5z"/>
					<path id="&lt;Path&gt;" class="s5" d="m428.8 309.3c-2.3 2.7 9.4 0 13.1 0 3.8 0 6.7-3.8 6.7-3.8 0 0-10.8-6.6-19.8 3.8z"/>
					<path id="&lt;Path&gt;" class="s5" d="m463.6 300.5c0 0 8.8 1 12-1.1 3.1-2.2 4.8-12 4.8-12l-8.9 1.2c0 0-7.2 7.3-7.9 11.9z"/>
					<path id="&lt;Path&gt;" class="s5" d="m483.6 342c0 0-10.9 5.6-15.5 6.7 0 0 15.5 1.5 25.9 2.3 10.3 0.9 15.5 0.4 15.5 0.4 0 0-21.8-7.4-25.9-9.4z"/>
					<path id="&lt;Path&gt;" class="s5" d="m512.2 351c0 0 3.6 1.4 10.8 1.3 7.2-0.1 8.6-3.3 8.6-3.3 0 0-9.3-4.9-19.4 2z"/>
					<path id="&lt;Path&gt;" class="s5" d="m209 327.6c0 0 35.1-10.5 47.5-10.2l3.9 6.5c0 0-22.6 11-51.4 3.7z"/>
					<path id="&lt;Path&gt;" class="s5" d="m147.3 325.6c0 0 7.6 1.5 11.7 1.7 4 0.2 6.1-0.8 6.1-0.8l-3.6-2.9c0 0-9.1-0.2-14.2 2z"/>
					<path id="&lt;Path&gt;" class="s5" d="m79.6 314.7c0 0-11.1 0.3-20.6 6.8 0 0 9 2.6 14.6 0.9 5.6-1.6 8-5.7 6-7.7z"/>
					<path id="&lt;Path&gt;" class="s5" d="m570.8 363.9c0 0 39.3-6.7 50.4-5.8 11.2 0.9 25.7 4.4 25.7 4.4 0 0-25.3 4-34.1 4.3-8.9 0.2-42-2.9-42-2.9z"/>
					<path id="&lt;Path&gt;" class="s5" d="m711.4 364.8l11.1-4.1c0 0 19.8 2.8 28.4 7.8 0 0-20.8-2-39.5-3.7z"/>
					<path id="&lt;Path&gt;" class="s5" d="m772.2 365.9l-8.3 2.6c0 0 15.1 2.4 33.2 5.2 0 0-13.9-8.4-24.9-7.8z"/>
					<path id="&lt;Path&gt;" class="s6" d="m833.2 376.4c0 0-18.1 7.3-25.8 8.2-7.7 1-43.5 5.5-43.5 5.5l-34.5 1.1c0 0 41.4-0.5 57.5 0 16.2 0.4 59.6-9.5 59.6-9.5 0 0-6.1-4.2-13.3-5.3z"/>
					<path id="&lt;Path&gt;" class="s7" d="m288.3 347.4c0 0 41.4 4.1 48.5 5.3 7.1 1.3 60.3 8.3 74.4 10.1 14.1 1.7 65.1 8.1 65.1 8.1 0 0-55.7-14.7-61.3-15.9-5.5-1.1-30.8-3.5-35-3.5-4.2 0.1-23.3 1.9-40.4-1.7-31.6-6.7-51.3-2.4-51.3-2.4z"/>
					<path id="&lt;Path&gt;" class="s8" d="m422.8 364.6l1.8 16.2 39.9-3 7.5-6.9z"/>
					<path id="&lt;Path&gt;" class="s8" d="m520.9 380.7l-0.6-2.5c0 0 19.2-3.2 24.1-3 5 0.1 17.1 1.2 17.1 1.2l1.9 6.7z"/>
					<path id="&lt;Path&gt;" class="s8" d="m592.3 379.8l-2.6 4.8 6.6 3.2v-3.2l4.2-3.8c0 0-5.7-0.7-8.2-1z"/>
					<path id="&lt;Path&gt;" class="s8" d="m622.8 388.3l10.4 3.7 29.8-0.8z"/>
					<path id="&lt;Path&gt;" class="s9" d="m254 342l10 17.8 25.6 0.8 27 1.8 25.3 2v-10.1l-10.6-2c0 0-73.5-7.7-77.3-10.3z"/>
					<path id="&lt;Path&gt;" class="s9" d="m382.3 359.9l5.2 11.4 37.1 9.5-1.8-16.2z"/>
					<path id="&lt;Path&gt;" class="s10" d="m363 381.6v4.8l-28.8-1.8c0 0 17.5-5 28.8-3z"/>
					<path id="&lt;Path&gt;" class="s10" d="m456.1 384.2l0.9 7.6h63.2l2.3-3.8c0 0-47.2-5.5-66.4-3.8z"/>
					<path id="&lt;Path&gt;" class="s11" d="m475.7 252.6c0 0-3 15.3-2.9 16.8 0.2 1.5-0.8 14.5-0.8 14.5 0 0 2-5.3 1.8-5.9-0.1-0.5 0.6-4.5 0.6-4.5 0 0-0.8-3.6 0-5.2 0.7-1.7 2.9-3.4 2.9-3.4l0.7 6.5 1.7-13.8z"/>
					<path id="&lt;Path&gt;" class="s12" d="m426.5 311.3l2 17.2c0 0 12.5 1.3 14.6-1.7 2-2.9 3.2-10.9 3.2-10.9l2.3-10.4c0 0-0.9 2.6-6.7 3.8-5.7 1.1-15.4 2-15.4 2z"/>
					<path id="&lt;Path&gt;" class="s13" d="m404.7 334.4c0 0 5.6 5.2 8.2 5.4 2.6 0.1 12.7-0.9 12.7-0.9 0 0 4.8-6.2 5.3-8.3 0.4-2.2-4.4-19.3-4.4-19.3 0 0-0.7 11.6-1.9 13-1.3 1.4-13.7 8.4-19.9 10.1z"/>
					<path id="&lt;Path&gt;" class="s14" d="m475.6 299.4c0 0-2 19.7-1.2 20.8 0.7 1.2 1.5 5.3 1.9 6.6 0.4 1.3-1.9 13.7-1.9 13.7l-5 8.3 14.2-6.8c0 0-0.4-21.5-0.3-24.8 0-3.3 0-17.8 0-17.8l-1.1 0.3-1.7-15.8-0.2-13.1 0.4-14.5v-2.3c0 0-1.6 7.1-2.1 8.1-0.6 1.1 0.3 17.2 0.3 17.2l-0.3 8.2 1.7 0.5c0 0-2.4 8.6-4.7 11.4z"/>
					<path id="&lt;Path&gt;" class="s15" d="m646.9 362.5l-28.9 4.3h-9.4c0 0 12.6 1 19.1 1.7 6.5 0.7 26.6-5.5 26.6-5.5z"/>
					<path id="&lt;Path&gt;" class="s16" d="m538.7 352.3c0 0-6.2 4.6-10.2 5.7-4.1 1.1-19-2.9-19-2.9l9.5 0.1 2.6-2.9c0 0 7.4-1.1 10-3.3z"/>
					<path id="&lt;Path&gt;" class="s17" d="m264.3 327.5c0 0-7.1 4.1-11.8 5.2-4.6 1-27 0-27 0l-8.3-2.6c0 0 16.6 0.7 27.6-1.8 10.9-2.5 15.6-4.4 15.6-4.4z"/>
					<path id="&lt;Path&gt;" class="s18" d="m161.5 323.6l-4.4 1.8h-9.3c0 0 10.8 4.5 18.7 2.1z"/>
					<path id="&lt;Path&gt;" class="s19" d="m79.6 314.7c0 0-2.7 6.2-6 7.7 0 0 11.3 1.5 19.7-3.8z"/>
					<path id="&lt;Path&gt;" class="s20" d="m452.9 339.3v8.1c0 0-4.4-0.1-9.8-0.1-5.5 0-12.2-1.3-12.2-1.3l-11.5-6.7c0 0 20 0.8 26 0.5 6-0.3 7.5-0.5 7.5-0.5z"/>
					<path id="&lt;Path&gt;" class="s4" d="m419.4 339.3c0 0 20-6.6 24.6-6.6 4.6-0.1 8.9 6.6 8.9 6.6 0 0-2.5 2-8.9 2-6.4-0.1-24.6-2-24.6-2z"/>
					<path id="&lt;Path&gt;" class="s4" d="m461.5 329.7c0 0-4.7 4.7-6.3 7.5 0 0 8.4 2.7 12.9 2.1 4.5-0.7 6.3-4.8 6.3-4.8l-1.3-0.1 1.3-2.6c0 0-7.2-4-12.9-2.1z"/>
					<path id="&lt;Path&gt;" class="s5" d="m473.9 265.1c0 0 3-0.4 4.1-1.9 1.2-1.4 2.7-9.2 2.7-9.2l-0.3-6.5c0 0-3-0.4-4.1 1.5-1.1 1.8-2.4 16.1-2.4 16.1z"/>
					<path id="&lt;Path&gt;" class="s21" d="m480.7 378l-12-0.4c0 0-39.8-3.3-42.4-3.4-2.5-0.2-56.5-9.8-56.5-9.8 0 0-40.6-0.5-46.2-0.8-5.6-0.2-75.9-7.8-79.3-7.5-3.4 0.2-74.4-3.8-74.4-3.8 0 0 51 4.1 55.6 4.4 4.6 0.4 80.3 6.6 86.3 6.6 6 0 59.7 5.2 59.7 5.2 0 0 51.6 12.3 55 12.3 3.4 0 41.6-1.7 41.6-1.7z"/>
					<path id="&lt;Path&gt;" class="s21" d="m525.2 380.8c0 0 36.5-0.4 40.6 0 4.1 0.4 22.8 3.8 22.8 3.8z"/>
					<path id="&lt;Path&gt;" class="s22" d="m428.5 394.4c-48.4 0-87.6-9.7-87.6-21.7 0-12 39.2-21.7 87.6-21.7 48.5 0 87.6 9.7 87.6 21.7 0 12-39.1 21.7-87.6 21.7z"/>
					<path id="&lt;Path&gt;" class="s23" d="m563.4 394.6c-24.6 0-44.5-6.9-44.5-15.5 0-8.5 19.9-15.4 44.5-15.4 24.6 0 44.5 6.9 44.5 15.4 0 8.6-19.9 15.5-44.5 15.5z"/>
					<path id="Shape 1" class="s24" d=""/>
				</g>
			</g>
		</g>
	</g>
</svg>