<svg version="1.2" xmlns="http://www.w3.org/2000/svg" viewBox="0 0 1000 400" width="1000" height="400">
	<title>2107</title>
	<defs>
		<clipPath clipPathUnits="userSpaceOnUse" id="cp1">
			<path d="m1000 400h-1000v-400h1000z"/>
		</clipPath>
		<radialGradient id="g1" cx="0" cy="0" r="1" gradientUnits="userSpaceOnUse" gradientTransform="matrix(62.343,-62.343,62.343,62.343,450.699,101.599)">
			<stop offset="0" stop-color="#40ccff"/>
			<stop offset="1" stop-color="#000000"/>
		</radialGradient>
		<radialGradient id="g2" cx="0" cy="0" r="1" gradientUnits="userSpaceOnUse" gradientTransform="matrix(185.289,0,0,185.289,427.741,70.048)">
			<stop offset="0" stop-color="#5eceff"/>
			<stop offset=".994" stop-color="#cdffff"/>
		</radialGradient>
		<linearGradient id="g3" x2="1" gradientUnits="userSpaceOnUse" gradientTransform="matrix(0,-179.004,178.484,0,361.843,191.175)">
			<stop offset="0" stop-color="#e8ddff"/>
			<stop offset="1" stop-color="#aa8ad8"/>
		</linearGradient>
		<radialGradient id="g4" cx="0" cy="0" r="1" gradientUnits="userSpaceOnUse" gradientTransform="matrix(21.638,54.811,-54.811,21.638,446,90.778)">
			<stop offset=".941" stop-color="#000000"/>
			<stop offset="1" stop-color="#008bab"/>
		</radialGradient>
	</defs>
	<style>
		.s0 { mix-blend-mode: screen;fill: url(#g1) } 
		.s1 { fill: url(#g2) } 
		.s2 { opacity: .2;mix-blend-mode: multiply;fill: url(#g3) } 
		.s3 { fill: #b5ffff } 
		.s4 { fill: #daffff } 
		.s5 { mix-blend-mode: screen;fill: url(#g4) } 
	</style>
	<g id="_Artboards_">
	</g>
	<g id="layer1">
		<g id="&lt;Group&gt;">
			<g id="&lt;Clip Group&gt;" clip-path="url(#cp1)">
				<g id="&lt;Group&gt;">
					<g id="&lt;Group&gt;">
						<g id="&lt;Group&gt;">
						</g>
						<g id="&lt;Group&gt;">
							<path id="&lt;Path&gt;" class="s0" d="m513 39.3c34.2 34.1 33.9 89.7-0.5 124.1-34.4 34.4-90 34.7-124.1 0.5-34.2-34.1-33.9-89.7 0.5-124.1 34.4-34.4 90-34.7 124.1-0.5z"/>
						</g>
						<path id="&lt;Path&gt;" class="s1" d="m540.8 101.7c0 21.7-7.7 41.7-20.6 57.2-16.4 19.7-41.2 32.3-68.9 32.3-42 0-77.2-29-86.9-68-1.7-6.9-2.6-14.1-2.6-21.5q0-4.9 0.6-9.7 0.3-3 0.8-6c7.4-41.9 44.1-73.8 88.1-73.8 12.3 0 24 2.4 34.7 6.9q0 0 0 0c16.5 7 30.5 18.7 40.2 33.6 9.3 14 14.6 30.9 14.6 49z"/>
						<path id="&lt;Path&gt;" class="s2" d="m540.8 101.7c0 49.4-40 89.5-89.5 89.5-42 0-77.2-29-86.9-68q0.4 0.5 0.8 1c0.5 0.7 0.7 1.4 1 2.1 0.1 0.5 0.1 1 0.2 1.4 0.3 0.8 0.9 1.1 0.6 0.3 0.4 0.8 0.5 1.6 0.8 2.4 0.6 1.1 1 2.2 1.3 3.5 0.3 0.9 0.5 2 0.8 3 0.3 0.9 0.8 1.7 1.1 2.6 1.1 2.8 2.7 5.1 4.3 7.5 0.5 0.7 0.7 1.4 1.2 2 0.4 0.7 1.1 1.3 1.6 1.9 0.5 0.7 1.4 1.2 2.1 1.6 0.8 0.5 1.4 1.1 2.2 1.6 1.2 0.9 2.8 1.1 4.3 1.1 1.7 0 3.3-0.5 5-0.1 2.8 0.8 3.2 4.5 4.7 6.6 0.6 0.9 1.6 1.4 2.7 1.7 1.2 0.3 2.2 0.7 3.2 1.5 0.8 0.6 1.8 1.1 2.7 1.1 1.1 0.1 0.8-0.5 0.8-1.4 0-1.3-0.9-2-1.6-3-0.4-0.5-0.5-1.1-0.8-1.8-0.2-0.4-0.4-0.6-0.2-1 0.6 0 1.3 0.6 1.8 1 1.1 0.9 2.5 1.4 3.8 2 0.6 0.3 1.1 0.6 1.7 1 0.3 0.2 0.7 0.6 1 0.7 1 0.4 2.2-1.2 2.4-2 0.2-0.9-0.2-2.3-0.8-2.9-1.2-1.2-2.2-2.5-3.2-3.9-1-1.4-2.3-2.8-3.1-4.4-0.7-1.6-1.4-3.5-1.2-5.3 0.1-1.1 0.6-2.3 0.9-3.4 0.2-0.5 0.3-1.3 0.6-1.8 0.5-0.7 1.5-0.6 2.2-0.4 1.3 0.2 2.9 0.2 4.1 0.8 1.1 0.7 1.8 2.2 3.2 2.3 2.1 0.3 4-1.5 5.4-2.9 1.2-1.2 2.6-3.3 4.4-3.8 1-0.3 2 0.4 3 0.7 0.4 0.1 0.9 0.3 1.4 0.4 0.8 0.1 1.4-0.3 2-0.7 1.6-0.9 3-0.8 4.7-0.3 0.7 0.2 1.3 0.7 1.9 1.1q1.5 1.1 3.1 2.1c1 0.6 1.8 1.2 2.3 2.3 0.1 0.5 0.1 0.7 0 1.3-0.1 0.3-0.3 0.8-0.1 1.2 0.3 0.6 1.2 0.8 1.7 1.1 0.7 0.4 1.4 1 2 1.6 1.7 1.5 2.3 3.2 2.5 5.4 0.1 1.2-0.1 2.5-1 3.4-1 1.1-2.7 1.1-3.6 2.2-0.7 0.9-0.9 2.2-1.1 3.3-0.1 0.7 0 1.3-0.2 1.9-0.4 0.8-0.9 1.6-1.3 2.4-0.3 0.6-0.8 1.2-1 1.8-0.1 0.4-0.2 0.8-0.4 1.2-0.4 0.9-1.1 1.6-1.9 2.1-1.2 0.7-2.3 1.4-3.7 1.4-0.8 0-1.8 0.2-2.6 0-0.2-0.1-0.4-0.2-0.6-0.3-0.3-0.1-0.6-0.1-0.9-0.2-0.8-0.3-1-0.6-1.5-1.4-0.4-0.7-0.8-1.1-1.4-1.5-0.5-0.3-1.1-0.5-1.6-0.8-0.3-0.2-0.9-0.2-1.2-0.5-0.6-0.5 0.1-1 0.4-1.5 0.7-1.1 1.5-2.3 2.5-3.1q0.7-0.6 1.4-0.8c0.8-0.2 1.2-0.1 1.8 0.3 0.7 0.4 0.9 0.8 1.3 1.5-0.3 0.3-0.8 0.7-1.2 0.9-0.4 0.1-1 0-1.1 0.6 1.2 1.2 2.1 1.9 3.7 0.8 0.8-0.6 2.8-1.6 2.8-2.8-0.1-0.6-1.3-1.4-1.7-1.7-0.5-0.4-1-0.6-1.4-1-0.5-0.4-0.7-0.9-1.1-1.3-0.5-0.5-1-0.8-1.5-1.3-0.4-0.4-0.9-0.5-1.4-0.7-0.6-0.3-1-0.7-1.6-0.9-0.6-0.2-1.7-0.6-2.4-0.5-1.6 0-3.2 1.6-4.1 2.7-0.8 1.1-2.3 3-1.8 4.4 0.2 0.5 0.8 0.8 1 1.2 0.1 0.3 0.2 0.8 0.3 1 0.2 0.8 0 1.5 0.2 2.4 0.8 2.4 1.2 5.3 3.7 6.6 0.4 0.2 0.7 0.4 1.2 0.6 0.4 0.1 0.9 0.1 1.4 0.3 0.9 0.4 1.7 0.8 2.7 1 1.2 0.2 2.3 0.3 3.5 0.3 1.5 0 3.1 0.1 4.6-0.5 0.7-0.4 1.8-1.1 2.4-1.7 0.7-0.7 0.8-1.8 1-2.7 0.2-0.9 0.2-2.3 0.9-3 0.6-0.5 1.5-0.7 2.2-1.3 0.9-0.9 1.7-2.1 2.2-3.2 0.8-1.6 1.9-3 2.7-4.5 0.5-0.8 1.2-1.9 1.9-2.6 0.7-0.7 1.7-0.9 2.6-1 0.8-0.1 1.7-0.3 2.4-0.6 0.8-0.3 1.7-0.6 2.4-1 0.6-0.3 1.1-0.9 1.7-1.4 1.3-1.2 2.8-1.6 4.6-1.9 0.7-0.2 1.1-0.3 1.8-0.1 0.6 0.2 1.1 0.5 1.7 0.6 0.8 0.2 1.9 0.5 2.7 0.3 2.9-0.9 0.9-3.5 0.4-5.5-1-3.9-1-7.9-1-12 0-1.2-0.2-2.6 0.3-3.8 0.2-0.5 0.3-1.2 0.5-1.7 0.2-0.4 0.6-0.7 0.8-1 0.3-0.7 0.1-1 0.9-1.4 0.8-0.4 1.5-0.5 2.4-0.5 2.3 0 5-0.3 7.2 0.6 0.9 0.4 1.7 1.1 2.5 1.7 0.8 0.7 1.5 1.1 1.6 2.3 0.2 1.3 0.8 2.6 2.2 3 1.2 0.3 2.5 0.8 3.7 0.8 0.9 0 1.7-0.4 2.5-0.3 0.2 0.1 0.5 0.3 0.7 0.3 0.4 0 0.8-0.3 1.2-0.4 0.9-0.4 1.6-0.4 2.6-0.4 1.7 0 2.2-1.1 3.5-2.2 1.4-1.1 2.6-2.1 4.4-2.1 2.3 0 4-1.9 5-3.7 1.6-2.9 3.1-6.6 1.8-9.9-0.5-1.2-1.4-2.1-2.1-3.2-0.8-1.1-1.1-2.4-1.5-3.7-0.3-1.1-1.5-2.4-2.7-2.7-1-0.2-2-0.1-2.8-0.8-0.7-0.7-1.5-1.7-2.1-2.6-0.7-1.3-1-3.3-1-4.7 0-0.5-0.1-0.6-0.3-1-0.1-0.3 0.1-0.7 0-1.1-0.2-1.1-0.5-2.1-0.7-3.2-0.3-1.2-1-2.6-0.9-3.8 0-1 0.6-2.2 1.3-2.8 0.9-0.7 1.6-1.6 2.2-2.5 0.4-0.5 0.7-1 0.9-1.5 0.2-0.6 0.1-1.1 0.2-1.6 0.1-0.9 0.9-1.5 1.7-1.6 0.6-0.2 1.1 0 1.6-0.1 0.8-0.1 1.6-0.6 2.1-1.2 1.1-1.3 0.9-3.5 0.8-5.2-0.1-1.8-1.3-2.6-2.2-4-0.8-1.3-1.2-3.3-0.2-4.7 0.4-0.5 1-0.9 1.2-1.6 0.3-0.7-0.2-1.8-0.5-2.5-0.6-1.2-1.4-2.3-2.4-3.3-0.4-0.5-0.5-0.9-0.8-1.5-0.3-0.7-0.7-1.3-1.1-2-0.2-0.6-0.5-1-0.9-1.5-0.3-0.2-0.4-0.5-0.6-0.8-0.7-0.7-1.5-1.1-2.1-1.9-0.5-0.7-1-1.4-1.4-2.1-0.3-0.8-0.3-1.5-0.3-2.3-0.1-1.2-0.7-1.9-1.2-2.8-0.3-0.4-0.5-0.7-0.8-1.1-0.6-0.6-0.9-1.2-1.3-1.9-0.5-0.7-1.2-1-1.9-1.4-0.3-0.1-0.4-0.3-0.8-0.2-0.4 0.1-1.2 0.7-1.5 1-0.8 0.8-1.8 1.2-2.9 1.5q-1.6 0.5-3.2 1c-1.4 0.4-2.8 0.4-4.2 0.8-1.9 0.4-3.6 0.8-4.5 2.6-0.7 1.4-0.4 3-0.4 4.4 0 0.5-0.1 1 0.1 1.5 0.1 0.8 0.5 1.5 0.7 2.2 0.4 2-0.3 4.1-0.9 6-0.7 1.9-1.9 3.3-3.4 4.6-1.9 1.8-4.8 1.7-7 2.7-1.6 0.7-3.9 1.7-4.3 3.5-0.3 1.4 0.5 2.3 0.7 3.5 0.2 0.8 0 1.7 0.2 2.4 0.3 1 0 1.5-0.9 2.2-0.4 0.3-0.9 0.7-1.1 1.3-0.1 0.3 0.1 0.7 0 1-0.1 0.6-0.7 1-1.2 1.2-1 0.2-1.9 0.2-2.8 0.8-0.8 0.5-1.1 1.3-2.1 1.5-0.7 0.2-1.3 0-2.1-0.1-1.3-0.1-2.6-0.1-3.8-0.4-2.3-0.5-4.4-0.9-6.8-0.8-1.8 0.1-2.9 0.6-4.6-0.4-1.1-0.7-2.2-1.4-3.4-2-1.3-0.6-2.7-1.1-4.1-1.7-2.1-0.8-4.3-1.2-6.4-1.8-2.2-0.6-3.7-2.6-5.3-4.1-1.5-1.5-2.8-3.3-3.3-5.4-0.3-1.3-0.2-2.3 0-3.7 0.4-3-1.1-5.8-0.7-8.8 0.5-3.1 0.8-6.3 2.1-9.2 0.5-1.3 1.5-2.3 2.1-3.5 0.7-1.3 2-1.9 3.2-2.4 0.9-0.4 2-1 3.1-0.9 1.2 0 0.9 0.8 1.3 1.6 0.3 0.6 0.8 1 1.3 1.5 1.1 1 2.6 0 3.7-0.7 1.2-0.7 2.9-2.1 4.4-1.8 1.2 0.3 2.3 0.9 3.4 0.1 0.7-0.5 1.3-1.5 0.7-2.4-0.9-1.5-3.1-1.6-4.6-1.5-1.9 0-3.7-0.1-5.5 0.2-1.1 0.1-2.2 0.4-3.3 0.2-1.2-0.3-2.2-0.9-3.3-1.4-1.8-0.8-3.4-0.1-5.2 0.6-2.1 0.8-4.2 2.3-5.1 4.4-0.8 1.8-0.4 3.8-0.6 5.6 0 0.9-0.2 1.8-0.5 2.6-0.4 1.3-1.3 2.3-2.1 3.4-1.4 1.9-2.2 3.9-1.8 6.2 0.2 1 0.1 1.5-0.3 2.5-0.4 0.7-1.1 1.6-1.3 2.3-0.2 0.8 0.3 1 0.9 1.5 0.7 0.5 1.4 1.5 1.6 2.4 0.5 2.2-0.6 4.3-2.3 5.6-1.2 0.9-2.8 1.2-3.6 2.4-0.4 0.7-0.8 1.4-1.2 2.1-0.7 1-1.6 1.7-2.7 2.2-1.2 0.6-2.6 0.7-3.6 1.7-0.6 0.5-0.8 1.1-1.2 1.8-0.5 1.2-1.1 2.2-1.7 3.3-0.6 1.1-1.2 1.8-2.3 2.4-1.2 0.7-2.5 1.4-3.7 2.2-1.3 0.8-2.2 2-3.3 3.1-1.2 1.3-2.7 1.7-4.4 2.1-2.4 0.5-4.9 1.2-7.4 1.6-2.2 0.3-4.2 0.2-6.3-0.6-1.6-0.6-3.3-1.2-4.8-2 4.8-44.9 42.8-79.8 88.9-79.8 49.5 0 89.5 40 89.5 89.5z"/>
					</g>
					<path id="&lt;Path&gt;" class="s3" d="m486 19.1c-0.3 0-4.3-0.7-8-1.2-3.8-0.5-3.1-2.1-6.4-3-3.3-0.9-9.3-2.1-10.3-1.9-1 0.2-2.2 1.1-4.3 1-2.2-0.1-6.1-0.3-9-0.1-2.9 0.2-7.6-1.1-9.3 0.3-1.7 1.4-8.1 3.2-12.9 4.6-4.8 1.3-5.9 2-9.4 4-3.6 2-5.2 4.7-9.3 7.5-4.1 2.8-6.1 1.9-8.9 2.5-2.7 0.6-1.9 0.8-6.1 3.9-4.2 3.2-4.3 6.2-6.5 8.9-2.1 2.7-7.2 6.7-7.2 6.7l-3.2 6.3-2.8 4.7c0 0 2 3-2.2 7.7-4.3 4.8-6.9 15-6.9 15h-0.1c7.4-41.9 44.1-73.8 88.1-73.8 12.3 0 24 2.4 34.7 6.9z"/>
					<path id="&lt;Path&gt;" class="s4" d="m464.9 190.2c0 0 6.8-5 7.4-9.2 0.6-4.3-3.2-4.8-3.5-7.3-0.2-2.5 5-9.6 5.8-14 0.7-4.5 0-8.5-1.8-11.3-1.8-2.9-11.9-7.4-13.5-12.9-1.5-5.5-10.7-12.3-10.5-17.7 0.1-5.4 4.5-9.8 5.4-17.6 0.8-7.9-0.7-10.2-0.7-10.2 0 0 2.3 3.7 1.9 10.8-0.4 7.1-5.6 12-6 17-0.4 5.1 11.1 15.2 11.4 17 0.2 1.7 0 2.3 2 4.4 2.1 2.1 9.6 6.7 11.6 9.8 1.9 3 4.2 0.5 4.8-4 0.5-4.5-0.2-10.5 2.9-13.5 3.2-2.9 5.2-3.1 6-7.4 0.8-4.4 0.9-7.9-1-10.8-1.8-2.9-5.4-5.1-5-8.9 0.5-3.8-2.3-16.6-7.2-23-4.9-6.4-5.6-10.7-5.6-10.7 0 0 2.3 5.9 7.1 10.7 4.8 4.7 5.8 22 6.7 25 0.8 3 4.2 1.2 5.5 9.3 1.4 8.1-0.1 11.5-1.5 13.1-1.3 1.6-4.8 2.5-6 4.8-1.1 2.4-0.7 11.7-1 14.6-0.3 2.9-2.5 3.3-3.5 5.6-1.1 2.4-0.7 5.4-3.8 12-3.1 6.5-2.8 8.5 0 10.9 2.8 2.5 10.4 2.8 11 4.5 0.6 1.8-2.4 3.4-2.2 4 0.2 0.7 3.8-0.7 3.8-0.7 0 0-11.2 4.7-20.5 5.7z"/>
					<path id="&lt;Path&gt;" class="s4" d="m389.4 166.3c0 0 11.8 3.9 15.6-0.3 3.8-4.2 2.4-8.8 3.4-15.4 1-6.5 1.3-8.9 6.4-11 5.2-2.1 10-1.3 11.8-4.8 1.8-3.6 7.4-9.2 7.4-9.2 0 0-5.9 5.1-6.5 9.9-0.5 4.8-10.9 0.7-15.9 7.2-3.6 4.5-0.5 15.2-3.2 21.8-2.7 6.5-14.2 5.7-14.2 5.7 0 0-2.7-1.6-4.8-3.9z"/>
					<path id="&lt;Path&gt;" class="s4" d="m540.8 101.7c0 21.7-7.7 41.7-20.6 57.2-1.3-1.6-2.6-4.3-2.8-8.7-0.3-9-0.2-13.4-3.5-19.5-3.3-6-7.1-3-8-9.7-0.8-6.6-3.8-13.7-4-14.1 0.3 0.3 3.7 5.4 4.2 7.7 0.5 2.4 0.1 6.7 1.2 9 1.2 2.2 5.5 3.9 7.1 5.2 1.7 1.3 3.3 8.7 3.3 12.3 0 3.7 2.6 4.2 3.6 4.1 1-0.1 6.1-5.1 6.5-7 0.5-1.9 5.4-13.4 1.4-18.7-4-5.3-8.2-4-11.2-8.4-3.1-4.4-4.9-4.1-12.6-8.8 0.6 0.2 5.6 2.4 9.5 4.4 4.2 2.2 3.6 4 5.8 6 2.1 2.1 5.8 2.8 7.8 4.2 2.1 1.3 3.3 7.6 4.6 10 1.3 2.5 6-1.3 4.4-10.7-1.5-9.5-5-9.3-5.6-13.3-0.6-3.9 4.5-1.6 6.3-5.6 1.8-4-0.6-10.7-1.8-13.9-1.2-3.1-4.5-4.5-8.1-7.4-3.7-2.8-2.9-4.3-7.6-6.9-3.6-2-7.8-2.5-9.6-2.6 2.1 0.1 7.4 0.4 9.9 1.2 3.1 1 4.9 5.8 7.3 7.6 2.3 1.7 6.6 2.3 7.3 0.7 0.7-1.6-0.3-5.7-3.8-10.6-2.7-3.7-4.7-10-5.6-12.7 9.3 14 14.6 30.9 14.6 49z"/>
					<path id="&lt;Path&gt;" class="s4" d="m361.9 103.3c0 0 4.3 2.3 6.8 2.6 2.5 0.2 6.2-1.6 10.6-2 4.4-0.3 9.2 1.4 13.1 1 0 0-6.6 0.3-9.3 0-2.6-0.3-1.5-0.3-4.6-0.3-3.2 0-6.2 1.8-9.2 2.2-2.9 0.5-3-0.7-5.1 0.4-2.1 1-2 2.4-2 2.4 0 0-0.3-5.4-0.3-6.3z"/>
					<path id="&lt;Path&gt;" class="s4" d="m366.8 72.3c0 0 9.4 7.5 23.3 9.9 5 0.9 10.8-0.8 13.6 4.5 1.9 3.7 9 4.9 9 4.9 0 0-4.2 0.5-7.7-1.9-3.4-2.4-1.4-4.4-5.9-6-4.5-1.5-6.9-0.1-10-0.6-3.1-0.5-10.7-5.3-12.9-3.3-2.4 2.3 0.6 5.4 4.4 8.1 3.9 2.7 8.2 0.6 10.8 1.3 2.7 0.7 3.4 1 3.4 1 0 0-2.4-0.3-6-0.5-3.6-0.2-4.1 1.3-6.8 0-2.8-1.3-6.1-4.9-7.4-7.5-1.3-2.6-0.8-4.4-3-6.2-2.2-1.7-6 0-6 0z"/>
					<path id="&lt;Path&gt;" class="s4" d="m469.3 14.3c0 0 4.4 5.9 4.4 8.1 0 5.5-3.3 10.8-4.7 14.1-1.8 4.1-1.8 8.6-1.8 8.6v5.1c0 0 0.1-5.5 1-8.1 0.9-2.7 2.7-2.9 3.2-4.9 0.5-2-0.3-4.5 0.9-7.6 1.2-3 2.3-3.1 2.3-5.2-0.1-2.1-0.3-5.5 1.6-6.4 1.9-1 4-1.1 4-1.1 0 0-5.9-2.1-10.9-2.6z"/>
					<path id="&lt;Path&gt;" class="s4" d="m415.9 19.4c0 0 1.7 0.8 2.8 5.5 0.4 1.5 0.1 3.2 2.5 5.8 2.5 2.6 3.7 3.9 4.3 5.5 0.6 1.7 1.5 5.3 1.5 5.3 0 0-1.9-5.6-3.1-7.1-1.3-1.6-1.6-1.1-3-2.4-1.4-1.3-1-2.4-2.5-5.7-1.4-3.4-6.5-5-6.5-5z"/>
				</g>
				<g id="&lt;Group&gt;" style="opacity: .3">
					<path id="&lt;Path&gt;" class="s5" d="m467.6 145.6c-97.2 38.4-185.8 45-197.7 14.7-12-30.3 57.2-85.9 154.5-124.3 97.2-38.4 185.8-45 197.7-14.8 12 30.3-57.2 86-154.5 124.4z"/>
				</g>
			</g>
		</g>
	</g>
</svg>